0
SECTION
2
HEADER
9
$INSUNITS
70
4
9
$ACADVER
1
AC1014
9
$HANDSEED
5
FFFF
0
ENDSEC
0
SECTION
2
TABLES
0
TABLE
2
VPORT
5
8
100
AcDbSymbolTable
0
ENDTAB
0
TABLE
2
LTYPE
5
5
100
AcDbSymbolTable
0
LTYPE
5
14
100
AcDbSymbolTableRecord
100
AcDbLinetypeTableRecord
2
BYBLOCK
70
0
0
LTYPE
5
15
100
AcDbSymbolTableRecord
100
AcDbLinetypeTableRecord
2
BYLAYER
70
0
0
ENDTAB
0
TABLE
2
LAYER
5
2
100
AcDbSymbolTable
70
2
0
LAYER
5
50
100
AcDbSymbolTableRecord
100
AcDbLayerTableRecord
2
0
70
0
6
CONTINUOUS
0
ENDTAB
0
TABLE
2
STYLE
5
3
100
AcDbSymbolTable
70
1
0
STYLE
5
11
100
AcDbSymbolTableRecord
100
AcDbTextStyleTableRecord
2
STANDARD
70
0
0
ENDTAB
0
TABLE
2
VIEW
5
6
100
AcDbSymbolTable
70
0
0
ENDTAB
0
TABLE
2
UCS
5
7
100
AcDbSymbolTable
70
0
0
ENDTAB
0
TABLE
2
APPID
5
9
100
AcDbSymbolTable
70
2
0
APPID
5
12
100
AcDbSymbolTableRecord
100
AcDbRegAppTableRecord
2
ACAD
70
0
0
ENDTAB
0
TABLE
2
DIMSTYLE
5
A
100
AcDbSymbolTable
70
1
0
ENDTAB
0
TABLE
2
BLOCK_RECORD
5
1
100
AcDbSymbolTable
70
1
0
BLOCK_RECORD
5
1F
100
AcDbSymbolTableRecord
100
AcDbBlockTableRecord
2
*MODEL_SPACE
0
BLOCK_RECORD
5
1B
100
AcDbSymbolTableRecord
100
AcDbBlockTableRecord
2
*PAPER_SPACE
0
ENDTAB
0
ENDSEC
0
SECTION
2
BLOCKS
0
BLOCK
5
20
100
AcDbEntity
100
AcDbBlockBegin
2
*MODEL_SPACE
0
ENDBLK
5
21
100
AcDbEntity
100
AcDbBlockEnd
0
BLOCK
5
1C
100
AcDbEntity
100
AcDbBlockBegin
2
*PAPER_SPACE
0
ENDBLK
5
1D
100
AcDbEntity
100
AcDbBlockEnd
0
ENDSEC
0
SECTION
2
ENTITIES
0
CIRCLE
5
100
100
AcDbEntity
8
0
100
AcDbCircle
10
-133.21656435677846
20
-198.87309791519044
30
0
40
3.0000000000000422
210
-3.0814879110195774e-33
220
-4.2764235361475138e-49
230
1
0
CIRCLE
5
101
100
AcDbEntity
8
0
100
AcDbCircle
10
145.9334356432208
20
-306.72057887085401
30
0
40
3.0000000000000422
210
-3.0814879110195774e-33
220
-4.2764235361475138e-49
230
1
0
CIRCLE
5
102
100
AcDbEntity
8
0
100
AcDbCircle
10
-133.21656435677846
20
-216.87309791519033
30
0
40
3.0000000000000422
210
-3.0814879110195774e-33
220
-4.2764235361475138e-49
230
1
0
CIRCLE
5
103
100
AcDbEntity
8
0
100
AcDbCircle
10
145.9334356432208
20
-288.72057887085407
30
0
40
2.9999999999999711
210
-3.0814879110195774e-33
220
-4.2764235361475138e-49
230
1
0
LWPOLYLINE
5
104
100
AcDbEntity
8
0
100
AcDbPolyline
90
24
70
1
43
0.0
10
4.1344428566802867
20
196.67892051545431
42
-0.42260913640849346
10
3.1348512074917068
20
197.70749558978304
42
-0.97879281548812647
10
3.134851207491776
20
57.73965964479423
42
-0.42260913640844933
10
4.1344428566801668
20
58.768234719122404
10
4.1344428566801614
20
83.711081124276845
42
-0.41421356237311258
10
3.1344428566802218
20
84.711081124276845
10
47.671942856680339
20
84.711081124276845
10
47.671942856680154
20
106.93608112427688
42
-0.18763097567466178
10
-44.403057143319501
20
106.93608112427688
10
-44.403057143319664
20
84.711081124276888
10
0.13444285668025427
20
84.711081124276845
42
-0.41421356237309681
10
-0.86555714331969491
20
83.711081124276902
10
-0.86555714331969136
20
58.768234719122475
42
-0.42260913640841613
10
0.13403450586869536
20
57.739659644794401
42
-0.97878811549979727
10
0.13403450586405588
20
197.70749558978275
42
-0.42260913640846121
10
-0.86555714331956946
20
196.67892051545451
10
-0.86555714331970712
20
171.73607411030017
42
-0.41421356237315032
10
0.13444285668037459
20
170.73607411030011
10
-44.403057143319387
20
170.73607411030014
10
-44.403057143319572
20
148.51107411030043
42
-0.18763097567466291
10
47.671942856680367
20
148.51107411030023
10
47.671942856680474
20
170.73607411030011
10
3.1344428566802525
20
170.73607411030011
42
-0.41421356237309198
10
4.1344428566802911
20
171.73607411030017
0
CIRCLE
5
105
100
AcDbEntity
8
0
100
AcDbCircle
10
1.6346109208331752
20
-129.01059556070905
30
0
40
4
210
3.0814879110195774e-33
220
4.2764235361475138e-49
230
1
0
CIRCLE
5
106
100
AcDbEntity
8
0
100
AcDbCircle
10
-73.46538907916684
20
220.18940618272691
30
0
40
4.0000000000000036
210
-0
220
0
230
1
0
CIRCLE
5
107
100
AcDbEntity
8
0
100
AcDbCircle
10
76.734610920833106
20
220.18940618272691
30
0
40
4.0000000000000036
210
-0
220
0
230
1
0
CIRCLE
5
108
100
AcDbEntity
8
0
100
AcDbCircle
10
-72.53354156924452
20
256.7503923715372
30
0
40
2.9999999999999978
210
-3.0814879110195774e-33
220
-5.1317082433770149e-49
230
1
0
CIRCLE
5
109
100
AcDbEntity
8
0
100
AcDbCircle
10
60.66019981994944
20
266.48192708573794
30
0
40
2.9999999999999978
210
-3.0814879110195774e-33
220
-5.1317082433770149e-49
230
1
0
CIRCLE
5
110
100
AcDbEntity
8
0
100
AcDbCircle
10
-57.390977978283289
20
266.48192708574487
30
0
40
2.9999999999999978
210
-3.0814879110195774e-33
220
-5.1317082433770149e-49
230
1
0
CIRCLE
5
111
100
AcDbEntity
8
0
100
AcDbCircle
10
75.802763410910671
20
256.75039237153709
30
0
40
2.9999999999999978
210
-3.0814879110195774e-33
220
-5.1317082433770149e-49
230
1
0
LINE
5
112
100
AcDbEntity
8
0
100
AcDbLine
10
19.164610920833177
20
-335.91041109831394
30
0
11
25.65076873351817
21
-335.87090629815407
31
0
0
ARC
5
113
100
AcDbEntity
8
0
100
AcDbCircle
10
25.611789411864976
20
-329.47102500140488
30
-3.1474477226045696e-45
40
6.3999999999997321
210
1.0585464984014174e-32
220
6.4472171487500392e-35
230
1
100
AcDbArc
50
270.34896319167444
51
329.53229226802819
0
ARC
5
114
100
AcDbEntity
8
0
100
AcDbCircle
10
36.558110870039592
20
-335.91059381727337
30
-2.8874411716068008e-45
40
6.3000000000002387
210
1.0623923541259663e-32
220
-6.2499066010325431e-33
230
1
100
AcDbArc
50
90.000000000001606
51
149.53229226802787
0
LINE
5
115
100
AcDbEntity
8
0
100
AcDbLine
10
36.558110870039414
20
-329.61059381727307
30
3.9374411586505506e-32
11
174.63461092083315
21
-329.61059381727307
31
0
0
LINE
5
116
100
AcDbEntity
8
0
100
AcDbLine
10
174.63461092083315
20
-329.61059381727307
30
0
11
174.6346109208331
21
-227.91059381727308
31
3.944304526105059e-30
0
LINE
5
117
100
AcDbEntity
8
0
100
AcDbLine
10
174.6346109208331
20
-227.91059381727308
30
3.944304526105059e-30
11
197.33461092083309
21
-227.91059381727305
31
0
0
LINE
5
118
100
AcDbEntity
8
0
100
AcDbLine
10
197.33461092083309
20
-227.91059381727305
30
0
11
197.33461092083306
21
-90.510595009366085
31
0
0
ARC
5
119
100
AcDbEntity
8
0
100
AcDbCircle
10
196.33461092083303
20
-90.510595009366142
30
1.0284798604434769e-46
40
1.0000000000000497
210
1.0284798604434924e-46
220
-1.2517628367462255e-46
230
1
100
AcDbArc
50
0
51
89.999999999996746
0
LINE
5
120
100
AcDbEntity
8
0
100
AcDbLine
10
196.33461092083309
20
-89.510595009366085
30
-4.5855523309810002e-47
11
187.63461367754789
21
-89.510595009366071
31
0
0
ARC
5
121
100
AcDbEntity
8
0
100
AcDbCircle
10
187.63461367754792
20
-90.510595009366142
30
-2.1082768033207239e-46
40
1.0000000000000675
210
3.0814879110195709e-33
220
-1.0135123780668945e-46
230
1
100
AcDbArc
50
90.000000000001634
51
180
0
LINE
5
122
100
AcDbEntity
8
0
100
AcDbLine
10
186.63461367754789
20
-90.510595009366085
30
3.0814879110195134e-33
11
186.63461367754789
21
-93.910593817273138
31
-1.2325951644078309e-31
0
LINE
5
123
100
AcDbEntity
8
0
100
AcDbLine
10
186.63461367754789
20
-93.910593817273138
30
-1.2325951644078309e-31
11
142.93461092083311
21
-93.91059381727311
31
0
0
ARC
5
124
100
AcDbEntity
8
0
100
AcDbCircle
10
142.93461092083311
20
-74.910593817273124
30
0
40
19.000000000000004
210
-3.0814879110195698e-33
220
-4.9303806576313232e-32
230
1
100
AcDbArc
50
180
51
270
0
LINE
5
125
100
AcDbEntity
8
0
100
AcDbLine
10
123.93461092083311
20
-74.910593817273124
30
-5.8548270309371828e-32
11
123.93461092083311
21
-34.810593817273137
31
0
0
LINE
5
126
100
AcDbEntity
8
0
100
AcDbLine
10
123.93461092083311
20
-34.810593817273137
30
0
11
124.5906369955037
21
-33.671469043263457
31
-3.8210450096642759e-30
0
SPLINE
5
127
100
AcDbEntity
8
0
100
AcDbSpline
70
0
71
3
72
12
73
8
74
0
42
0.000000001
43
0.0000000001
44
0.0000000001
40
0
40
0
40
0
40
0
40
1.422936454681772
40
1.422936454681772
40
2.0105982976943881
40
2.0105982976943881
40
2.6033960054276788
40
2.6033960054276788
40
2.6033960054276788
40
2.6033960054276788
10
146.11546265841747
20
3.7042742626330676
30
0
10
145.42113769292965
20
-0.9877524374299298
30
0
10
144.10885766561853
20
-6.979823447195229
30
0
10
138.55470855120296
20
-18.004134889180897
30
0
10
136.5918780545415
20
-21.300218876437214
30
0
10
132.26641155687264
20
-27.106723611557925
30
0
10
129.13240692438958
20
-30.6414528978971
30
0
10
124.59063699550371
20
-33.671469043263436
30
0
0
SPLINE
5
128
100
AcDbEntity
8
0
100
AcDbSpline
70
4
71
3
72
8
73
4
74
0
42
0.000000001
43
0.0000000001
44
0.0000000001
40
6.7735638816864441
40
6.7735638816864441
40
6.7735638816864441
40
6.7735638816864441
40
7.0247944686733756
40
7.0247944686733756
40
7.0247944686733756
40
7.0247944686733756
41
1
41
1
41
1
41
1
10
146.11546265841747
20
3.7042742626330676
30
0
10
146.1813767675616
20
4.1497007925546594
30
0
10
146.24328042677359
20
4.5966624560987155
30
0
10
146.30170295659403
20
5.0458692367725391
30
0
0
SPLINE
5
129
100
AcDbEntity
8
0
100
AcDbSpline
70
4
71
3
72
10
73
6
74
0
42
0.000000001
43
0.0000000001
44
0.0000000001
40
-2.8581327411771191
40
-2.8581327411771191
40
-2.8581327411771191
40
-2.8581327411771191
40
-1.4914250833507714
40
-1.4914250833507714
40
0
40
0
40
0
40
0
41
1
41
1
41
1
41
1
41
1
41
1
10
146.30170295659423
20
5.0458692367739602
30
0
10
146.77400682720696
20
8.677380947579076
30
0
10
147.05636164700283
20
12.784532828663142
30
0
10
147.44023037519912
20
22.346942735101596
30
0
10
147.5162594344701
20
27.836946054547568
30
0
10
147.53262622745174
20
32.808336057773516
30
0
0
LINE
5
130
100
AcDbEntity
8
0
100
AcDbLine
10
147.53262622745174
20
32.808336057773516
30
0
11
147.83461092083303
21
116.46723078478911
31
0
0
LINE
5
131
100
AcDbEntity
8
0
100
AcDbLine
10
147.83461092083303
20
116.46723078478911
30
0
11
154.0346109208331
21
158.38940618272684
31
0
0
LINE
5
132
100
AcDbEntity
8
0
100
AcDbLine
10
154.0346109208331
20
158.38940618272684
30
0
11
147.86134009968254
21
201.32544784536069
31
3.944304526105059e-30
0
LINE
5
133
100
AcDbEntity
8
0
100
AcDbLine
10
147.86134009968254
20
201.32544784536069
30
3.944304526105059e-30
11
129.84164932430505
21
240.78306676295998
31
9.8607613152626476e-31
0
LINE
5
134
100
AcDbEntity
8
0
100
AcDbLine
10
129.84164932430505
20
240.78306676295998
30
9.8607613152626476e-31
11
126.24876800730607
21
244.92947283875054
31
1.2325951644078309e-31
0
LINE
5
135
100
AcDbEntity
8
0
100
AcDbLine
10
126.24876800730607
20
244.92947283875054
30
1.2325951644078309e-31
11
136.42918869867452
21
253.75085758318471
31
0
0
LINE
5
136
100
AcDbEntity
8
0
100
AcDbLine
10
136.42918869867452
20
253.75085758318471
30
0
11
115.60461735921443
21
277.78369404765016
31
0
0
LINE
5
137
100
AcDbEntity
8
0
100
AcDbLine
10
115.60461735921443
20
277.78369404765016
30
0
11
105.42419666784603
21
268.96230930321587
31
0
0
LINE
5
138
100
AcDbEntity
8
0
100
AcDbLine
10
105.42419666784603
20
268.96230930321587
30
0
11
101.43538677409458
21
273.56564131431577
31
1.2325951644078309e-31
0
LINE
5
139
100
AcDbEntity
8
0
100
AcDbLine
10
101.43538677409458
20
273.56564131431577
30
1.2325951644078309e-31
11
64.943858902320542
21
297.01732227475543
31
0
0
LINE
5
140
100
AcDbEntity
8
0
100
AcDbLine
10
64.943858902320542
20
297.01732227475543
30
0
11
23.323392273681733
21
309.23819392538098
31
2.4651903288156619e-31
0
LINE
5
141
100
AcDbEntity
8
0
100
AcDbLine
10
23.323392273681733
20
309.23819392538098
30
2.4651903288156619e-31
11
23.323392273681719
21
320.18940618272688
31
0
0
LINE
5
142
100
AcDbEntity
8
0
100
AcDbLine
10
23.323392273681719
20
320.18940618272688
30
0
11
-20.0541704320155
21
320.18940618272677
31
0
0
LINE
5
143
100
AcDbEntity
8
0
100
AcDbLine
10
-20.0541704320155
20
320.18940618272677
30
0
11
-20.0541704320155
21
309.23819392538093
31
0
0
LINE
5
144
100
AcDbEntity
8
0
100
AcDbLine
10
-20.0541704320155
20
309.23819392538093
30
0
11
-61.674637060654319
21
297.01732227475549
31
-4.9303806576313238e-31
0
LINE
5
145
100
AcDbEntity
8
0
100
AcDbLine
10
-61.674637060654319
20
297.01732227475549
30
-4.9303806576313238e-31
11
-98.166164932428387
21
273.56564131431577
31
-1.9721522630525295e-30
0
LINE
5
146
100
AcDbEntity
8
0
100
AcDbLine
10
-98.166164932428387
20
273.56564131431577
30
-1.9721522630525295e-30
11
-126.57242748263889
21
240.78306676295992
31
-9.8607613152626476e-31
0
LINE
5
147
100
AcDbEntity
8
0
100
AcDbLine
10
-126.57242748263889
20
240.78306676295992
30
-9.8607613152626476e-31
11
-144.59211825801628
21
201.32544784536071
31
0
0
LINE
5
148
100
AcDbEntity
8
0
100
AcDbLine
10
-144.59211825801628
20
201.32544784536071
30
0
11
-150.76538907916691
21
158.38940618272684
31
0
0
LINE
5
149
100
AcDbEntity
8
0
100
AcDbLine
10
-150.76538907916691
20
158.38940618272684
30
0
11
-144.86167154016667
21
116.38227315621609
31
0
0
LINE
5
150
100
AcDbEntity
8
0
100
AcDbLine
10
-144.86167154016667
20
116.38227315621609
30
0
11
-163.46538907916681
21
-163.61059381727316
31
-7.8886090522101181e-30
0
LINE
5
151
100
AcDbEntity
8
0
100
AcDbLine
10
-163.46538907916681
20
-163.61059381727316
30
-7.8886090522101181e-30
11
-163.46538907916681
21
-244.61059381727318
31
0
0
LINE
5
152
100
AcDbEntity
8
0
100
AcDbLine
10
-163.46538907916681
20
-244.61059381727318
30
0
11
-160.36538907916676
21
-244.61059381727318
31
0
0
LINE
5
153
100
AcDbEntity
8
0
100
AcDbLine
10
-160.36538907916676
20
-244.61059381727318
30
0
11
-160.36538907916676
21
-294.61059381727307
31
0
0
ARC
5
154
100
AcDbEntity
8
0
100
AcDbCircle
10
-119.06538907916681
20
-294.61059381727307
30
0
40
41.299999999999955
210
0
220
0
230
1
100
AcDbArc
50
180
51
182.79844242576067
0
ARC
5
155
100
AcDbEntity
8
0
100
AcDbCircle
10
-122.24126930055364
20
-298.01059381727305
30
0
40
38.099999999999987
210
0
220
0
230
1
100
AcDbArc
50
177.91880944797495
51
270
0
LINE
5
156
100
AcDbEntity
8
0
100
AcDbLine
10
-122.24126930055365
20
-336.11059381727307
30
0
11
-79.465389079166755
21
-336.11059381727318
31
0
0
LINE
5
157
100
AcDbEntity
8
0
100
AcDbLine
10
-79.465389079166755
20
-336.11059381727318
30
0
11
-79.465389079166755
21
-339.12059381727312
31
0
0
LINE
5
158
100
AcDbEntity
8
0
100
AcDbLine
10
-79.465389079166755
20
-339.12059381727312
30
0
11
19.164610920833169
21
-339.12059381727312
31
2.4651903288156619e-31
0
LINE
5
159
100
AcDbEntity
8
0
100
AcDbLine
10
19.164610920833169
20
-339.12059381727312
30
2.4651903288156619e-31
11
19.164610920833177
21
-335.91041109831394
31
0
0
CIRCLE
5
160
100
AcDbEntity
8
0
100
AcDbCircle
10
-133.21656435677852
20
-198.87309791519047
30
0
40
3.0000000000000426
210
0
220
0
230
1
0
CIRCLE
5
161
100
AcDbEntity
8
0
100
AcDbCircle
10
145.93343564322086
20
-306.72057887085407
30
0
40
3.0000000000000426
210
0
220
0
230
1
0
CIRCLE
5
162
100
AcDbEntity
8
0
100
AcDbCircle
10
-133.21656435677849
20
-216.87309791519039
30
0
40
3.0000000000000426
210
0
220
0
230
1
0
CIRCLE
5
163
100
AcDbEntity
8
0
100
AcDbCircle
10
145.93343564322086
20
-288.72057887085407
30
0
40
2.9999999999999716
210
0
220
0
230
1
0
LWPOLYLINE
5
164
100
AcDbEntity
8
0
100
AcDbPolyline
90
24
70
1
43
0.0
10
-0.8655571433196918
20
58.768234719122496
42
-0.4226091364084093
10
0.13403450586874421
20
57.739659644794401
42
-0.97878811549979727
10
0.1340345058640656
20
197.70749558978278
42
-0.42260913640844189
10
-0.86555714331956812
20
196.67892051545454
10
-0.86555714331970746
20
171.73607411030019
42
-0.41421356237316792
10
0.13444285668037459
20
170.73607411030014
10
-44.403057143319387
20
170.73607411030019
10
-44.403057143319614
20
148.5110741103004
42
-0.1876309756746635
10
47.671942856680339
20
148.51107411030026
10
47.671942856680481
20
170.73607411030014
10
3.1344428566802431
20
170.73607411030014
42
-0.41421356237309503
10
4.1344428566802929
20
171.73607411030019
10
4.1344428566802884
20
196.67892051545482
42
-0.42260913640849856
10
3.1348512074926305
20
197.70749558978304
42
-0.97879281548812125
10
3.1348512074917654
20
57.739659644794244
42
-0.42260913640844638
10
4.1344428566801668
20
58.768234719122425
10
4.1344428566801623
20
83.711081124276902
42
-0.41421356237310542
10
3.1344428566802218
20
84.711081124276873
10
47.671942856680346
20
84.711081124276873
10
47.671942856680189
20
106.93608112427694
42
-0.18763097567466269
10
-44.403057143319522
20
106.9360811242769
10
-44.403057143319671
20
84.711081124276916
10
0.13444285668026565
20
84.711081124276873
42
-0.41421356237309481
10
-0.86555714331969458
20
83.711081124276916
0
LINE
5
165
100
AcDbEntity
8
0
100
AcDbLine
10
19.164610920833184
20
-335.91041109831394
30
0
11
19.164610920833184
21
-339.12059381727312
31
5.5155043679031883e-17
0
LINE
5
166
100
AcDbEntity
8
0
100
AcDbLine
10
-79.465389079166798
20
-339.12059381727312
30
0
11
19.164610920833184
21
-339.12059381727312
31
5.5155043679031883e-17
0
LINE
5
167
100
AcDbEntity
8
0
100
AcDbLine
10
-79.465389079166798
20
-336.11059381727318
30
0
11
-79.465389079166798
21
-339.12059381727312
31
0
0
LINE
5
168
100
AcDbEntity
8
0
100
AcDbLine
10
-79.465389079166798
20
-336.11059381727318
30
0
11
-122.2412693005537
21
-336.11059381727318
31
2.590341317447836e-16
0
ARC
5
169
100
AcDbEntity
8
0
100
AcDbCircle
10
-122.2412693005537
20
-298.01059381727316
30
0
40
38.100000000000009
210
-1.0894704990131559e-33
220
1.0894704990131558e-33
230
1
100
AcDbArc
50
177.91880944797458
51
270
0
ARC
5
170
100
AcDbEntity
8
0
100
AcDbCircle
10
-119.06538907916683
20
-294.61059381727307
30
0
40
41.29999999999999
210
0
220
0
230
1
100
AcDbArc
50
180
51
182.79844242576081
0
LINE
5
171
100
AcDbEntity
8
0
100
AcDbLine
10
-160.36538907916682
20
-294.61059381727307
30
0
11
-160.36538907916682
21
-244.61059381727313
31
-8.5906393043126846e-16
0
LINE
5
172
100
AcDbEntity
8
0
100
AcDbLine
10
-163.46538907916684
20
-244.61059381727318
30
0
11
-160.36538907916682
21
-244.61059381727313
31
-8.5906393043126846e-16
0
LINE
5
173
100
AcDbEntity
8
0
100
AcDbLine
10
-163.46538907916684
20
-244.61059381727318
30
0
11
-163.46538907916684
21
-163.61059381727316
31
-1.3916835672986562e-15
0
LINE
5
174
100
AcDbEntity
8
0
100
AcDbLine
10
-163.46538907916684
20
-163.61059381727316
30
-1.3916835672986562e-15
11
-144.86167154016667
21
116.38227315621609
31
-4.9232923502752793e-15
0
LINE
5
175
100
AcDbEntity
8
0
100
AcDbLine
10
-144.86167154016667
20
116.38227315621609
30
-4.9232923502752793e-15
11
-150.76538907916691
21
158.38940618272687
31
-6.8598563355746531e-16
0
LINE
5
176
100
AcDbEntity
8
0
100
AcDbLine
10
-150.76538907916691
20
158.38940618272687
30
-6.8598563355746531e-16
11
-144.59211825801631
21
201.32544784536077
31
-7.7507902675633347e-16
0
LINE
5
177
100
AcDbEntity
8
0
100
AcDbLine
10
-144.59211825801631
20
201.32544784536077
30
-7.7507902675633347e-16
11
-126.57242748263896
21
240.78306676295998
31
-7.8705259877914364e-16
0
LINE
5
178
100
AcDbEntity
8
0
100
AcDbLine
10
-126.57242748263896
20
240.78306676295998
30
-7.8705259877914364e-16
11
-98.166164932428401
21
273.56564131431583
31
-7.3526385003090337e-16
0
LINE
5
179
100
AcDbEntity
8
0
100
AcDbLine
10
-98.166164932428401
20
273.56564131431583
30
-7.3526385003090337e-16
11
-61.674637060654334
21
297.01732227475554
31
-6.239083969356499e-16
0
LINE
5
180
100
AcDbEntity
8
0
100
AcDbLine
10
-61.674637060654334
20
297.01732227475554
30
-6.239083969356499e-16
11
-20.054170432015503
21
309.2381939253811
31
-4.6200759604677269e-16
0
LINE
5
181
100
AcDbEntity
8
0
100
AcDbLine
10
-20.054170432015503
20
309.2381939253811
30
-4.6200759604677269e-16
11
-20.054170432015503
21
320.18940618272688
31
-1.881558288956515e-16
0
LINE
5
182
100
AcDbEntity
8
0
100
AcDbLine
10
-20.054170432015503
20
320.18940618272688
30
-1.881558288956515e-16
11
23.323392273681733
21
320.18940618272688
31
-2.6267768739116055e-16
0
LINE
5
183
100
AcDbEntity
8
0
100
AcDbLine
10
23.323392273681733
20
309.2381939253811
30
0
11
23.323392273681733
21
320.18940618272688
31
-2.6267768739116055e-16
0
LINE
5
184
100
AcDbEntity
8
0
100
AcDbLine
10
23.323392273681733
20
309.2381939253811
30
0
11
64.943858902320557
21
297.01732227475549
31
-4.2067194707474813e-17
0
LINE
5
185
100
AcDbEntity
8
0
100
AcDbLine
10
64.943858902320557
20
297.01732227475549
30
-4.2067194707474813e-17
11
101.43538677409464
21
273.56564131431583
31
1.8195133190816915e-16
0
LINE
5
186
100
AcDbEntity
8
0
100
AcDbLine
10
105.42419666784608
20
268.96230930321593
30
0
11
101.43538677409464
21
273.56564131431583
31
1.8195133190816915e-16
0
LINE
5
187
100
AcDbEntity
8
0
100
AcDbLine
10
105.42419666784608
20
268.96230930321593
30
0
11
115.60461735921447
21
277.78369404765016
31
-2.1321134627512159e-16
0
LINE
5
188
100
AcDbEntity
8
0
100
AcDbLine
10
115.60461735921447
20
277.78369404765016
30
-2.1321134627512159e-16
11
136.42918869867455
21
253.75085758318471
31
2.8680933584646633e-16
0
LINE
5
189
100
AcDbEntity
8
0
100
AcDbLine
10
136.42918869867455
20
253.75085758318471
30
2.8680933584646633e-16
11
126.24876800730611
21
244.92947283875051
31
2.1321134627512098e-16
0
LINE
5
190
100
AcDbEntity
8
0
100
AcDbLine
10
129.84164932430511
20
240.78306676296
30
0
11
126.24876800730611
21
244.92947283875051
31
2.1321134627512098e-16
0
LINE
5
191
100
AcDbEntity
8
0
100
AcDbLine
10
129.84164932430511
20
240.78306676296
30
0
11
147.86134009968259
21
201.3254478453608
31
5.6881208893333471e-16
0
LINE
5
192
100
AcDbEntity
8
0
100
AcDbLine
10
154.03461092083313
20
158.38940618272687
30
0
11
147.86134009968259
21
201.3254478453608
31
5.6881208893333471e-16
0
LINE
5
193
100
AcDbEntity
8
0
100
AcDbLine
10
147.83461092083309
20
116.46723078478914
30
0
11
154.03461092083313
21
158.38940618272687
31
0
0
LINE
5
194
100
AcDbEntity
8
0
100
AcDbLine
10
147.83461092083309
20
116.46723078478914
30
0
11
147.5326262274518
21
32.808336057773516
31
1.4391954805146215e-15
0
SPLINE
5
195
100
AcDbEntity
8
0
100
AcDbSpline
70
4
71
3
72
10
73
6
74
0
42
0.000000001
43
0.0000000001
44
0.0000000001
40
0
40
0
40
0
40
0
40
1.4914250833507714
40
1.4914250833507714
40
2.8581327411771191
40
2.8581327411771191
40
2.8581327411771191
40
2.8581327411771191
41
1
41
1
41
1
41
1
41
1
41
1
10
147.5326262274518
20
32.808336057773523
30
0
10
147.51625943447016
20
27.836946054547582
30
0
10
147.44023037519918
20
22.346942735101607
30
0
10
147.05636164700289
20
12.784532828663149
30
0
10
146.77400682720699
20
8.6773809475790813
30
0
10
146.30170295659428
20
5.0458692367739637
30
0
0
SPLINE
5
196
100
AcDbEntity
8
0
100
AcDbSpline
70
4
71
3
72
8
73
4
74
0
42
0.000000001
43
0.0000000001
44
0.0000000001
40
-7.0247944686733756
40
-7.0247944686733756
40
-7.0247944686733756
40
-7.0247944686733756
40
-6.7735638816864441
40
-6.7735638816864441
40
-6.7735638816864441
40
-6.7735638816864441
41
1
41
1
41
1
41
1
10
146.30170295659408
20
5.0458692367725426
30
0
10
146.24328042677365
20
4.596662456098719
30
0
10
146.18137676756166
20
4.149700792554663
30
0
10
146.11546265841753
20
3.7042742626330716
30
0
0
SPLINE
5
197
100
AcDbEntity
8
0
100
AcDbSpline
70
4
71
3
72
12
73
8
74
0
42
0.000000001
43
0.0000000001
44
0.0000000001
40
0.10010351349993118
40
0.10010351349993118
40
0.10010351349993118
40
0.10010351349993118
40
1.8462846297172044
40
1.8462846297172044
40
4.1706380960675027
40
4.1706380960675027
40
6.7735638816864441
40
6.7735638816864441
40
6.7735638816864441
40
6.7735638816864441
41
1
41
1
41
1
41
1
41
1
41
1
41
1
41
1
10
124.59063699550373
20
-33.671469043263436
30
0
10
129.33926255227726
20
-30.503450334563126
30
0
10
132.5526631686387
20
-26.780284480619734
30
0
10
137.64393161042958
20
-19.801098402080029
30
0
10
140.28216118893286
20
-14.967612157581854
30
0
10
144.31913098831126
20
-5.3608030569604654
30
0
10
145.432546074155
20
-0.91065823518411082
30
0
10
146.11546265841753
20
3.7042742626330716
30
0
0
LINE
5
198
100
AcDbEntity
8
0
100
AcDbLine
10
123.93461092083314
20
-34.810593817273123
30
0
11
124.59063699550373
21
-33.671469043263436
31
0
0
LINE
5
199
100
AcDbEntity
8
0
100
AcDbLine
10
123.93461092083315
20
-74.910593817273124
30
0
11
123.93461092083314
21
-34.810593817273123
31
0
0
ARC
5
200
100
AcDbEntity
8
0
100
AcDbCircle
10
142.93461092083319
20
-74.91059381727311
30
0
40
19.000000000000039
210
0
220
0
230
1
100
AcDbArc
50
180
51
269.99999999999989
0
LINE
5
201
100
AcDbEntity
8
0
100
AcDbLine
10
142.93461092083317
20
-93.910593817273153
30
0
11
186.63461367754797
21
-93.910593817273153
31
-2.6463025921955548e-16
0
LINE
5
202
100
AcDbEntity
8
0
100
AcDbLine
10
186.63461367754797
20
-93.910593817273153
30
-2.6463025921955548e-16
11
186.63461367754795
21
-90.510595009366085
31
-5.8416326787645196e-17
0
ARC
5
203
100
AcDbEntity
8
0
100
AcDbCircle
10
187.63461367754797
20
-90.510595009366085
30
0
40
1.0000000000000142
210
1.0894704990131558e-33
220
-1.0894704990131402e-33
230
1
100
AcDbArc
50
90
51
180
0
LINE
5
204
100
AcDbEntity
8
0
100
AcDbLine
10
187.63461367754797
20
-89.510595009366071
30
1.0894704990131556e-33
11
196.33461092083311
21
-89.510595009366085
31
-5.2683807333312056e-17
0
ARC
5
205
100
AcDbEntity
8
0
100
AcDbCircle
10
196.33461092083311
20
-90.510595009366085
30
0
40
0.99999999999997868
210
-1.08947049901316e-33
220
1.0894704990131753e-33
230
1
100
AcDbArc
50
0
51
90
0
LINE
5
206
100
AcDbEntity
8
0
100
AcDbLine
10
197.33461092083317
20
-227.91059381727308
30
0
11
197.33461092083309
21
-90.510595009366085
31
1.0894704990131368e-33
0
LINE
5
207
100
AcDbEntity
8
0
100
AcDbLine
10
174.63461092083318
20
-227.91059381727308
30
0
11
197.33461092083317
21
-227.91059381727308
31
0
0
LINE
5
208
100
AcDbEntity
8
0
100
AcDbLine
10
174.63461092083318
20
-329.61059381727318
30
0
11
174.63461092083318
21
-227.91059381727308
31
0
0
LINE
5
209
100
AcDbEntity
8
0
100
AcDbLine
10
174.63461092083318
20
-329.61059381727318
30
0
11
36.5581108700394
21
-329.61059381727318
31
8.3613770470428704e-16
0
ARC
5
210
100
AcDbEntity
8
0
100
AcDbCircle
10
36.558110870039513
20
-335.91059381727325
30
0
40
6.3000000000000966
210
2.3388746070040339e-30
220
-1.3272027058798003e-16
230
1
100
AcDbArc
50
90.000000000001052
51
149.53229226802736
0
ARC
5
211
100
AcDbEntity
8
0
100
AcDbCircle
10
25.611789411864876
20
-329.47102500140477
30
0
40
6.3999999999999471
210
7.689888829716414e-34
220
-1.335120981149632e-33
230
1
100
AcDbArc
50
270.34896319167547
51
329.53229226802881
0
LINE
5
212
100
AcDbEntity
8
0
100
AcDbLine
10
25.650768733518184
20
-335.87090629815413
30
-8.574590461174403e-33
11
19.164610920833184
21
-335.91041109831394
31
0
0
CIRCLE
5
213
100
AcDbEntity
8
0
100
AcDbCircle
10
1.6346109208331758
20
-129.01059556070905
30
0
40
4
210
0
220
0
230
1
0
CIRCLE
5
214
100
AcDbEntity
8
0
100
AcDbCircle
10
-73.465389079166869
20
220.18940618272694
30
0
40
4.0000000000000036
210
0
220
0
230
1
0
CIRCLE
5
215
100
AcDbEntity
8
0
100
AcDbCircle
10
76.73461092083312
20
220.18940618272694
30
0
40
4.0000000000000036
210
0
220
0
230
1
0
CIRCLE
5
216
100
AcDbEntity
8
0
100
AcDbCircle
10
-72.533541569244548
20
256.7503923715372
30
0
40
2.9999999999999982
210
0
220
0
230
1
0
CIRCLE
5
217
100
AcDbEntity
8
0
100
AcDbCircle
10
60.660199819949455
20
266.48192708573794
30
0
40
2.9999999999999982
210
0
220
0
230
1
0
CIRCLE
5
218
100
AcDbEntity
8
0
100
AcDbCircle
10
-57.390977978283303
20
266.48192708574493
30
0
40
2.9999999999999982
210
0
220
0
230
1
0
CIRCLE
5
219
100
AcDbEntity
8
0
100
AcDbCircle
10
75.8027634109107
20
256.75039237153715
30
0
40
2.9999999999999982
210
0
220
0
230
1
0
ENDSEC
0
SECTION
2
OBJECTS
0
DICTIONARY
5
C
100
AcDbDictionary
3
ACAD_GROUP
350
D
3
ACAD_MLINESTYLE
350
17
0
DICTIONARY
5
D
100
AcDbDictionary
0
DICTIONARY
5
1A
330
C
100
AcDbDictionary
0
DICTIONARY
5
17
100
AcDbDictionary
0
ENDSEC
0
EOF
