0
SECTION
2
HEADER
9
$INSUNITS
70
4
9
$ACADVER
1
AC1014
9
$HANDSEED
5
FFFF
0
ENDSEC
0
SECTION
2
TABLES
0
TABLE
2
VPORT
5
8
100
AcDbSymbolTable
0
ENDTAB
0
TABLE
2
LTYPE
5
5
100
AcDbSymbolTable
0
LTYPE
5
14
100
AcDbSymbolTableRecord
100
AcDbLinetypeTableRecord
2
BYBLOCK
70
0
0
LTYPE
5
15
100
AcDbSymbolTableRecord
100
AcDbLinetypeTableRecord
2
BYLAYER
70
0
0
ENDTAB
0
TABLE
2
LAYER
5
2
100
AcDbSymbolTable
70
2
0
LAYER
5
50
100
AcDbSymbolTableRecord
100
AcDbLayerTableRecord
2
0
70
0
6
CONTINUOUS
0
ENDTAB
0
TABLE
2
STYLE
5
3
100
AcDbSymbolTable
70
1
0
STYLE
5
11
100
AcDbSymbolTableRecord
100
AcDbTextStyleTableRecord
2
STANDARD
70
0
0
ENDTAB
0
TABLE
2
VIEW
5
6
100
AcDbSymbolTable
70
0
0
ENDTAB
0
TABLE
2
UCS
5
7
100
AcDbSymbolTable
70
0
0
ENDTAB
0
TABLE
2
APPID
5
9
100
AcDbSymbolTable
70
2
0
APPID
5
12
100
AcDbSymbolTableRecord
100
AcDbRegAppTableRecord
2
ACAD
70
0
0
ENDTAB
0
TABLE
2
DIMSTYLE
5
A
100
AcDbSymbolTable
70
1
0
ENDTAB
0
TABLE
2
BLOCK_RECORD
5
1
100
AcDbSymbolTable
70
1
0
BLOCK_RECORD
5
1F
100
AcDbSymbolTableRecord
100
AcDbBlockTableRecord
2
*MODEL_SPACE
0
BLOCK_RECORD
5
1B
100
AcDbSymbolTableRecord
100
AcDbBlockTableRecord
2
*PAPER_SPACE
0
ENDTAB
0
ENDSEC
0
SECTION
2
BLOCKS
0
BLOCK
5
20
100
AcDbEntity
100
AcDbBlockBegin
2
*MODEL_SPACE
0
ENDBLK
5
21
100
AcDbEntity
100
AcDbBlockEnd
0
BLOCK
5
1C
100
AcDbEntity
100
AcDbBlockBegin
2
*PAPER_SPACE
0
ENDBLK
5
1D
100
AcDbEntity
100
AcDbBlockEnd
0
ENDSEC
0
SECTION
2
ENTITIES
0
CIRCLE
5
100
100
AcDbEntity
8
0
100
AcDbCircle
10
144.29911977861335
20
-294.69999999999959
30
0
40
3.0000000000000067
210
1.7105694144590014e-49
220
6.1629758220391547e-33
230
1
0
CIRCLE
5
101
100
AcDbEntity
8
0
100
AcDbCircle
10
-134.85088022138652
20
-204.85251904433574
30
0
40
3.0000000000000067
210
1.7105694144590014e-49
220
6.1629758220391547e-33
230
1
0
LINE
5
102
100
AcDbEntity
8
0
100
AcDbLine
10
21.688781352848846
20
332.20000000000033
30
0
11
-21.688781352848338
21
332.20000000000033
31
0
0
LINE
5
103
100
AcDbEntity
8
0
100
AcDbLine
10
-21.688781352848338
20
332.20000000000033
30
0
11
-21.688781352848338
21
321.24878774265454
31
-6.1629758220391547e-32
0
LINE
5
104
100
AcDbEntity
8
0
100
AcDbLine
10
-21.688781352848338
20
321.24878774265454
30
-6.1629758220391547e-32
11
-63.309247981487182
21
309.02791609202899
31
0
0
LINE
5
105
100
AcDbEntity
8
0
100
AcDbLine
10
-63.309247981487182
20
309.02791609202899
30
0
11
-99.800775853261257
21
285.57623513158933
31
-1.2325951644078309e-31
0
LINE
5
106
100
AcDbEntity
8
0
100
AcDbLine
10
-99.800775853261257
20
285.57623513158933
30
-1.2325951644078309e-31
11
-128.20703840347176
21
252.79366058023342
31
0
0
LINE
5
107
100
AcDbEntity
8
0
100
AcDbLine
10
-128.20703840347176
20
252.79366058023342
30
0
11
-146.22672917884924
21
213.33604166263422
31
4.9303806576313238e-31
0
LINE
5
108
100
AcDbEntity
8
0
100
AcDbLine
10
-146.22672917884924
20
213.33604166263422
30
4.9303806576313238e-31
11
-152.39999999999975
21
170.40000000000035
31
4.9303806576313238e-31
0
LINE
5
109
100
AcDbEntity
8
0
100
AcDbLine
10
-152.39999999999975
20
170.40000000000035
30
4.9303806576313238e-31
11
-146.49628246099957
21
128.39286697348962
31
2.4651903288156619e-31
0
LINE
5
110
100
AcDbEntity
8
0
100
AcDbLine
10
-146.49628246099957
20
128.39286697348962
30
2.4651903288156619e-31
11
-165.09999999999965
21
-151.59999999999965
31
0
0
LINE
5
111
100
AcDbEntity
8
0
100
AcDbLine
10
-165.09999999999965
20
-151.59999999999965
30
0
11
-165.09999999999965
21
-232.59999999999962
31
0
0
LINE
5
112
100
AcDbEntity
8
0
100
AcDbLine
10
-165.09999999999965
20
-232.59999999999962
30
0
11
-161.99999999999963
21
-232.59999999999962
31
0
0
LINE
5
113
100
AcDbEntity
8
0
100
AcDbLine
10
-81.099999999999653
20
-323.89999999999958
30
0
11
-81.099999999999639
21
-327.10999999999956
31
-1.5407439555097887e-32
0
LINE
5
114
100
AcDbEntity
8
0
100
AcDbLine
10
-81.099999999999639
20
-327.10999999999956
30
-1.5407439555097887e-32
11
17.53000000000025
21
-327.10999999999956
31
0
0
LINE
5
115
100
AcDbEntity
8
0
100
AcDbLine
10
17.53000000000025
20
-327.10999999999956
30
0
11
17.530000000000246
21
-323.89999999999958
31
1.5407439555097887e-32
0
ARC
5
116
100
AcDbEntity
8
0
100
AcDbCircle
10
34.923499949206644
20
-323.89999999999986
30
3.8487811825327617e-46
40
6.3000000000003098
210
-1.3279904426574589e-33
220
7.8123832512906276e-34
230
1
100
AcDbArc
50
90.000000000001563
51
149.53229226802739
0
LINE
5
117
100
AcDbEntity
8
0
100
AcDbLine
10
34.923499949206473
20
-317.59999999999957
30
-4.9218014483131821e-33
11
173.00000000000017
21
-317.59999999999957
31
0
0
LINE
5
118
100
AcDbEntity
8
0
100
AcDbLine
10
173.00000000000017
20
-317.59999999999957
30
0
11
173.00000000000023
21
-215.89999999999952
31
4.9303806576313238e-31
0
LINE
5
119
100
AcDbEntity
8
0
100
AcDbLine
10
173.00000000000023
20
-215.89999999999952
30
4.9303806576313238e-31
11
195.70000000000019
21
-215.89999999999952
31
0
0
LINE
5
120
100
AcDbEntity
8
0
100
AcDbLine
10
195.70000000000019
20
-215.89999999999952
30
0
11
195.70000000000019
21
-81.000001192092583
31
0
0
ARC
5
121
100
AcDbEntity
8
0
100
AcDbCircle
10
194.70000000000013
20
-81.000001192092668
30
0
40
1.0000000000000497
210
0
220
-0
230
1
100
AcDbArc
50
0
51
89.999999999995111
0
LINE
5
122
100
AcDbEntity
8
0
100
AcDbLine
10
194.70000000000022
20
-80.000001192092611
30
0
11
186.00000275671502
21
-80.000001192092597
31
0
0
ARC
5
123
100
AcDbEntity
8
0
100
AcDbCircle
10
186.00000275671505
20
-81.000001192092668
30
-5.3455294201843913e-47
40
1.0000000000000675
210
7.703719777548934e-34
220
-2.6086183570498104e-47
230
1
100
AcDbArc
50
90.000000000001634
51
180
0
LINE
5
124
100
AcDbEntity
8
0
100
AcDbLine
10
185.00000275671499
20
-81.000001192092611
30
7.7037197775487826e-34
11
185.00000275671499
21
-83.899999999999636
31
-1.5407439555097887e-32
0
LINE
5
125
100
AcDbEntity
8
0
100
AcDbLine
10
185.00000275671499
20
-83.899999999999636
30
-1.5407439555097887e-32
11
141.30000000000021
21
-83.899999999999636
31
0
0
ARC
5
126
100
AcDbEntity
8
0
100
AcDbCircle
10
141.30000000000021
20
-64.899999999999594
30
0
40
19.000000000000004
210
0
220
0
230
1
100
AcDbArc
50
180
51
270
0
LINE
5
127
100
AcDbEntity
8
0
100
AcDbLine
10
122.3000000000002
20
-64.899999999999594
30
0
11
122.30000000000017
21
-22.799999999999674
31
2.4651903288156619e-31
0
LINE
5
128
100
AcDbEntity
8
0
100
AcDbLine
10
122.30000000000017
20
-22.799999999999674
30
2.4651903288156619e-31
11
146.20000000000016
21
18.700000000000312
31
2.4651903288156619e-31
0
LINE
5
129
100
AcDbEntity
8
0
100
AcDbLine
10
146.20000000000016
20
18.700000000000312
30
2.4651903288156619e-31
11
146.20000000000016
21
128.47782460206258
31
0
0
LINE
5
130
100
AcDbEntity
8
0
100
AcDbLine
10
146.20000000000016
20
128.47782460206258
30
0
11
152.4000000000002
21
170.40000000000032
31
-2.4651903288156619e-31
0
LINE
5
131
100
AcDbEntity
8
0
100
AcDbLine
10
152.4000000000002
20
170.40000000000032
30
-2.4651903288156619e-31
11
146.22672917884967
21
213.33604166263422
31
1.9721522630525295e-30
0
LINE
5
132
100
AcDbEntity
8
0
100
AcDbLine
10
146.22672917884967
20
213.33604166263422
30
1.9721522630525295e-30
11
128.20703840347215
21
252.79366058023351
31
-2.4651903288156619e-31
0
LINE
5
133
100
AcDbEntity
8
0
100
AcDbLine
10
128.20703840347215
20
252.79366058023351
30
-2.4651903288156619e-31
11
124.6141570864732
21
256.94006665602399
31
0
0
LINE
5
134
100
AcDbEntity
8
0
100
AcDbLine
10
124.6141570864732
20
256.94006665602399
30
0
11
134.7945777778416
21
265.76145140045816
31
0
0
LINE
5
135
100
AcDbEntity
8
0
100
AcDbLine
10
134.7945777778416
20
265.76145140045816
30
0
11
113.97000643838152
21
289.7942878649236
31
0
0
LINE
5
136
100
AcDbEntity
8
0
100
AcDbLine
10
113.97000643838152
20
289.7942878649236
30
0
11
103.78958574701312
21
280.97290312048938
31
0
0
LINE
5
137
100
AcDbEntity
8
0
100
AcDbLine
10
103.78958574701312
20
280.97290312048938
30
0
11
99.800775853261683
21
285.57623513158933
31
0
0
LINE
5
138
100
AcDbEntity
8
0
100
AcDbLine
10
99.800775853261683
20
285.57623513158933
30
0
11
63.309247981487701
21
309.02791609202893
31
0
0
LINE
5
139
100
AcDbEntity
8
0
100
AcDbLine
10
63.309247981487701
20
309.02791609202893
30
0
11
21.688781352848849
21
321.24878774265449
31
3.0814879110195774e-32
0
LINE
5
140
100
AcDbEntity
8
0
100
AcDbLine
10
21.688781352848849
20
321.24878774265449
30
3.0814879110195774e-32
11
21.688781352848846
21
332.20000000000033
31
0
0
CIRCLE
5
141
100
AcDbEntity
8
0
100
AcDbCircle
10
-134.85088022138652
20
-186.85251904433579
30
0
40
3.0000000000000067
210
1.710569414459001e-49
220
6.1629758220391547e-33
230
1
0
CIRCLE
5
142
100
AcDbEntity
8
0
100
AcDbCircle
10
144.29911977861335
20
-276.69999999999959
30
0
40
2.9999999999999889
210
0
220
0
230
1
0
CIRCLE
5
143
100
AcDbEntity
8
0
100
AcDbCircle
10
2.4230617512444041e-13
20
-117.00000174343556
30
0
40
4
210
7.7037197775489434e-34
220
4.2764235361475168e-50
230
1
0
CIRCLE
5
144
100
AcDbEntity
8
0
100
AcDbCircle
10
-75.099999999999739
20
232.20000000000041
30
0
40
4.0000000000000036
210
0
220
0
230
1
0
CIRCLE
5
145
100
AcDbEntity
8
0
100
AcDbCircle
10
75.10000000000025
20
232.20000000000041
30
0
40
4.0000000000000036
210
0
220
0
230
1
0
CIRCLE
5
146
100
AcDbEntity
8
0
100
AcDbCircle
10
-74.168152490077375
20
268.76098618881065
30
0
40
2.9999999999999978
210
-7.7037197775489434e-34
220
-6.1629758220391547e-33
230
1
0
CIRCLE
5
147
100
AcDbEntity
8
0
100
AcDbCircle
10
59.025588899116585
20
278.49252090301144
30
0
40
2.9999999999999978
210
-7.7037197775489434e-34
220
-6.1629758220391547e-33
230
1
0
CIRCLE
5
148
100
AcDbEntity
8
0
100
AcDbCircle
10
-59.025588899116158
20
278.49252090301837
30
0
40
2.9999999999999978
210
-7.7037197775489434e-34
220
-6.1629758220391547e-33
230
1
0
CIRCLE
5
149
100
AcDbEntity
8
0
100
AcDbCircle
10
74.168152490077816
20
268.76098618881059
30
0
40
2.9999999999999978
210
-7.7037197775489434e-34
220
-6.1629758220391547e-33
230
1
0
CIRCLE
5
150
100
AcDbEntity
8
0
100
AcDbCircle
10
74.168152490077816
20
268.76098618881065
30
5.5511151231257827e-16
40
2.9999999999999978
210
7.7037197775489451e-34
220
4.276423536147514e-50
230
1
0
CIRCLE
5
151
100
AcDbEntity
8
0
100
AcDbCircle
10
-59.025588899116158
20
278.49252090301843
30
5.5511151231257827e-16
40
2.9999999999999978
210
7.7037197775489451e-34
220
4.276423536147514e-50
230
1
0
CIRCLE
5
152
100
AcDbEntity
8
0
100
AcDbCircle
10
59.025588899116592
20
278.49252090301144
30
5.5511151231257827e-16
40
2.9999999999999978
210
7.7037197775489451e-34
220
4.276423536147514e-50
230
1
0
CIRCLE
5
153
100
AcDbEntity
8
0
100
AcDbCircle
10
-74.168152490077375
20
268.76098618881076
30
5.5511151231257827e-16
40
2.9999999999999978
210
7.7037197775489451e-34
220
4.276423536147514e-50
230
1
0
CIRCLE
5
154
100
AcDbEntity
8
0
100
AcDbCircle
10
75.100000000000264
20
232.20000000000044
30
5.5511151231257827e-16
40
4.0000000000000027
210
7.7037197775489451e-34
220
4.276423536147514e-50
230
1
0
CIRCLE
5
155
100
AcDbEntity
8
0
100
AcDbCircle
10
-75.099999999999739
20
232.20000000000044
30
5.5511151231257827e-16
40
4.0000000000000027
210
7.7037197775489451e-34
220
4.276423536147514e-50
230
1
0
CIRCLE
5
156
100
AcDbEntity
8
0
100
AcDbCircle
10
2.425837308805967e-13
20
-117.00000174343558
30
5.5511151231257827e-16
40
3.9999999999999991
210
7.7037197775489451e-34
220
4.276423536147514e-50
230
1
0
CIRCLE
5
157
100
AcDbEntity
8
0
100
AcDbCircle
10
144.29911977861337
20
-276.69999999999959
30
5.5511151231257827e-16
40
2.9999999999999889
210
7.7037197775489451e-34
220
4.276423536147514e-50
230
1
0
CIRCLE
5
158
100
AcDbEntity
8
0
100
AcDbCircle
10
-134.85088022138655
20
-186.85251904433579
30
5.5511151231257827e-16
40
3.0000000000000067
210
7.7037197775489451e-34
220
4.276423536147514e-50
230
1
0
LINE
5
159
100
AcDbEntity
8
0
100
AcDbLine
10
-21.68878135284838
20
332.20000000000033
30
1.1102230246251565e-15
11
21.688781352848849
21
332.20000000000033
31
8.4754533723399609e-16
0
LINE
5
160
100
AcDbEntity
8
0
100
AcDbLine
10
21.688781352848849
20
321.24878774265454
30
5.5511151231257827e-16
11
21.688781352848849
21
332.20000000000033
31
8.4754533723399609e-16
0
LINE
5
161
100
AcDbEntity
8
0
100
AcDbLine
10
21.688781352848849
20
321.24878774265454
30
5.5511151231257827e-16
11
63.309247981487673
21
309.02791609202899
31
4.1778667074228403e-16
0
LINE
5
162
100
AcDbEntity
8
0
100
AcDbLine
10
63.309247981487673
20
309.02791609202899
30
4.1778667074228403e-16
11
99.80077585326174
21
285.57623513158933
31
5.0929292517260918e-16
0
LINE
5
163
100
AcDbEntity
8
0
100
AcDbLine
10
103.78958574701315
20
280.97290312048943
30
5.5511151231257827e-16
11
99.80077585326174
21
285.57623513158933
31
5.0929292517260918e-16
0
LINE
5
164
100
AcDbEntity
8
0
100
AcDbLine
10
103.78958574701315
20
280.97290312048943
30
5.5511151231257827e-16
11
113.97000643838153
21
289.79428786492372
31
5.6507562752505452e-16
0
LINE
5
165
100
AcDbEntity
8
0
100
AcDbLine
10
113.97000643838153
20
289.79428786492372
30
5.6507562752505452e-16
11
134.79457777784165
21
265.76145140045821
31
6.3601897687327537e-16
0
LINE
5
166
100
AcDbEntity
8
0
100
AcDbLine
10
134.79457777784165
20
265.76145140045821
30
6.3601897687327537e-16
11
124.61415708647321
21
256.94006665602399
31
5.4514739710009995e-16
0
LINE
5
167
100
AcDbEntity
8
0
100
AcDbLine
10
128.20703840347218
20
252.79366058023354
30
5.5511151231257827e-16
11
124.61415708647321
21
256.94006665602399
31
5.4514739710009995e-16
0
LINE
5
168
100
AcDbEntity
8
0
100
AcDbLine
10
128.20703840347218
20
252.79366058023354
30
5.5511151231257827e-16
11
146.22672917884964
21
213.3360416626343
31
3.88211137244629e-16
0
LINE
5
169
100
AcDbEntity
8
0
100
AcDbLine
10
152.4000000000002
20
170.40000000000035
30
5.5511151231257827e-16
11
146.22672917884964
21
213.3360416626343
31
3.88211137244629e-16
0
LINE
5
170
100
AcDbEntity
8
0
100
AcDbLine
10
146.20000000000016
20
128.47782460206261
30
5.5511151231257827e-16
11
152.4000000000002
21
170.40000000000035
31
5.5511151231257827e-16
0
LINE
5
171
100
AcDbEntity
8
0
100
AcDbLine
10
146.20000000000016
20
18.700000000000319
30
5.5511151231257827e-16
11
146.20000000000016
21
128.47782460206261
31
5.5511151231257827e-16
0
LINE
5
172
100
AcDbEntity
8
0
100
AcDbLine
10
122.30000000000017
20
-22.799999999999656
30
5.5511151231257827e-16
11
146.20000000000016
21
18.700000000000319
31
5.5511151231257827e-16
0
LINE
5
173
100
AcDbEntity
8
0
100
AcDbLine
10
122.30000000000017
20
-64.899999999999608
30
0
11
122.30000000000017
21
-22.799999999999656
31
5.5511151231257827e-16
0
ARC
5
174
100
AcDbEntity
8
0
100
AcDbCircle
10
141.30000000000024
20
-64.899999999999594
30
5.5511151231257827e-16
40
19.000000000000075
210
-2.9216395384872428e-17
220
-3.5146043988781174e-32
230
1
100
AcDbArc
50
180
51
269.99999999999989
0
LINE
5
175
100
AcDbEntity
8
0
100
AcDbLine
10
141.30000000000021
20
-83.899999999999636
30
5.5511151231257817e-16
11
185.00000275671499
21
-83.89999999999965
31
8.4559276540560101e-16
0
LINE
5
176
100
AcDbEntity
8
0
100
AcDbLine
10
185.00000275671499
20
-83.89999999999965
30
8.4559276540560101e-16
11
185.00000275671505
21
-81.000001192092626
31
3.9616303066689513e-16
0
ARC
5
177
100
AcDbEntity
8
0
100
AcDbCircle
10
186.00000275671505
20
-81.000001192092626
30
5.5511151231257827e-16
40
1.0000000000000142
210
0
220
-0
230
1
100
AcDbArc
50
90
51
180
0
LINE
5
178
100
AcDbEntity
8
0
100
AcDbLine
10
186.00000275671505
20
-80.000001192092611
30
5.5511151231257827e-16
11
194.70000000000022
21
-80.000001192092611
31
5.0242770497926625e-16
0
ARC
5
179
100
AcDbEntity
8
0
100
AcDbCircle
10
194.70000000000022
20
-81.000001192092626
30
5.5511151231257827e-16
40
0.99999999999997868
210
0
220
-0
230
1
100
AcDbArc
50
0
51
90
0
LINE
5
180
100
AcDbEntity
8
0
100
AcDbLine
10
195.70000000000022
20
-215.89999999999958
30
5.5511151231257827e-16
11
195.70000000000019
21
-81.000001192092626
31
5.5511151231257827e-16
0
LINE
5
181
100
AcDbEntity
8
0
100
AcDbLine
10
173.00000000000023
20
-215.89999999999958
30
1.1102230246251565e-15
11
195.70000000000022
21
-215.89999999999958
31
5.5511151231257827e-16
0
LINE
5
182
100
AcDbEntity
8
0
100
AcDbLine
10
173.00000000000026
20
-317.59999999999962
30
1.1102230246251565e-15
11
173.00000000000023
21
-215.89999999999958
31
1.1102230246251565e-15
0
LINE
5
183
100
AcDbEntity
8
0
100
AcDbLine
10
173.00000000000026
20
-317.59999999999962
30
1.1102230246251565e-15
11
34.923499949206516
21
-317.59999999999968
31
8.3613770470428724e-16
0
ARC
5
184
100
AcDbEntity
8
0
100
AcDbCircle
10
34.923499949206544
20
-323.89999999999981
30
5.5511151231257827e-16
40
6.3000000000000966
210
2.2087742616893983e-31
220
-4.4607332125667411e-17
230
1
100
AcDbArc
50
90.00000000000027
51
149.53229226802733
0
LINE
5
185
100
AcDbEntity
8
0
100
AcDbLine
10
-81.099999999999739
20
-327.10999999999962
30
5.5511151231257827e-16
11
17.53000000000025
21
-327.10999999999962
31
7.3105111087085492e-16
0
LINE
5
186
100
AcDbEntity
8
0
100
AcDbLine
10
-81.099999999999724
20
-323.89999999999964
30
5.5511151231257827e-16
11
-81.099999999999739
21
-327.10999999999962
31
5.5511151231257827e-16
0
LINE
5
187
100
AcDbEntity
8
0
100
AcDbLine
10
-165.09999999999968
20
-232.59999999999965
30
5.5511151231257827e-16
11
-161.99999999999966
21
-232.59999999999962
31
5.901768844941978e-16
0
LINE
5
188
100
AcDbEntity
8
0
100
AcDbLine
10
-165.09999999999968
20
-232.59999999999965
30
5.5511151231257827e-16
11
-165.09999999999968
21
-151.59999999999965
31
5.5640626401554023e-16
0
LINE
5
189
100
AcDbEntity
8
0
100
AcDbLine
10
-165.09999999999968
20
-151.59999999999965
30
5.5640626401554023e-16
11
-146.49628246099951
21
128.39286697348962
31
6.3921166222244568e-16
0
LINE
5
190
100
AcDbEntity
8
0
100
AcDbLine
10
-146.49628246099951
20
128.39286697348962
30
6.3921166222244568e-16
11
-152.39999999999975
21
170.40000000000035
31
5.0890378493444147e-16
0
LINE
5
191
100
AcDbEntity
8
0
100
AcDbLine
10
-152.39999999999975
20
170.40000000000035
30
5.0890378493444147e-16
11
-146.22672917884915
21
213.33604166263427
31
3.848568925758737e-16
0
LINE
5
192
100
AcDbEntity
8
0
100
AcDbLine
10
-146.22672917884915
20
213.33604166263427
30
3.848568925758737e-16
11
-128.20703840347178
21
252.79366058023351
31
5.0377137753471969e-16
0
LINE
5
193
100
AcDbEntity
8
0
100
AcDbLine
10
-128.20703840347178
20
252.79366058023351
30
5.0377137753471969e-16
11
-99.800775853261271
21
285.57623513158933
31
1.361843980603442e-15
0
LINE
5
194
100
AcDbEntity
8
0
100
AcDbLine
10
-99.800775853261271
20
285.57623513158933
30
1.361843980603442e-15
11
-63.309247981487211
21
309.02791609202905
31
7.14084546737641e-16
0
LINE
5
195
100
AcDbEntity
8
0
100
AcDbLine
10
-63.309247981487211
20
309.02791609202905
30
7.14084546737641e-16
11
-21.68878135284837
21
321.2487877426546
31
7.4347307544120583e-16
0
LINE
5
196
100
AcDbEntity
8
0
100
AcDbLine
10
-21.68878135284837
20
321.2487877426546
30
7.4347307544120583e-16
11
-21.68878135284838
21
332.20000000000033
31
1.1102230246251565e-15
0
CIRCLE
5
197
100
AcDbEntity
8
0
100
AcDbCircle
10
-134.85088022138655
20
-204.85251904433579
30
5.5511151231257827e-16
40
3.0000000000000067
210
7.7037197775489451e-34
220
4.276423536147514e-50
230
1
0
CIRCLE
5
198
100
AcDbEntity
8
0
100
AcDbCircle
10
144.29911977861337
20
-294.69999999999959
30
5.5511151231257827e-16
40
3.0000000000000067
210
7.7037197775489451e-34
220
4.276423536147514e-50
230
1
0
CIRCLE
5
199
100
AcDbEntity
8
0
100
AcDbCircle
10
6.6613381477509392e-14
20
160.00000000000006
30
0
40
73.000000000000028
210
0
220
0
230
1
0
LINE
5
200
100
AcDbEntity
8
0
100
AcDbLine
10
-81.099999999999724
20
-323.89999999999964
30
5.5511151231257827e-16
11
-124.49999999999967
21
-323.89999999999958
31
2.5731374180125699e-16
0
LINE
5
201
100
AcDbEntity
8
0
100
AcDbLine
10
-161.99999999999963
20
-232.59999999999962
30
0
11
-161.99999999999963
21
-286.39999999999958
31
-3.0814879110195774e-32
0
ARC
5
202
100
AcDbEntity
8
0
100
AcDbCircle
10
-124.49999999999963
20
-286.39999999999958
30
2.5731374180125837e-16
40
37.5
210
-6.8616997813668899e-18
220
-2.9655416909807156e-32
230
1
100
AcDbArc
50
180
51
269.99999999999994
0
LINE
5
203
100
AcDbEntity
8
0
100
AcDbLine
10
17.53000000000025
20
-327.10999999999962
30
7.3105111087085492e-16
11
17.530000000000246
21
-323.89999999999958
31
1.5407439555097887e-32
0
LINE
5
204
100
AcDbEntity
8
0
100
AcDbLine
10
17.530000000000246
20
-323.89999999999958
30
1.5407439555097887e-32
11
24.016338091941893
21
-323.86031138032672
31
5.5511151231257827e-16
0
ARC
5
205
100
AcDbEntity
8
0
100
AcDbCircle
10
23.977178491031914
20
-317.46043118413127
30
5.5511151231257827e-16
40
6.3999999999998449
210
0
220
0
230
1
100
AcDbArc
50
270.35057716558362
51
329.53229226802836
0
ENDSEC
0
SECTION
2
OBJECTS
0
DICTIONARY
5
C
100
AcDbDictionary
3
ACAD_GROUP
350
D
3
ACAD_MLINESTYLE
350
17
0
DICTIONARY
5
D
100
AcDbDictionary
0
DICTIONARY
5
1A
330
C
100
AcDbDictionary
0
DICTIONARY
5
17
100
AcDbDictionary
0
ENDSEC
0
EOF
