0
SECTION
2
HEADER
9
$INSUNITS
70
4
9
$ACADVER
1
AC1014
9
$HANDSEED
5
FFFF
0
ENDSEC
0
SECTION
2
TABLES
0
TABLE
2
VPORT
5
8
100
AcDbSymbolTable
0
ENDTAB
0
TABLE
2
LTYPE
5
5
100
AcDbSymbolTable
0
LTYPE
5
14
100
AcDbSymbolTableRecord
100
AcDbLinetypeTableRecord
2
BYBLOCK
70
0
0
LTYPE
5
15
100
AcDbSymbolTableRecord
100
AcDbLinetypeTableRecord
2
BYLAYER
70
0
0
ENDTAB
0
TABLE
2
LAYER
5
2
100
AcDbSymbolTable
70
2
0
LAYER
5
50
100
AcDbSymbolTableRecord
100
AcDbLayerTableRecord
2
0
70
0
6
CONTINUOUS
0
ENDTAB
0
TABLE
2
STYLE
5
3
100
AcDbSymbolTable
70
1
0
STYLE
5
11
100
AcDbSymbolTableRecord
100
AcDbTextStyleTableRecord
2
STANDARD
70
0
0
ENDTAB
0
TABLE
2
VIEW
5
6
100
AcDbSymbolTable
70
0
0
ENDTAB
0
TABLE
2
UCS
5
7
100
AcDbSymbolTable
70
0
0
ENDTAB
0
TABLE
2
APPID
5
9
100
AcDbSymbolTable
70
2
0
APPID
5
12
100
AcDbSymbolTableRecord
100
AcDbRegAppTableRecord
2
ACAD
70
0
0
ENDTAB
0
TABLE
2
DIMSTYLE
5
A
100
AcDbSymbolTable
70
1
0
ENDTAB
0
TABLE
2
BLOCK_RECORD
5
1
100
AcDbSymbolTable
70
1
0
BLOCK_RECORD
5
1F
100
AcDbSymbolTableRecord
100
AcDbBlockTableRecord
2
*MODEL_SPACE
0
BLOCK_RECORD
5
1B
100
AcDbSymbolTableRecord
100
AcDbBlockTableRecord
2
*PAPER_SPACE
0
ENDTAB
0
ENDSEC
0
SECTION
2
BLOCKS
0
BLOCK
5
20
100
AcDbEntity
100
AcDbBlockBegin
2
*MODEL_SPACE
0
ENDBLK
5
21
100
AcDbEntity
100
AcDbBlockEnd
0
BLOCK
5
1C
100
AcDbEntity
100
AcDbBlockBegin
2
*PAPER_SPACE
0
ENDBLK
5
1D
100
AcDbEntity
100
AcDbBlockEnd
0
ENDSEC
0
SECTION
2
ENTITIES
0
CIRCLE
5
100
100
AcDbEntity
8
0
100
AcDbCircle
10
-75.500778717529641
20
256.8503923715362
30
3.944304526105059e-30
40
2.9999999999999982
210
-1.5407439555097885e-33
220
6.1629758220391534e-33
230
1
0
CIRCLE
5
101
100
AcDbEntity
8
0
100
AcDbCircle
10
57.692962671664347
20
266.58192708574398
30
3.944304526105059e-30
40
2.9999999999999982
210
-1.5407439555097885e-33
220
6.1629758220391534e-33
230
1
0
CIRCLE
5
102
100
AcDbEntity
8
0
100
AcDbCircle
10
-60.358215126568396
20
266.58192708573705
30
-3.944304526105059e-30
40
2.9999999999999982
210
-1.5407439555097885e-33
220
6.1629758220391534e-33
230
1
0
CIRCLE
5
103
100
AcDbEntity
8
0
100
AcDbCircle
10
72.835526262625592
20
256.85039237153632
30
3.944304526105059e-30
40
2.9999999999999982
210
-1.5407439555097885e-33
220
6.1629758220391534e-33
230
1
0
CIRCLE
5
104
100
AcDbEntity
8
0
100
AcDbCircle
10
-76.432626227452062
20
220.289406182726
30
3.944304526105059e-30
40
4.0000000000000044
210
-7.7037197775489434e-34
220
6.1629758220391534e-33
230
1
0
CIRCLE
5
105
100
AcDbEntity
8
0
100
AcDbCircle
10
73.767373772547913
20
220.289406182726
30
3.944304526105059e-30
40
4.0000000000000044
210
-7.7037197775489434e-34
220
6.1629758220391534e-33
230
1
0
CIRCLE
5
106
100
AcDbEntity
8
0
100
AcDbCircle
10
-1.3326262274521024
20
-128.91059556071002
30
0
40
3.9999999999999996
210
-7.7037197775489451e-34
220
6.1629758220391547e-33
230
1
0
CIRCLE
5
107
100
AcDbEntity
8
0
100
AcDbCircle
10
-168.6317460060653
20
-178.86059381727424
30
3.944304526105059e-30
40
2.9999999999999893
210
-1.5407439555097887e-33
220
1.2325951644078307e-32
230
1
0
CIRCLE
5
108
100
AcDbEntity
8
0
100
AcDbCircle
10
133.51825399393471
20
-198.76311286161024
30
3.944304526105059e-30
40
3.0000000000000071
210
0
220
-0
230
1
0
LWPOLYLINE
5
109
100
AcDbEntity
8
0
100
AcDbPolyline
90
47
70
1
43
0.0
10
-23.021407580300675
20
320.28940618272594
10
20.356155125396551
20
320.28940618272594
10
20.356155125396551
20
309.33819392538015
10
61.976621754035364
20
297.11732227475471
10
98.468149625809431
20
273.66564131431494
10
126.87441217601999
20
240.883066762959
10
144.89410295139737
20
201.42544784535986
10
151.06737377254797
20
158.48940618272593
10
145.16365623354773
20
116.48227315621523
10
163.76737377254787
20
-163.51059381727418
10
163.76737377254787
20
-244.51059381727416
10
160.66737377254785
20
-244.51059381727416
10
160.66737377254785
20
-294.51059381727407
42
-0.0085447300547197153
10
160.64325399393476
20
-295.9218740692869
10
160.64325399393476
20
-297.71059381727406
42
-0.41421356237309653
10
122.54325399393477
20
-335.81059381727403
10
79.76737377254787
20
-335.81059381727408
10
79.76737377254787
20
-339.02059381727406
10
-18.862626227452097
20
-339.02059381727406
10
-18.862626227452097
20
-335.81059381727408
10
-18.832626227452096
20
-335.81059381727408
10
-25.348784040137087
20
-335.77090629815507
42
-0.26413357978837826
10
-30.826061201343357
20
-332.61616204247321
42
0.26576310485442933
10
-36.256126176658313
20
-329.51059381727418
10
-174.33262622745207
20
-329.51059381727407
10
-174.33262622745207
20
-227.81059381727403
10
-197.03262622745203
20
-227.81059381727403
10
-197.03262622745203
20
-92.910595009367043
42
-0.41421356237307422
10
-196.03262622745203
20
-91.910595009367029
10
-187.33262898416686
20
-91.910595009367029
42
-0.41421356237307422
10
-186.33262898416686
20
-92.910595009367043
10
-186.33262898416686
20
-95.810593817274068
10
-142.63262622745208
20
-95.810593817274025
42
0.41421356237309515
10
-123.63262622745205
20
-76.810593817274011
10
-123.63262622745208
20
-34.710593817274059
10
-147.53262622745203
20
6.7894061827259122
10
-147.532626227452
20
116.56723078478819
10
-153.73262622745207
20
158.48940618272593
10
-147.55935540630151
20
201.42544784535988
10
-129.53966463092405
20
240.88306676295912
10
-125.94678331392504
20
245.02947283874963
10
-136.12720400529349
20
253.8508575831838
10
-115.3026326658334
20
277.88369404764927
10
-105.122211974465
20
269.06230930321505
10
-101.13340208071355
20
273.66564131431494
10
-64.641874208939498
20
297.11732227475454
10
-23.021407580300675
20
309.3381939253801
0
CIRCLE
5
110
100
AcDbEntity
8
0
100
AcDbCircle
10
133.51825399393471
20
-216.76311286161024
30
3.944304526105059e-30
40
3.0000000000000071
210
0
220
0
230
1
0
CIRCLE
5
111
100
AcDbEntity
8
0
100
AcDbCircle
10
-168.6317460060653
20
-196.86059381727429
30
0
40
3.0000000000000071
210
0
220
0
230
1
0
CIRCLE
5
112
100
AcDbEntity
8
0
100
AcDbCircle
10
-75.500778717529613
20
256.850392371537
30
0
40
2.9999999999999982
210
0
220
0
230
1
0
CIRCLE
5
113
100
AcDbEntity
8
0
100
AcDbCircle
10
57.69296267166439
20
266.58192708574478
30
0
40
2.9999999999999982
210
0
220
0
230
1
0
CIRCLE
5
114
100
AcDbEntity
8
0
100
AcDbCircle
10
-60.358215126568375
20
266.58192708573785
30
0
40
2.9999999999999982
210
0
220
0
230
1
0
CIRCLE
5
115
100
AcDbEntity
8
0
100
AcDbCircle
10
72.835526262625635
20
256.85039237153711
30
0
40
2.9999999999999982
210
0
220
0
230
1
0
CIRCLE
5
116
100
AcDbEntity
8
0
100
AcDbCircle
10
-76.432626227452033
20
220.28940618272682
30
0
40
4.0000000000000036
210
0
220
0
230
1
0
CIRCLE
5
117
100
AcDbEntity
8
0
100
AcDbCircle
10
73.767373772547955
20
220.28940618272682
30
0
40
4.0000000000000036
210
0
220
0
230
1
0
CIRCLE
5
118
100
AcDbEntity
8
0
100
AcDbCircle
10
-1.3326262274520504
20
-128.91059556070917
30
0
40
4
210
0
220
0
230
1
0
CIRCLE
5
119
100
AcDbEntity
8
0
100
AcDbCircle
10
-168.6317460060653
20
-178.86059381727341
30
0
40
2.9999999999999893
210
0
220
0
230
1
0
CIRCLE
5
120
100
AcDbEntity
8
0
100
AcDbCircle
10
133.51825399393479
20
-198.76311286160941
30
0
40
3.0000000000000071
210
0
220
0
230
1
0
LWPOLYLINE
5
121
100
AcDbEntity
8
0
100
AcDbPolyline
90
47
70
1
43
0.0
10
79.767373772547927
20
-339.02059381727321
10
-18.862626227452068
20
-339.02059381727321
10
-18.862626227452036
20
-335.81059381727323
10
-18.832626227452035
20
-335.81059381727323
10
-25.34878404013703
20
-335.77090629815416
42
-0.26413357978836521
10
-30.826061201343293
20
-332.61616204247241
42
0.2657631048544325
10
-36.256126176658285
20
-329.51059381727316
10
-174.33262622745204
20
-329.51059381727327
10
-174.33262622745204
20
-227.8105938172732
10
-197.03262622745203
20
-227.81059381727323
10
-197.03262622745203
20
-92.910595009366233
42
-0.41421356237309503
10
-196.03262622745203
20
-91.910595009366205
10
-187.33262898416686
20
-91.910595009366205
42
-0.41421356237309503
10
-186.33262898416686
20
-92.910595009366233
10
-186.33262898416683
20
-95.810593817273258
10
-142.63262622745205
20
-95.810593817273229
42
0.41421356237309476
10
-123.63262622745202
20
-76.810593817273201
10
-123.63262622745202
20
-34.710593817273264
10
-147.532626227452
20
6.7894061827267294
10
-147.532626227452
20
116.56723078478902
10
-153.73262622745204
20
158.48940618272675
10
-147.55935540630151
20
201.42544784536068
10
-129.53966463092402
20
240.88306676295988
10
-125.94678331392502
20
245.02947283875042
10
-136.12720400529344
20
253.85085758318456
10
-115.30263266583336
20
277.88369404765001
10
-105.12221197446499
20
269.06230930321578
10
-101.13340208071355
20
273.66564131431568
10
-64.641874208939484
20
297.11732227475534
10
-23.021407580300654
20
309.33819392538095
10
-23.021407580300654
20
320.28940618272679
10
20.356155125396583
20
320.28940618272679
10
20.356155125396576
20
309.33819392538101
10
61.976621754035421
20
297.11732227475545
10
98.468149625809488
20
273.66564131431568
10
126.87441217602003
20
240.88306676295986
10
144.89410295139743
20
201.42544784536062
10
151.067373772548
20
158.48940618272675
10
145.16365623354778
20
116.482273156216
10
163.76737377254798
20
-163.51059381727325
10
163.76737377254798
20
-244.5105938172733
10
160.66737377254796
20
-244.5105938172733
10
160.66737377254796
20
-294.5105938172731
42
-0.0085447300546694187
10
160.64325399393488
20
-295.92187406928599
10
160.64325399393476
20
-297.71059381727321
42
-0.41421356237309515
10
122.54325399393483
20
-335.81059381727312
10
79.767373772547927
20
-335.81059381727323
0
CIRCLE
5
122
100
AcDbEntity
8
0
100
AcDbCircle
10
133.51825399393479
20
-216.76311286160941
30
0
40
3.0000000000000071
210
-0
220
0
230
1
0
CIRCLE
5
123
100
AcDbEntity
8
0
100
AcDbCircle
10
-168.6317460060653
20
-196.86059381727347
30
0
40
3.0000000000000071
210
-0
220
0
230
1
0
ENDSEC
0
SECTION
2
OBJECTS
0
DICTIONARY
5
C
100
AcDbDictionary
3
ACAD_GROUP
350
D
3
ACAD_MLINESTYLE
350
17
0
DICTIONARY
5
D
100
AcDbDictionary
0
DICTIONARY
5
1A
330
C
100
AcDbDictionary
0
DICTIONARY
5
17
100
AcDbDictionary
0
ENDSEC
0
EOF
