0
SECTION
2
HEADER
9
$INSUNITS
70
4
9
$ACADVER
1
AC1014
9
$HANDSEED
5
FFFF
0
ENDSEC
0
SECTION
2
TABLES
0
TABLE
2
VPORT
5
8
100
AcDbSymbolTable
0
ENDTAB
0
TABLE
2
LTYPE
5
5
100
AcDbSymbolTable
0
LTYPE
5
14
100
AcDbSymbolTableRecord
100
AcDbLinetypeTableRecord
2
BYBLOCK
70
0
0
LTYPE
5
15
100
AcDbSymbolTableRecord
100
AcDbLinetypeTableRecord
2
BYLAYER
70
0
0
ENDTAB
0
TABLE
2
LAYER
5
2
100
AcDbSymbolTable
70
2
0
LAYER
5
50
100
AcDbSymbolTableRecord
100
AcDbLayerTableRecord
2
0
70
0
6
CONTINUOUS
0
ENDTAB
0
TABLE
2
STYLE
5
3
100
AcDbSymbolTable
70
1
0
STYLE
5
11
100
AcDbSymbolTableRecord
100
AcDbTextStyleTableRecord
2
STANDARD
70
0
0
ENDTAB
0
TABLE
2
VIEW
5
6
100
AcDbSymbolTable
70
0
0
ENDTAB
0
TABLE
2
UCS
5
7
100
AcDbSymbolTable
70
0
0
ENDTAB
0
TABLE
2
APPID
5
9
100
AcDbSymbolTable
70
2
0
APPID
5
12
100
AcDbSymbolTableRecord
100
AcDbRegAppTableRecord
2
ACAD
70
0
0
ENDTAB
0
TABLE
2
DIMSTYLE
5
A
100
AcDbSymbolTable
70
1
0
ENDTAB
0
TABLE
2
BLOCK_RECORD
5
1
100
AcDbSymbolTable
70
1
0
BLOCK_RECORD
5
1F
100
AcDbSymbolTableRecord
100
AcDbBlockTableRecord
2
*MODEL_SPACE
0
BLOCK_RECORD
5
1B
100
AcDbSymbolTableRecord
100
AcDbBlockTableRecord
2
*PAPER_SPACE
0
ENDTAB
0
ENDSEC
0
SECTION
2
BLOCKS
0
BLOCK
5
20
100
AcDbEntity
100
AcDbBlockBegin
2
*MODEL_SPACE
0
ENDBLK
5
21
100
AcDbEntity
100
AcDbBlockEnd
0
BLOCK
5
1C
100
AcDbEntity
100
AcDbBlockBegin
2
*PAPER_SPACE
0
ENDBLK
5
1D
100
AcDbEntity
100
AcDbBlockEnd
0
ENDSEC
0
SECTION
2
ENTITIES
0
LWPOLYLINE
5
100
100
AcDbEntity
8
0
100
AcDbPolyline
90
44
70
1
43
0.0
10
21.688781352848856
20
-449.20000348687154
10
-21.688781352848324
20
-449.20000348687154
10
-21.688781352848324
20
-438.24879122952558
10
-63.309247981487189
20
-426.02791957890008
10
-99.800775853261229
20
-402.57623861846042
10
-103.78958574701264
20
-397.97290660736053
10
-113.97000643838101
20
-406.79429135179487
10
-134.79457777784114
20
-382.76145488732931
10
-124.61415708647269
20
-373.94007014289514
10
-128.20703840347167
20
-369.79366406710471
10
-146.22672917884913
20
-330.33604514950554
10
-152.39999999999972
20
-287.40000348687153
10
-146.19999999999968
20
-245.47782808893373
10
-146.1999999999997
20
-135.70000348687148
10
-122.29999999999968
20
-94.200003486871481
10
-122.29999999999968
20
-52.100003486871543
42
0.41421356237309476
10
-141.29999999999973
20
-33.100003486871486
10
-185.00000275671448
20
-33.100003486871508
10
-185.00000275671448
20
-36.000002294778483
42
-0.41421356237309503
10
-186.00000275671454
20
-37.000002294778568
10
-194.69999999999976
20
-37.000002294778525
42
-0.4142135623730534
10
-195.69999999999968
20
-36.000002294778483
10
-195.6999999999997
20
98.8999965131284
10
-172.9999999999998
20
98.8999965131284
10
-172.99999999999969
20
200.59999651312842
10
-34.923499949206033
20
200.5999965131285
42
0.26576310485443372
10
-29.493434973890995
20
203.70556473832761
42
-0.2641260461964543
10
-24.016338091941446
20
206.86030789345557
10
-17.529999999999795
20
206.89999651312854
10
-17.529999999999806
20
210.10999651312852
10
81.100000000000108
20
210.10999651312852
10
81.100000000000108
20
206.89999651312854
10
124.50000000000011
20
206.89999651312854
42
-0.41421356237309476
10
162.00000000000011
20
169.39999651312854
10
162.00000000000011
20
115.59999651312849
10
165.10000000000008
20
115.59999651312849
10
165.10000000000008
20
34.599996513128488
10
146.49628246100008
20
-245.39287046036071
10
152.40000000000026
20
-287.40000348687147
10
146.22672917884978
20
-330.33604514950537
10
128.2070384034723
20
-369.79366406710454
10
99.800775853261769
20
-402.57623861846042
10
63.309247981487701
20
-426.02791957890008
10
21.688781352848856
20
-438.24879122952558
0
CIRCLE
5
101
100
AcDbEntity
8
0
100
AcDbCircle
10
134.850880221387
20
87.852515557464571
30
0
40
3.0000000000000071
210
0
220
0
230
1
0
CIRCLE
5
102
100
AcDbEntity
8
0
100
AcDbCircle
10
74.168152490077887
20
-385.76098967568203
30
5.5511151231257827e-16
40
2.9999999999999978
210
0
220
0
230
1
0
CIRCLE
5
103
100
AcDbEntity
8
0
100
AcDbCircle
10
59.02558889911667
20
-395.49252438988958
30
0
40
2.9999999999999978
210
0
220
0
230
1
0
ARC
5
104
100
AcDbEntity
8
0
100
AcDbCircle
10
-141.2999999999997
20
-52.100003486871543
30
0
40
19.000000000000021
210
-2.9216395384872508e-17
220
-3.5779765090707621e-33
230
1
100
AcDbArc
50
0
51
90.000000000000099
0
CIRCLE
5
105
100
AcDbEntity
8
0
100
AcDbCircle
10
-144.29911977861292
20
177.69999651312844
30
0
40
3.0000000000000071
210
0
220
0
230
1
0
CIRCLE
5
106
100
AcDbEntity
8
0
100
AcDbCircle
10
75.10000000000025
20
-349.20000348687154
30
0
40
4.0000000000000044
210
0
220
0
230
1
0
LINE
5
107
100
AcDbEntity
8
0
100
AcDbLine
10
-124.61415708647269
20
-373.94007014289514
30
5.4514739710009995e-16
11
-134.79457777784114
21
-382.76145488732931
31
6.3601897687327537e-16
0
LINE
5
108
100
AcDbEntity
8
0
100
AcDbLine
10
-128.20703840347167
20
-369.79366406710471
30
5.5511151231257827e-16
11
-146.22672917884913
21
-330.33604514950554
31
3.8821113724462905e-16
0
CIRCLE
5
109
100
AcDbEntity
8
0
100
AcDbCircle
10
-74.168152490077304
20
-385.76098967568169
30
0
40
2.9999999999999978
210
0
220
0
230
1
0
LINE
5
110
100
AcDbEntity
8
0
100
AcDbLine
10
-128.20703840347167
20
-369.79366406710471
30
5.5511151231257827e-16
11
-124.61415708647269
21
-373.94007014289514
31
5.4514739710009995e-16
0
CIRCLE
5
111
100
AcDbEntity
8
0
100
AcDbCircle
10
-59.025588899116073
20
-395.49252438988265
30
0
40
2.9999999999999978
210
0
220
0
230
1
0
CIRCLE
5
112
100
AcDbEntity
8
0
100
AcDbCircle
10
134.850880221387
20
69.852515557464599
30
0
40
3.0000000000000071
210
0
220
0
230
1
0
CIRCLE
5
113
100
AcDbEntity
8
0
100
AcDbCircle
10
-75.099999999999753
20
-349.20000348687154
30
5.5511151231257827e-16
40
4.0000000000000027
210
0
220
0
230
1
0
CIRCLE
5
114
100
AcDbEntity
8
0
100
AcDbCircle
10
-59.025588899116087
20
-395.49252438988265
30
5.5511151231257827e-16
40
2.9999999999999978
210
0
220
0
230
1
0
LINE
5
115
100
AcDbEntity
8
0
100
AcDbLine
10
-21.688781352848324
20
-438.24879122952558
30
3.0814879110195768e-32
11
-63.309247981487189
21
-426.02791957890008
31
0
0
CIRCLE
5
116
100
AcDbEntity
8
0
100
AcDbCircle
10
-75.099999999999753
20
-349.20000348687154
30
0
40
4.0000000000000044
210
0
220
0
230
1
0
LINE
5
117
100
AcDbEntity
8
0
100
AcDbLine
10
-134.79457777784114
20
-382.76145488732931
30
6.3601897687327537e-16
11
-113.97000643838101
21
-406.79429135179487
31
5.6507562752505442e-16
0
CIRCLE
5
118
100
AcDbEntity
8
0
100
AcDbCircle
10
2.2770025181826009e-13
20
-1.7434355648049404e-06
30
5.5511151231257827e-16
40
3.9999999999999991
210
0
220
0
230
1
0
CIRCLE
5
119
100
AcDbEntity
8
0
100
AcDbCircle
10
2.2797780757441638e-13
20
-1.7434355648049404e-06
30
0
40
4
210
0
220
0
230
1
0
LINE
5
120
100
AcDbEntity
8
0
100
AcDbLine
10
-21.688781352848324
20
-438.24879122952558
30
3.0814879110195768e-32
11
-21.688781352848324
21
-449.20000348687154
31
0
0
LINE
5
121
100
AcDbEntity
8
0
100
AcDbLine
10
-122.29999999999968
20
-52.100003486871543
30
5.5511151231257827e-16
11
-122.29999999999968
21
-94.200003486871481
31
5.5511151231257827e-16
0
CIRCLE
5
122
100
AcDbEntity
8
0
100
AcDbCircle
10
134.85088022138706
20
69.852515557464599
30
5.5511151231257827e-16
40
3.0000000000000071
210
0
220
0
230
1
0
LINE
5
123
100
AcDbEntity
8
0
100
AcDbLine
10
21.688781352848856
20
-449.20000348687154
30
0
11
-21.688781352848324
21
-449.20000348687154
31
0
0
CIRCLE
5
124
100
AcDbEntity
8
0
100
AcDbCircle
10
134.85088022138706
20
87.852515557464613
30
5.5511151231257827e-16
40
3.0000000000000071
210
0
220
0
230
1
0
LINE
5
125
100
AcDbEntity
8
0
100
AcDbLine
10
-172.99999999999969
20
200.59999651312842
30
0
11
-172.9999999999998
21
98.8999965131284
31
4.9303806576313229e-31
0
LINE
5
126
100
AcDbEntity
8
0
100
AcDbLine
10
-103.78958574701264
20
-397.97290660736053
30
0
11
-99.800775853261229
21
-402.57623861846042
31
5.0929292517260918e-16
0
LINE
5
127
100
AcDbEntity
8
0
100
AcDbLine
10
-152.39999999999972
20
-287.40000348687153
30
5.5511151231257827e-16
11
-146.22672917884913
21
-330.33604514950554
31
3.8821113724462905e-16
0
CIRCLE
5
128
100
AcDbEntity
8
0
100
AcDbCircle
10
-144.29911977861292
20
177.69999651312844
30
5.5511151231257827e-16
40
3.0000000000000071
210
0
220
0
230
1
0
CIRCLE
5
129
100
AcDbEntity
8
0
100
AcDbCircle
10
75.10000000000025
20
-349.20000348687154
30
5.5511151231257827e-16
40
4.0000000000000027
210
0
220
0
230
1
0
CIRCLE
5
130
100
AcDbEntity
8
0
100
AcDbCircle
10
-144.29911977861292
20
159.69999651312844
30
5.5511151231257827e-16
40
2.9999999999999889
210
0
220
0
230
1
0
LINE
5
131
100
AcDbEntity
8
0
100
AcDbLine
10
-186.00000275671454
20
-37.000002294778568
30
0
11
-194.69999999999976
21
-37.000002294778547
31
0
0
LINE
5
132
100
AcDbEntity
8
0
100
AcDbLine
10
-172.9999999999998
20
98.8999965131284
30
4.9303806576313229e-31
11
-195.6999999999997
21
98.8999965131284
31
0
0
LINE
5
133
100
AcDbEntity
8
0
100
AcDbLine
10
63.309247981487701
20
-426.02791957890008
30
0
11
21.688781352848856
21
-438.24879122952558
31
-6.1629758220391536e-32
0
LINE
5
134
100
AcDbEntity
8
0
100
AcDbLine
10
-185.00000275671448
20
-33.100003486871508
30
8.4559276540560101e-16
11
-185.00000275671448
21
-36.000002294778483
31
-5.3455294201843913e-47
0
LINE
5
135
100
AcDbEntity
8
0
100
AcDbLine
10
21.688781352848856
20
-438.24879122952558
30
-6.1629758220391536e-32
11
21.688781352848856
21
-449.20000348687154
31
0
0
LINE
5
136
100
AcDbEntity
8
0
100
AcDbLine
10
146.22672917884978
20
-330.33604514950537
30
4.9303806576313229e-31
11
128.2070384034723
21
-369.79366406710454
31
0
0
LINE
5
137
100
AcDbEntity
8
0
100
AcDbLine
10
-185.00000275671448
20
-33.100003486871508
30
8.4559276540560101e-16
11
-141.29999999999973
21
-33.100003486871486
31
5.5511151231257827e-16
0
CIRCLE
5
138
100
AcDbEntity
8
0
100
AcDbCircle
10
-144.29911977861292
20
159.69999651312844
30
0
40
2.9999999999999889
210
0
220
0
230
1
0
LINE
5
139
100
AcDbEntity
8
0
100
AcDbLine
10
146.49628246100008
20
-245.39287046036071
30
2.4651903288156615e-31
11
152.40000000000026
21
-287.40000348687147
31
4.9303806576313229e-31
0
LINE
5
140
100
AcDbEntity
8
0
100
AcDbLine
10
-103.78958574701264
20
-397.97290660736053
30
0
11
-113.97000643838101
21
-406.79429135179487
31
5.6507562752505442e-16
0
LINE
5
141
100
AcDbEntity
8
0
100
AcDbLine
10
-172.99999999999969
20
200.59999651312842
30
0
11
-34.923499949206033
21
200.5999965131285
31
-4.9218014483131821e-33
0
LINE
5
142
100
AcDbEntity
8
0
100
AcDbLine
10
81.100000000000108
20
210.10999651312852
30
-1.5407439555097887e-32
11
-17.529999999999802
21
210.10999651312852
31
0
0
LINE
5
143
100
AcDbEntity
8
0
100
AcDbLine
10
128.2070384034723
20
-369.79366406710454
30
0
11
99.800775853261769
21
-402.57623861846042
31
-1.2325951644078307e-31
0
LINE
5
144
100
AcDbEntity
8
0
100
AcDbLine
10
99.800775853261769
20
-402.57623861846042
30
-1.2325951644078307e-31
11
63.309247981487701
21
-426.02791957890008
31
0
0
LINE
5
145
100
AcDbEntity
8
0
100
AcDbLine
10
-99.800775853261229
20
-402.57623861846042
30
5.0929292517260918e-16
11
-63.309247981487189
21
-426.02791957890008
31
0
0
ARC
5
146
100
AcDbEntity
8
0
100
AcDbCircle
10
-186.00000275671454
20
-36.000002294778533
30
5.5511151231257827e-16
40
1.000000000000032
210
6.7981553672342377e-32
220
-5.5511151231256052e-16
230
1
100
AcDbArc
50
-90
51
0
0
LINE
5
147
100
AcDbEntity
8
0
100
AcDbLine
10
-195.6999999999997
20
98.8999965131284
30
0
11
-195.69999999999968
21
-36.000002294778483
31
0
0
LINE
5
148
100
AcDbEntity
8
0
100
AcDbLine
10
152.40000000000026
20
-287.40000348687147
30
4.9303806576313229e-31
11
146.22672917884978
21
-330.33604514950537
31
4.9303806576313229e-31
0
LINE
5
149
100
AcDbEntity
8
0
100
AcDbLine
10
-17.529999999999802
20
210.10999651312852
30
0
11
-17.529999999999795
21
206.89999651312854
31
1.5407439555097887e-32
0
LINE
5
150
100
AcDbEntity
8
0
100
AcDbLine
10
-146.1999999999997
20
-135.70000348687148
30
2.4651903288156615e-31
11
-146.19999999999968
21
-245.47782808893373
31
5.5511151231257827e-16
0
CIRCLE
5
151
100
AcDbEntity
8
0
100
AcDbCircle
10
-74.168152490077304
20
-385.76098967568169
30
5.5511151231257827e-16
40
2.9999999999999978
210
0
220
0
230
1
0
CIRCLE
5
152
100
AcDbEntity
8
0
100
AcDbCircle
10
74.168152490077887
20
-385.76098967568169
30
0
40
2.9999999999999978
210
0
220
0
230
1
0
CIRCLE
5
153
100
AcDbEntity
8
0
100
AcDbCircle
10
59.02558889911667
20
-395.49252438988958
30
5.5511151231257827e-16
40
2.9999999999999978
210
0
220
0
230
1
0
LINE
5
154
100
AcDbEntity
8
0
100
AcDbLine
10
-122.29999999999968
20
-94.200003486871481
30
5.5511151231257827e-16
11
-146.1999999999997
21
-135.70000348687148
31
2.4651903288156615e-31
0
LINE
5
155
100
AcDbEntity
8
0
100
AcDbLine
10
-146.19999999999968
20
-245.47782808893373
30
5.5511151231257827e-16
11
-152.39999999999972
21
-287.40000348687153
31
5.5511151231257827e-16
0
ARC
5
156
100
AcDbEntity
8
0
100
AcDbCircle
10
-34.923499949206104
20
206.89999651312866
30
5.5511151231257827e-16
40
6.3000000000001677
210
1.0666797525321184e-30
220
-8.8112938462311664e-17
230
1
100
AcDbArc
50
270.00000000000068
51
329.53229226802779
0
LINE
5
157
100
AcDbEntity
8
0
100
AcDbLine
10
165.10000000000008
20
115.59999651312849
30
0
11
165.10000000000008
21
34.599996513128502
31
0
0
ARC
5
158
100
AcDbEntity
8
0
100
AcDbCircle
10
-194.69999999999976
20
-36.000002294778533
30
5.5511151231257827e-16
40
0.99999999999990763
210
-5.5511151231262955e-16
220
2.9514302392121055e-29
230
1
100
AcDbArc
50
180
51
270
0
LINE
5
159
100
AcDbEntity
8
0
100
AcDbLine
10
165.10000000000008
20
115.59999651312849
30
0
11
162.00000000000011
21
115.59999651312849
31
0
0
LINE
5
160
100
AcDbEntity
8
0
100
AcDbLine
10
81.100000000000108
20
206.89999651312854
30
0
11
81.100000000000108
21
210.10999651312852
31
-1.5407439555097887e-32
0
LINE
5
161
100
AcDbEntity
8
0
100
AcDbLine
10
165.10000000000008
20
34.599996513128502
30
0
11
146.49628246100008
21
-245.39287046036071
31
2.4651903288156615e-31
0
LINE
5
162
100
AcDbEntity
8
0
100
AcDbLine
10
123.87588022138702
20
206.89999651312837
30
0
11
81.100000000000108
21
206.89999651312854
31
0
0
LWPOLYLINE
5
163
100
AcDbEntity
8
0
100
AcDbPolyline
90
24
70
1
43
0.0
10
46.0375000000002
20
-236.11249999999998
42
0.18763097567466314
10
-46.037499999999696
20
-236.11250000000001
10
-46.037499999999696
20
-213.88750000000002
10
-1.4999999999997371
20
-213.88750000000002
42
0.41421356237310542
10
-2.4999999999997158
20
-212.88749999999999
10
-2.4999999999997158
20
-191.44700558966716
42
0.42305265862695823
10
-1.5004524887396242
20
-190.416926149284
42
0.97768570517580522
10
-1.5004524887396249
20
-323.38306683673932
42
0.42305265862693725
10
-2.4999999999997158
20
-322.3529873963563
10
-2.4999999999997158
20
-300.91249298602344
42
0.41421356237310542
10
-1.4999999999997016
20
-299.91249298602338
10
-46.037499999999696
20
-299.91249298602338
10
-46.037499999999703
20
-277.68749298602347
42
0.18763097567466328
10
46.037500000000264
20
-277.68749298602347
10
46.037500000000264
20
-299.91249298602338
10
1.50000000000027
20
-299.91249298602338
42
0.41421356237310542
10
2.5000000000002842
20
-300.91249298602344
10
2.5000000000002842
20
-322.35298739635641
42
0.42305265862697111
10
1.5004524887345676
20
-323.38306683673966
42
0.97768570517584974
10
1.5004524887401933
20
-190.41692614928405
42
0.42305265862695823
10
2.5000000000002842
20
-191.44700558966716
10
2.5000000000002842
20
-212.88750000000005
42
0.41421356237310542
10
1.5000000000003411
20
-213.88750000000002
10
46.037500000000264
20
-213.88750000000002
0
CIRCLE
5
164
100
AcDbEntity
8
0
100
AcDbCircle
10
33.337500000000304
20
-220.23750000000001
30
0
40
1.5000000000000036
210
0
220
0
230
1
0
CIRCLE
5
165
100
AcDbEntity
8
0
100
AcDbCircle
10
33.337500000000304
20
-293.56249298602341
30
0
40
1.5000000000000036
210
0
220
0
230
1
0
CIRCLE
5
166
100
AcDbEntity
8
0
100
AcDbCircle
10
-33.337499999999736
20
-293.56249298602341
30
0
40
1.5000000000000036
210
0
220
0
230
1
0
CIRCLE
5
167
100
AcDbEntity
8
0
100
AcDbCircle
10
-33.337499999999736
20
-220.23750000000001
30
0
40
1.5000000000000036
210
0
220
0
230
1
0
ENDSEC
0
SECTION
2
OBJECTS
0
DICTIONARY
5
C
100
AcDbDictionary
3
ACAD_GROUP
350
D
3
ACAD_MLINESTYLE
350
17
0
DICTIONARY
5
D
100
AcDbDictionary
0
DICTIONARY
5
1A
330
C
100
AcDbDictionary
0
DICTIONARY
5
17
100
AcDbDictionary
0
ENDSEC
0
EOF
