0
SECTION
2
HEADER
9
$INSUNITS
70
4
9
$ACADVER
1
AC1014
9
$HANDSEED
5
FFFF
0
ENDSEC
0
SECTION
2
TABLES
0
TABLE
2
VPORT
5
8
100
AcDbSymbolTable
0
ENDTAB
0
TABLE
2
LTYPE
5
5
100
AcDbSymbolTable
0
LTYPE
5
14
100
AcDbSymbolTableRecord
100
AcDbLinetypeTableRecord
2
BYBLOCK
70
0
0
LTYPE
5
15
100
AcDbSymbolTableRecord
100
AcDbLinetypeTableRecord
2
BYLAYER
70
0
0
ENDTAB
0
TABLE
2
LAYER
5
2
100
AcDbSymbolTable
70
2
0
LAYER
5
50
100
AcDbSymbolTableRecord
100
AcDbLayerTableRecord
2
0
70
0
6
CONTINUOUS
0
ENDTAB
0
TABLE
2
STYLE
5
3
100
AcDbSymbolTable
70
1
0
STYLE
5
11
100
AcDbSymbolTableRecord
100
AcDbTextStyleTableRecord
2
STANDARD
70
0
0
ENDTAB
0
TABLE
2
VIEW
5
6
100
AcDbSymbolTable
70
0
0
ENDTAB
0
TABLE
2
UCS
5
7
100
AcDbSymbolTable
70
0
0
ENDTAB
0
TABLE
2
APPID
5
9
100
AcDbSymbolTable
70
2
0
APPID
5
12
100
AcDbSymbolTableRecord
100
AcDbRegAppTableRecord
2
ACAD
70
0
0
ENDTAB
0
TABLE
2
DIMSTYLE
5
A
100
AcDbSymbolTable
70
1
0
ENDTAB
0
TABLE
2
BLOCK_RECORD
5
1
100
AcDbSymbolTable
70
1
0
BLOCK_RECORD
5
1F
100
AcDbSymbolTableRecord
100
AcDbBlockTableRecord
2
*MODEL_SPACE
0
BLOCK_RECORD
5
1B
100
AcDbSymbolTableRecord
100
AcDbBlockTableRecord
2
*PAPER_SPACE
0
ENDTAB
0
ENDSEC
0
SECTION
2
BLOCKS
0
BLOCK
5
20
100
AcDbEntity
100
AcDbBlockBegin
2
*MODEL_SPACE
0
ENDBLK
5
21
100
AcDbEntity
100
AcDbBlockEnd
0
BLOCK
5
1C
100
AcDbEntity
100
AcDbBlockBegin
2
*PAPER_SPACE
0
ENDBLK
5
1D
100
AcDbEntity
100
AcDbBlockEnd
0
ENDSEC
0
SECTION
2
ENTITIES
0
CIRCLE
5
100
100
AcDbEntity
8
0
100
AcDbCircle
10
638.7429296165659
20
186.05683826048906
30
0
40
2.5499999999999985
210
0
220
-0
230
1
0
CIRCLE
5
101
100
AcDbEntity
8
0
100
AcDbCircle
10
525.52824943575104
20
194.32864276756567
30
0
40
2.5499999999999985
210
0
220
-0
230
1
0
CIRCLE
5
102
100
AcDbEntity
8
0
100
AcDbCircle
10
625.87175056424883
20
194.32864276755978
30
0
40
2.5499999999999985
210
0
220
-0
230
1
0
CIRCLE
5
103
100
AcDbEntity
8
0
100
AcDbCircle
10
512.65707038343396
20
186.05683826048917
30
0
40
2.5499999999999985
210
0
220
-0
230
1
0
CIRCLE
5
104
100
AcDbEntity
8
0
100
AcDbCircle
10
639.53500000000008
20
154.98000000000042
30
0
40
3.400000000000003
210
-8.5528470722950261e-50
220
2.3738919364399428e-66
230
1
0
CIRCLE
5
105
100
AcDbEntity
8
0
100
AcDbCircle
10
511.86499999999995
20
154.98000000000042
30
0
40
3.400000000000003
210
-8.5528470722950261e-50
220
2.3738919364399428e-66
230
1
0
CIRCLE
5
106
100
AcDbEntity
8
0
100
AcDbCircle
10
575.69999999999993
20
-141.84000148192018
30
0
40
3.4000000000000004
210
8.5528470722950261e-50
220
-2.3738919364399426e-66
230
1
0
CIRCLE
5
107
100
AcDbEntity
8
0
100
AcDbCircle
10
698.35425181182109
20
-277.58499999999958
30
0
40
2.5499999999999905
210
0
220
-0
230
1
0
CIRCLE
5
108
100
AcDbEntity
8
0
100
AcDbCircle
10
461.07675181182111
20
-201.21464118768534
30
0
40
2.550000000000006
210
8.5528470722949995e-50
220
3.0814879110195774e-33
230
1
0
LWPOLYLINE
5
109
100
AcDbEntity
8
0
100
AcDbPolyline
90
47
70
1
43
0.0
10
557.26453585007869
20
239.98000000000042
10
594.13546414992129
20
239.98000000000042
10
594.13546414992129
20
230.67146958125636
10
629.51286078426426
20
220.28372867822466
10
660.53065947527216
20
200.34979986185095
10
663.92114788496087
20
196.43696765241603
10
672.57450547262408
20
203.93514468518515
10
690.27539111116516
20
183.50723369038948
10
681.62203352350184
20
176.00905665762045
10
684.67598264295111
20
172.48461149319851
10
699.99271980202195
20
138.94563541323913
10
705.24000000000001
20
102.45000000000034
10
699.9699999999998
20
66.816150911753283
10
699.9699999999998
20
-26.494999999999671
10
679.65499999999997
20
-61.769999999999655
10
679.65500000000009
20
-97.55499999999958
42
0.41421356237309503
10
695.80500000000006
20
-113.70499999999964
10
732.95000234320753
20
-113.70499999999964
10
732.95000234320764
20
-111.24000101327866
42
-0.41421356237321139
10
733.80000234320755
20
-110.39000101327865
10
741.19499999999994
20
-110.39000101327852
42
-0.41421356237321139
10
742.04499999999996
20
-111.24000101327866
10
742.04499999999996
20
-225.9049999999996
10
722.75
20
-225.9049999999996
10
722.75
20
-312.34999999999962
10
605.3849749568252
20
-312.34999999999962
42
0.26576310485443261
10
600.76941972780742
20
-314.98973299141892
42
-0.26413357978836305
10
596.11373414078219
20
-317.6712656087484
10
590.57499999999993
20
-317.70499999999964
10
590.6004999999999
20
-317.70499999999964
10
590.6004999999999
20
-320.43349999999964
10
506.76499999999999
20
-320.43349999999964
10
506.76499999999999
20
-317.70499999999964
10
470.40550181182113
20
-317.70499999999959
42
-0.41421356237309598
10
438.02050181182108
20
-285.3199999999996
10
438.02050181182108
20
-283.79958821421059
42
-0.0085447300546766369
10
438
20
-282.59999999999962
10
438
20
-240.09999999999965
10
435.36499999999995
20
-240.09999999999965
10
435.36499999999995
20
-171.24999999999969
10
451.17815990815006
20
66.743936927466223
10
446.15999999999991
20
102.45000000000034
10
451.40728019797785
20
138.94563541323913
10
466.72401735704875
20
172.48461149319849
10
490.86934052472765
20
200.34979986185095
10
521.88713921573571
20
220.28372867822472
10
557.26453585007869
20
230.67146958125642
0
CIRCLE
5
110
100
AcDbEntity
8
0
100
AcDbCircle
10
461.07675181182111
20
-216.51464118768536
30
0
40
2.550000000000006
210
8.5528470722950033e-50
220
3.0814879110195774e-33
230
1
0
CIRCLE
5
111
100
AcDbEntity
8
0
100
AcDbCircle
10
698.35425181182109
20
-292.88499999999965
30
0
40
2.550000000000006
210
8.5528470722950033e-50
220
3.0814879110195774e-33
230
1
0
CIRCLE
5
112
100
AcDbEntity
8
0
100
AcDbCircle
10
638.7429296165659
20
186.05683826048906
30
0
40
2.5499999999999985
210
0
220
0
230
1
0
CIRCLE
5
113
100
AcDbEntity
8
0
100
AcDbCircle
10
525.52824943575104
20
194.32864276756567
30
0
40
2.5499999999999985
210
0
220
0
230
1
0
CIRCLE
5
114
100
AcDbEntity
8
0
100
AcDbCircle
10
625.87175056424883
20
194.32864276755978
30
0
40
2.5499999999999985
210
0
220
0
230
1
0
CIRCLE
5
115
100
AcDbEntity
8
0
100
AcDbCircle
10
512.65707038343396
20
186.05683826048917
30
0
40
2.5499999999999985
210
0
220
0
230
1
0
CIRCLE
5
116
100
AcDbEntity
8
0
100
AcDbCircle
10
639.53500000000008
20
154.98000000000042
30
0
40
3.400000000000003
210
0
220
0
230
1
0
CIRCLE
5
117
100
AcDbEntity
8
0
100
AcDbCircle
10
511.86499999999995
20
154.98000000000042
30
0
40
3.400000000000003
210
0
220
0
230
1
0
CIRCLE
5
118
100
AcDbEntity
8
0
100
AcDbCircle
10
575.69999999999993
20
-141.84000148192018
30
0
40
3.4000000000000004
210
0
220
0
230
1
0
CIRCLE
5
119
100
AcDbEntity
8
0
100
AcDbCircle
10
698.35425181182109
20
-277.58499999999958
30
0
40
2.5499999999999905
210
0
220
0
230
1
0
CIRCLE
5
120
100
AcDbEntity
8
0
100
AcDbCircle
10
461.07675181182111
20
-201.21464118768534
30
0
40
2.550000000000006
210
0
220
0
230
1
0
LWPOLYLINE
5
121
100
AcDbEntity
8
0
100
AcDbPolyline
90
47
70
1
43
0.0
10
590.60050000000001
20
-320.43349999999964
10
506.76499999999999
20
-320.43349999999964
10
506.76499999999987
20
-317.70499999999964
10
470.40550181182113
20
-317.70499999999964
42
-0.41421356237309503
10
438.02050181182108
20
-285.3199999999996
10
438.02050181182102
20
-283.79958821421059
42
-0.0085447300546766369
10
437.99999999999989
20
-282.59999999999962
10
438
20
-240.09999999999965
10
435.36499999999995
20
-240.09999999999965
10
435.36499999999995
20
-171.24999999999966
10
451.17815990815018
20
66.743936927466223
10
446.15999999999991
20
102.45000000000034
10
451.40728019797791
20
138.94563541323916
10
466.72401735704864
20
172.48461149319849
10
490.86934052472765
20
200.34979986185095
10
521.8871392157356
20
220.28372867822472
10
557.26453585007869
20
230.67146958125645
10
557.26453585007869
20
239.98000000000033
10
594.13546414992129
20
239.98000000000033
10
594.13546414992129
20
230.67146958125642
10
629.51286078426426
20
220.28372867822466
10
660.53065947527216
20
200.34979986185095
10
663.92114788496087
20
196.43696765241603
10
672.5745054726242
20
203.93514468518509
10
690.27539111116516
20
183.50723369038951
10
681.62203352350184
20
176.00905665762045
10
684.67598264295111
20
172.48461149319851
10
699.99271980202195
20
138.94563541323919
10
705.24000000000001
20
102.45000000000034
10
699.9699999999998
20
66.816150911753283
10
699.9699999999998
20
-26.494999999999671
10
679.65499999999997
20
-61.769999999999641
10
679.65499999999997
20
-97.55499999999958
42
0.41421356237308926
10
695.80500000000006
20
-113.70499999999964
10
732.95000234320764
20
-113.70499999999964
10
732.95000234320753
20
-111.24000101327866
42
-0.41421356237309503
10
733.80000234320755
20
-110.39000101327865
10
741.19499999999994
20
-110.39000101327858
42
-0.41421356237309503
10
742.04499999999996
20
-111.24000101327866
10
742.04499999999996
20
-225.9049999999996
10
722.75
20
-225.9049999999996
10
722.75
20
-312.34999999999962
10
605.3849749568252
20
-312.34999999999962
42
0.26576310485443744
10
600.76941972780742
20
-314.98973299141892
42
-0.26413357978836449
10
596.11373414078219
20
-317.67126560874846
10
590.57499999999993
20
-317.70499999999964
10
590.6004999999999
20
-317.70499999999964
0
CIRCLE
5
122
100
AcDbEntity
8
0
100
AcDbCircle
10
461.07675181182111
20
-216.51464118768536
30
0
40
2.550000000000006
210
0
220
-0
230
1
0
CIRCLE
5
123
100
AcDbEntity
8
0
100
AcDbCircle
10
698.35425181182109
20
-292.88499999999965
30
0
40
2.550000000000006
210
0
220
-0
230
1
0
ENDSEC
0
SECTION
2
OBJECTS
0
DICTIONARY
5
C
100
AcDbDictionary
3
ACAD_GROUP
350
D
3
ACAD_MLINESTYLE
350
17
0
DICTIONARY
5
D
100
AcDbDictionary
0
DICTIONARY
5
1A
330
C
100
AcDbDictionary
0
DICTIONARY
5
17
100
AcDbDictionary
0
ENDSEC
0
EOF
