0
SECTION
2
HEADER
9
$INSUNITS
70
4
9
$ACADVER
1
AC1014
9
$HANDSEED
5
FFFF
0
ENDSEC
0
SECTION
2
TABLES
0
TABLE
2
VPORT
5
8
100
AcDbSymbolTable
0
ENDTAB
0
TABLE
2
LTYPE
5
5
100
AcDbSymbolTable
0
LTYPE
5
14
100
AcDbSymbolTableRecord
100
AcDbLinetypeTableRecord
2
BYBLOCK
70
0
0
LTYPE
5
15
100
AcDbSymbolTableRecord
100
AcDbLinetypeTableRecord
2
BYLAYER
70
0
0
ENDTAB
0
TABLE
2
LAYER
5
2
100
AcDbSymbolTable
70
2
0
LAYER
5
50
100
AcDbSymbolTableRecord
100
AcDbLayerTableRecord
2
0
70
0
6
CONTINUOUS
0
ENDTAB
0
TABLE
2
STYLE
5
3
100
AcDbSymbolTable
70
1
0
STYLE
5
11
100
AcDbSymbolTableRecord
100
AcDbTextStyleTableRecord
2
STANDARD
70
0
0
ENDTAB
0
TABLE
2
VIEW
5
6
100
AcDbSymbolTable
70
0
0
ENDTAB
0
TABLE
2
UCS
5
7
100
AcDbSymbolTable
70
0
0
ENDTAB
0
TABLE
2
APPID
5
9
100
AcDbSymbolTable
70
2
0
APPID
5
12
100
AcDbSymbolTableRecord
100
AcDbRegAppTableRecord
2
ACAD
70
0
0
ENDTAB
0
TABLE
2
DIMSTYLE
5
A
100
AcDbSymbolTable
70
1
0
ENDTAB
0
TABLE
2
BLOCK_RECORD
5
1
100
AcDbSymbolTable
70
1
0
BLOCK_RECORD
5
1F
100
AcDbSymbolTableRecord
100
AcDbBlockTableRecord
2
*MODEL_SPACE
0
BLOCK_RECORD
5
1B
100
AcDbSymbolTableRecord
100
AcDbBlockTableRecord
2
*PAPER_SPACE
0
ENDTAB
0
ENDSEC
0
SECTION
2
BLOCKS
0
BLOCK
5
20
100
AcDbEntity
100
AcDbBlockBegin
2
*MODEL_SPACE
0
ENDBLK
5
21
100
AcDbEntity
100
AcDbBlockEnd
0
BLOCK
5
1C
100
AcDbEntity
100
AcDbBlockBegin
2
*PAPER_SPACE
0
ENDBLK
5
1D
100
AcDbEntity
100
AcDbBlockEnd
0
ENDSEC
0
SECTION
2
ENTITIES
0
CIRCLE
5
100
100
AcDbEntity
8
0
100
AcDbCircle
10
145.66536663148347
20
-404.19989816044284
30
0
40
2.9999999999999716
210
0
220
0
230
1
0
CIRCLE
5
101
100
AcDbEntity
8
0
100
AcDbCircle
10
60.392130808212023
20
151.00260779614914
30
0
40
2.9999999999999982
210
0
220
0
230
1
0
CIRCLE
5
102
100
AcDbEntity
8
0
100
AcDbCircle
10
1.3665419090958075
20
-244.48991485029785
30
0
40
4
210
0
220
0
230
1
0
CIRCLE
5
103
100
AcDbEntity
8
0
100
AcDbCircle
10
-31.970958090904954
20
49.072576392289911
30
0
40
1.5000000000000036
210
0
220
0
230
1
0
CIRCLE
5
104
100
AcDbEntity
8
0
100
AcDbCircle
10
-133.48463336851583
20
-314.35241720477927
30
0
40
3.0000000000000426
210
0
220
0
230
1
0
CIRCLE
5
105
100
AcDbEntity
8
0
100
AcDbCircle
10
-133.48463336851583
20
-332.35241720477921
30
0
40
3.0000000000000426
210
0
220
0
230
1
0
LWPOLYLINE
5
106
100
AcDbEntity
8
0
100
AcDbPolyline
90
25
70
1
43
0.0
10
2.8701122156970178
20
-30.686843284504945
42
-0.021134973782321022
10
2.8665419090950905
20
-30.60241659373343
10
47.404041909095071
20
-30.602416593733395
10
47.404041909095071
20
-8.3774165937334288
42
-0.18763097567466269
10
-44.670958090904861
20
-8.3774165937334288
10
-44.67095809090489
20
-30.602416593733395
10
-0.13345809090498706
20
-30.602416593733395
42
-0.21342176528338555
10
-1.1334580909049352
20
-32.838484571233174
10
-1.1334580909049317
20
-58.148810658976728
42
-0.23022018943894232
10
-0.13383355439728462
20
-60.5744997971792
42
-0.97965385063357391
10
-0.1338335543976274
20
85.394659595735845
42
-0.22663880673137735
10
-1.133458090904935
20
83.008814452705906
10
-1.1334580909049463
20
57.658644369789783
42
-0.21342176528339321
10
-0.13345809090491656
20
55.422576392289962
10
-44.67095809090489
20
55.422576392289997
10
-44.670958090904932
20
33.197576392290109
42
-0.18763097567466291
10
47.404041909095085
20
33.197576392290102
10
47.404041909095049
20
55.422576392289997
10
2.8665419090950426
20
55.422576392289997
42
-0.21342176528338949
10
3.8665419090950648
20
57.658644369789769
10
3.8665419090950603
20
82.973738689619822
42
-0.22979022258374338
10
2.8669173725875643
20
85.394659595735845
42
-0.97965385063357124
10
2.8669173725879182
20
-60.574499797179158
42
-0.23022018943889977
10
3.8665419090950639
20
-58.148810658977006
10
3.8665419090950452
20
-32.755021998803315
42
-0.19887474064989807
0
CIRCLE
5
107
100
AcDbEntity
8
0
100
AcDbCircle
10
-72.801610580981929
20
141.27107308194834
30
0
40
2.9999999999999982
210
0
220
0
230
1
0
CIRCLE
5
108
100
AcDbEntity
8
0
100
AcDbCircle
10
-57.659046990020705
20
151.00260779615607
30
0
40
2.9999999999999982
210
0
220
0
230
1
0
CIRCLE
5
109
100
AcDbEntity
8
0
100
AcDbCircle
10
145.66536663148347
20
-422.19989816044279
30
0
40
3.0000000000000426
210
0
220
0
230
1
0
CIRCLE
5
110
100
AcDbEntity
8
0
100
AcDbCircle
10
76.466541909095696
20
104.71008689313805
30
0
40
4.0000000000000036
210
0
220
0
230
1
0
CIRCLE
5
111
100
AcDbEntity
8
0
100
AcDbCircle
10
75.534694399173262
20
141.27107308194832
30
0
40
2.9999999999999982
210
0
220
0
230
1
0
CIRCLE
5
112
100
AcDbEntity
8
0
100
AcDbCircle
10
-31.970958090904954
20
-24.252416593733415
30
0
40
1.5000000000000036
210
0
220
0
230
1
0
CIRCLE
5
113
100
AcDbEntity
8
0
100
AcDbCircle
10
34.704041909095082
20
-24.252416593733415
30
0
40
1.5000000000000036
210
0
220
0
230
1
0
CIRCLE
5
114
100
AcDbEntity
8
0
100
AcDbCircle
10
-73.73345809090425
20
104.71008689313805
30
0
40
4.0000000000000036
210
0
220
0
230
1
0
CIRCLE
5
115
100
AcDbEntity
8
0
100
AcDbCircle
10
34.704041909095082
20
49.072576392289911
30
0
40
1.5000000000000036
210
0
220
0
230
1
0
LWPOLYLINE
5
116
100
AcDbEntity
8
0
100
AcDbPolyline
90
45
70
1
43
0.0
10
-160.58420639307198
20
-412.10628720687203
42
-0.012211115448535318
10
-160.6334580909041
20
-410.0899131068619
10
-160.63345809090407
20
-360.08991310686207
10
-163.73345809090415
20
-360.08991310686207
10
-163.73345809090415
20
-279.08991310686201
10
-145.12974055190409
20
0.90295386662724297
10
-151.03345809090433
20
42.910086893138057
10
-144.86018726975368
20
85.846128555771912
10
-126.84049649437631
20
125.30374747337113
10
-98.434233944165811
20
158.086322024727
10
-61.942706072391744
20
181.53800298516677
10
-20.32223944375291
20
193.7588746357921
10
-20.32223944375291
20
204.71008689313805
10
23.055323261944292
20
204.71008689313805
10
23.055323261944309
20
193.7588746357921
10
64.675789890583133
20
181.53800298516666
10
101.16731776235717
20
158.086322024727
10
105.15612765610862
20
153.4829900136271
10
115.33654834747702
20
162.30437475806133
10
136.16111968693707
20
138.27153829359594
10
125.98069899556867
20
129.45015354916171
10
129.57358031256763
20
125.3037474733712
10
147.59327108794511
20
85.846128555771912
10
153.76654190909571
20
42.910086893138057
10
147.40247982192315
20
-0.12141747167000005
10
147.40247982192318
20
-90.144956553430958
42
-0.190185494756864
10
123.66654190909574
20
-150.28991310686195
10
123.66654190909577
20
-190.38991310686191
42
0.41421356237309559
10
142.66654190909577
20
-209.38991310686191
10
186.36654466581049
20
-209.38991310686191
10
186.36654466581047
20
-205.98991429895489
42
-0.4142135623730534
10
187.36654466581047
20
-204.98991429895486
10
196.06654190909575
20
-204.98991429895489
42
-0.41421356237307422
10
197.06654190909572
20
-205.98991429895494
10
197.06654190909575
20
-343.38991310686185
10
174.36654190909576
20
-343.38991310686191
10
174.36654190909582
20
-445.0899131068619
10
36.290041858302075
20
-445.08991310686201
42
0.26576310485442722
10
30.859976882987059
20
-448.19548133206115
42
-0.26413357978838137
10
25.382699721780835
20
-451.3502255877429
10
18.896541909095834
20
-451.3502255877429
10
18.896541909095834
20
-454.59991310686189
10
-79.733458090904094
20
-454.59991310686189
10
-79.733458090904094
20
-451.58991310686201
10
-122.50933831229099
20
-451.5899131068619
42
-0.42489296999734039
0
CIRCLE
5
117
100
AcDbEntity
8
0
100
AcDbCircle
10
34.704041909095082
20
49.072576392289911
30
0
40
1.5000000000000036
210
-0
220
0
230
1
0
CIRCLE
5
118
100
AcDbEntity
8
0
100
AcDbCircle
10
-73.73345809090425
20
104.71008689313805
30
0
40
4.0000000000000036
210
-0
220
0
230
1
0
CIRCLE
5
119
100
AcDbEntity
8
0
100
AcDbCircle
10
34.704041909095082
20
-24.252416593733415
30
0
40
1.5000000000000036
210
-0
220
0
230
1
0
CIRCLE
5
120
100
AcDbEntity
8
0
100
AcDbCircle
10
-31.970958090904954
20
-24.252416593733415
30
0
40
1.5000000000000036
210
-0
220
0
230
1
0
CIRCLE
5
121
100
AcDbEntity
8
0
100
AcDbCircle
10
75.534694399173262
20
141.27107308194832
30
0
40
2.9999999999999982
210
-0
220
0
230
1
0
CIRCLE
5
122
100
AcDbEntity
8
0
100
AcDbCircle
10
76.466541909095696
20
104.71008689313805
30
0
40
4.0000000000000036
210
-0
220
0
230
1
0
CIRCLE
5
123
100
AcDbEntity
8
0
100
AcDbCircle
10
145.66536663148347
20
-422.19989816044279
30
0
40
3.0000000000000426
210
-0
220
0
230
1
0
CIRCLE
5
124
100
AcDbEntity
8
0
100
AcDbCircle
10
-57.659046990020705
20
151.00260779615607
30
0
40
2.9999999999999982
210
-0
220
0
230
1
0
CIRCLE
5
125
100
AcDbEntity
8
0
100
AcDbCircle
10
-72.801610580981929
20
141.27107308194834
30
0
40
2.9999999999999982
210
-0
220
0
230
1
0
LWPOLYLINE
5
126
100
AcDbEntity
8
0
100
AcDbPolyline
90
25
70
1
43
0.0
10
3.8665419090950692
20
-32.755021998803294
42
-0.19887474064989899
10
2.8701122156970187
20
-30.686843284504945
42
-0.021134973782323579
10
2.8665419090950905
20
-30.60241659373343
10
47.404041909095056
20
-30.60241659373343
10
47.404041909095099
20
-8.37741659373342
42
-0.18763097567466233
10
-44.670958090904875
20
-8.3774165937334288
10
-44.670958090904911
20
-30.60241659373343
10
-0.13345809090498817
20
-30.60241659373343
42
-0.21342176528338289
10
-1.133458090904935
20
-32.838484571233174
10
-1.1334580909048446
20
-58.148810658976629
42
-0.23022018943894137
10
-0.13383355439747779
20
-60.5744997971792
42
-0.97965385063357258
10
-0.13383355439762962
20
85.394659595735874
42
-0.22663880673137873
10
-1.1334580909049357
20
83.008814452705906
10
-1.1334580909049392
20
57.658644369789769
42
-0.21342176528339252
10
-0.13345809090491656
20
55.422576392289962
10
-44.670958090904904
20
55.422576392289962
10
-44.670958090904961
20
33.197576392290081
42
-0.18763097567466361
10
47.404041909095049
20
33.197576392290067
10
47.404041909095049
20
55.422576392289962
10
2.8665419090950452
20
55.422576392289962
42
-0.21342176528339216
10
3.8665419090950648
20
57.658644369789769
10
3.8665419090951931
20
82.97373868961995
42
-0.22979022258374596
10
2.8669173725877299
20
85.394659595735845
42
-0.97965385063356991
10
2.8669173725879196
20
-60.574499797179158
42
-0.23022018943889999
10
3.8665419090950648
20
-58.148810658977006
0
CIRCLE
5
127
100
AcDbEntity
8
0
100
AcDbCircle
10
-133.48463336851583
20
-332.35241720477921
30
0
40
3.0000000000000426
210
-0
220
0
230
1
0
CIRCLE
5
128
100
AcDbEntity
8
0
100
AcDbCircle
10
-133.48463336851583
20
-314.35241720477927
30
0
40
3.0000000000000426
210
-0
220
0
230
1
0
CIRCLE
5
129
100
AcDbEntity
8
0
100
AcDbCircle
10
-31.970958090904954
20
49.072576392289911
30
0
40
1.5000000000000036
210
-0
220
0
230
1
0
CIRCLE
5
130
100
AcDbEntity
8
0
100
AcDbCircle
10
1.3665419090958075
20
-244.48991485029785
30
0
40
4
210
-0
220
0
230
1
0
CIRCLE
5
131
100
AcDbEntity
8
0
100
AcDbCircle
10
60.392130808212023
20
151.00260779614914
30
0
40
2.9999999999999982
210
-0
220
0
230
1
0
CIRCLE
5
132
100
AcDbEntity
8
0
100
AcDbCircle
10
145.66536663148347
20
-404.19989816044284
30
0
40
2.9999999999999716
210
-0
220
0
230
1
0
LWPOLYLINE
5
133
100
AcDbEntity
8
0
100
AcDbPolyline
90
45
70
1
43
0.0
10
-160.6334580909041
20
-360.08991310686207
10
-160.6334580909041
20
-410.0899131068619
42
0.012211115448535283
10
-160.58420639307201
20
-412.10628720687197
42
0.42489296999734039
10
-122.50933831229099
20
-451.5899131068619
10
-79.73345809090408
20
-451.58991310686201
10
-79.73345809090408
20
-454.59991310686189
10
18.896541909095824
20
-454.59991310686189
10
18.896541909095838
20
-451.3502255877429
10
25.382699721780824
20
-451.3502255877429
42
0.2641335797883832
10
30.859976882987127
20
-448.19548133206115
42
-0.26576310485442961
10
36.290041858302082
20
-445.08991310686201
10
174.36654190909582
20
-445.0899131068619
10
174.36654190909576
20
-343.38991310686191
10
197.06654190909575
20
-343.38991310686185
10
197.06654190909572
20
-205.98991429895494
42
0.41421356237307422
10
196.06654190909575
20
-204.98991429895489
10
187.36654466581047
20
-204.98991429895486
42
0.4142135623730534
10
186.36654466581049
20
-205.98991429895489
10
186.36654466581049
20
-209.38991310686191
10
142.66654190909577
20
-209.38991310686191
42
-0.41421356237309503
10
123.66654190909577
20
-190.38991310686191
10
123.66654190909574
20
-150.28991310686195
42
0.19018549475686408
10
147.40247982192315
20
-90.144956553430958
10
147.40247982192315
20
-0.12141747167003558
10
153.76654190909571
20
42.910086893138057
10
147.59327108794511
20
85.846128555771912
10
129.57358031256763
20
125.3037474733712
10
125.98069899556867
20
129.45015354916171
10
136.16111968693707
20
138.27153829359591
10
115.33654834747702
20
162.30437475806133
10
105.15612765610862
20
153.48299001362707
10
101.16731776235717
20
158.08632202472697
10
64.675789890583133
20
181.53800298516666
10
23.055323261944309
20
193.7588746357921
10
23.055323261944292
20
204.71008689313805
10
-20.322239443752927
20
204.71008689313805
10
-20.322239443752927
20
193.7588746357921
10
-61.942706072391744
20
181.53800298516674
10
-98.434233944165811
20
158.08632202472697
10
-126.84049649437631
20
125.30374747337109
10
-144.86018726975371
20
85.846128555771912
10
-151.03345809090433
20
42.910086893138022
10
-145.12974055190409
20
0.90295386662724297
10
-163.73345809090415
20
-279.08991310686201
10
-163.73345809090415
20
-360.08991310686207
0
ENDSEC
0
SECTION
2
OBJECTS
0
DICTIONARY
5
C
100
AcDbDictionary
3
ACAD_GROUP
350
D
3
ACAD_MLINESTYLE
350
17
0
DICTIONARY
5
D
100
AcDbDictionary
0
DICTIONARY
5
1A
330
C
100
AcDbDictionary
0
DICTIONARY
5
17
100
AcDbDictionary
0
ENDSEC
0
EOF
