0
SECTION
2
HEADER
9
$INSUNITS
70
4
9
$ACADVER
1
AC1014
9
$HANDSEED
5
FFFF
0
ENDSEC
0
SECTION
2
TABLES
0
TABLE
2
VPORT
5
8
100
AcDbSymbolTable
0
ENDTAB
0
TABLE
2
LTYPE
5
5
100
AcDbSymbolTable
0
LTYPE
5
14
100
AcDbSymbolTableRecord
100
AcDbLinetypeTableRecord
2
BYBLOCK
70
0
0
LTYPE
5
15
100
AcDbSymbolTableRecord
100
AcDbLinetypeTableRecord
2
BYLAYER
70
0
0
ENDTAB
0
TABLE
2
LAYER
5
2
100
AcDbSymbolTable
70
2
0
LAYER
5
50
100
AcDbSymbolTableRecord
100
AcDbLayerTableRecord
2
0
70
0
6
CONTINUOUS
0
ENDTAB
0
TABLE
2
STYLE
5
3
100
AcDbSymbolTable
70
1
0
STYLE
5
11
100
AcDbSymbolTableRecord
100
AcDbTextStyleTableRecord
2
STANDARD
70
0
0
ENDTAB
0
TABLE
2
VIEW
5
6
100
AcDbSymbolTable
70
0
0
ENDTAB
0
TABLE
2
UCS
5
7
100
AcDbSymbolTable
70
0
0
ENDTAB
0
TABLE
2
APPID
5
9
100
AcDbSymbolTable
70
2
0
APPID
5
12
100
AcDbSymbolTableRecord
100
AcDbRegAppTableRecord
2
ACAD
70
0
0
ENDTAB
0
TABLE
2
DIMSTYLE
5
A
100
AcDbSymbolTable
70
1
0
ENDTAB
0
TABLE
2
BLOCK_RECORD
5
1
100
AcDbSymbolTable
70
1
0
BLOCK_RECORD
5
1F
100
AcDbSymbolTableRecord
100
AcDbBlockTableRecord
2
*MODEL_SPACE
0
BLOCK_RECORD
5
1B
100
AcDbSymbolTableRecord
100
AcDbBlockTableRecord
2
*PAPER_SPACE
0
ENDTAB
0
ENDSEC
0
SECTION
2
BLOCKS
0
BLOCK
5
20
100
AcDbEntity
100
AcDbBlockBegin
2
*MODEL_SPACE
0
ENDBLK
5
21
100
AcDbEntity
100
AcDbBlockEnd
0
BLOCK
5
1C
100
AcDbEntity
100
AcDbBlockBegin
2
*PAPER_SPACE
0
ENDBLK
5
1D
100
AcDbEntity
100
AcDbBlockEnd
0
ENDSEC
0
SECTION
2
ENTITIES
0
LWPOLYLINE
5
100
100
AcDbEntity
8
0
100
AcDbPolyline
90
24
70
1
43
0.0
10
3.8324581632992496
20
206.77892051545311
42
-0.42260913640849346
10
2.8328665141108988
20
207.80749558978181
42
-0.97879281548812513
10
2.8328665141107208
20
67.839659644793002
42
-0.4226091364084546
10
3.8324581632991106
20
68.868234719121205
10
3.8324581632991079
20
93.81108112427566
42
-0.41421356237311246
10
2.8324581632991652
20
94.811081124275645
10
47.369958163299302
20
94.811081124275645
10
47.36995816329916
20
117.03608112427565
42
-0.18763097567466211
10
-44.705041836700552
20
117.03608112427561
10
-44.70504183670073
20
94.811081124275688
10
-0.16754183670080136
20
94.811081124275645
42
-0.41421356237309664
10
-1.16754183670075
20
93.811081124275702
10
-1.16754183670075
20
68.868234719121261
42
-0.42260913640841619
10
-0.16795018751231849
20
67.839659644793144
42
-0.97878811549979727
10
-0.16795018751698296
20
207.80749558978155
42
-0.42260913640843978
10
-1.167541836700609
20
206.77892051545331
10
-1.16754183670075
20
181.83607411029897
42
-0.41421356237316581
10
-0.16754183670066425
20
180.83607411029891
10
-44.705041836700445
20
180.83607411029897
10
-44.705041836700673
20
158.61107411029917
42
-0.18763097567466328
10
47.369958163299337
20
158.611074110299
10
47.369958163299444
20
180.83607411029891
10
2.8324581632991928
20
180.83607411029891
42
-0.4142135623730972
10
3.83245816329925
20
181.83607411029897
0
CIRCLE
5
101
100
AcDbEntity
8
0
100
AcDbCircle
10
168.63174600606533
20
-186.86059381727458
30
0
40
3.0000000000000071
210
0
220
0
230
1
0
CIRCLE
5
102
100
AcDbEntity
8
0
100
AcDbCircle
10
-133.51825399393474
20
-206.76311286161052
30
0
40
3.0000000000000071
210
0
220
0
230
1
0
CIRCLE
5
103
100
AcDbEntity
8
0
100
AcDbCircle
10
-133.51825399393476
20
-193.76311286161055
30
0
40
3.0000000000000071
210
-0
220
0
230
1
0
CIRCLE
5
104
100
AcDbEntity
8
0
100
AcDbCircle
10
168.63174600606533
20
-173.86059381727452
30
0
40
2.9999999999999893
210
-0
220
0
230
1
0
CIRCLE
5
105
100
AcDbEntity
8
0
100
AcDbCircle
10
1.3326262274520915
20
-118.91059556071028
30
0
40
4
210
-3.4211388289180104e-49
220
-1.0542197943230525e-80
230
1
0
CIRCLE
5
106
100
AcDbEntity
8
0
100
AcDbCircle
10
-73.767373772547899
20
230.28940618272571
30
0
40
4.0000000000000036
210
3.4211388289180104e-49
220
1.0542197943230521e-80
230
1
0
CIRCLE
5
107
100
AcDbEntity
8
0
100
AcDbCircle
10
76.43262622745209
20
230.28940618272571
30
0
40
4.0000000000000036
210
3.4211388289180104e-49
220
1.0542197943230521e-80
230
1
0
CIRCLE
5
108
100
AcDbEntity
8
0
100
AcDbCircle
10
-72.835526262625578
20
266.85039237153597
30
0
40
2.9999999999999982
210
-3.4211388289180104e-49
220
-9.4955677457597914e-66
230
1
0
CIRCLE
5
109
100
AcDbEntity
8
0
100
AcDbCircle
10
60.358215126568425
20
276.58192708573671
30
0
40
2.9999999999999982
210
-3.4211388289180104e-49
220
-9.4955677457597914e-66
230
1
0
CIRCLE
5
110
100
AcDbEntity
8
0
100
AcDbCircle
10
-57.692962671664333
20
276.5819270857437
30
0
40
2.9999999999999982
210
-3.4211388289180104e-49
220
-9.4955677457597914e-66
230
1
0
CIRCLE
5
111
100
AcDbEntity
8
0
100
AcDbCircle
10
75.50077871752967
20
266.85039237153592
30
0
40
2.9999999999999982
210
-3.4211388289180104e-49
220
-9.4955677457597914e-66
230
1
0
LINE
5
112
100
AcDbEntity
8
0
100
AcDbLine
10
18.862626227452072
20
-325.81041109831517
30
0
11
25.348784040137065
21
-325.7709062981553
31
0
0
ARC
5
113
100
AcDbEntity
8
0
100
AcDbCircle
10
25.309804718483871
20
-319.37102500140605
30
3.6083157433887235e-62
40
6.3999999999997677
210
-1.4690283689519937e-49
220
-8.9473111541136766e-52
230
1
100
AcDbArc
50
270.34896319167444
51
329.53229226802785
0
ARC
5
114
100
AcDbEntity
8
0
100
AcDbCircle
10
36.256126176658483
20
-325.81059381727459
30
-3.6083157433887235e-62
40
6.3000000000002387
210
1.4743655659204647e-49
220
-8.6734877627788253e-50
230
1
100
AcDbArc
50
90.000000000001563
51
149.53229226802782
0
LINE
5
115
100
AcDbEntity
8
0
100
AcDbLine
10
36.256126176658313
20
-319.5105938172743
30
5.464297290550747e-49
11
174.33262622745207
21
-319.5105938172743
31
0
0
LINE
5
116
100
AcDbEntity
8
0
100
AcDbLine
10
174.33262622745207
20
-319.5105938172743
30
0
11
174.33262622745207
21
-217.81059381727431
31
0
0
LINE
5
117
100
AcDbEntity
8
0
100
AcDbLine
10
174.33262622745207
20
-217.81059381727431
30
0
11
197.03262622745206
21
-217.81059381727431
31
0
0
LINE
5
118
100
AcDbEntity
8
0
100
AcDbLine
10
197.03262622745206
20
-217.81059381727431
30
0
11
197.03262622745206
21
-80.410595009367327
31
0
0
ARC
5
119
100
AcDbEntity
8
0
100
AcDbCircle
10
196.03262622745208
20
-80.410595009367327
30
0
40
0.99999999999997868
210
0
220
0
230
1
100
AcDbArc
50
0
51
90.000000000001634
0
LINE
5
120
100
AcDbEntity
8
0
100
AcDbLine
10
196.03262622745206
20
-79.410595009367341
30
0
11
187.33262898416689
21
-79.410595009367313
31
0
0
ARC
5
121
100
AcDbEntity
8
0
100
AcDbCircle
10
187.33262898416686
20
-80.410595009367327
30
-1.1062336423810166e-62
40
1.0000000000000142
210
-3.4211388289180051e-49
220
1.0919902907623423e-63
230
1
100
AcDbArc
50
89.99999999999838
51
180
0
LINE
5
122
100
AcDbEntity
8
0
100
AcDbLine
10
186.33262898416689
20
-80.410595009367327
30
-3.4211388289181039e-49
11
186.33262898416689
21
-83.810593817274381
31
0
0
LINE
5
123
100
AcDbEntity
8
0
100
AcDbLine
10
186.33262898416689
20
-83.810593817274381
30
0
11
142.63262622745208
21
-83.810593817274381
31
0
0
ARC
5
124
100
AcDbEntity
8
0
100
AcDbCircle
10
142.63262622745208
20
-64.810593817274352
30
0
40
19.000000000000021
210
3.4211388289180097e-49
220
-2.8853058180580424e-129
230
1
100
AcDbArc
50
180
51
270
0
LINE
5
125
100
AcDbEntity
8
0
100
AcDbLine
10
123.63262622745208
20
-64.810593817274352
30
6.5001637749442259e-48
11
123.63262622745208
21
-24.710593817274365
31
0
0
LINE
5
126
100
AcDbEntity
8
0
100
AcDbLine
10
123.63262622745208
20
-24.710593817274365
30
0
11
124.28865230212267
21
-23.571469043264685
31
-8.536550754315789e-33
0
SPLINE
5
127
100
AcDbEntity
8
0
100
AcDbSpline
70
0
71
3
72
12
73
8
74
0
42
0.000000001
43
0.0000000001
44
0.0000000001
40
0
40
0
40
0
40
0
40
1.422936454681772
40
1.422936454681772
40
2.0105982976943881
40
2.0105982976943881
40
2.6033960054276788
40
2.6033960054276788
40
2.6033960054276788
40
2.6033960054276788
10
145.81347796503644
20
13.804274262631841
30
0
10
145.11915299954865
20
9.1122475625688448
30
0
10
143.80687297223753
20
3.1201765528035437
30
0
10
138.25272385782196
20
-7.9041348891821217
30
0
10
136.28989336116047
20
-11.20021887643844
30
0
10
131.96442686349161
20
-17.006723611559153
30
0
10
128.83042223100855
20
-20.541452897898328
30
0
10
124.28865230212269
20
-23.571469043264663
30
0
0
SPLINE
5
128
100
AcDbEntity
8
0
100
AcDbSpline
70
4
71
3
72
8
73
4
74
0
42
0.000000001
43
0.0000000001
44
0.0000000001
40
6.7735638816864441
40
6.7735638816864441
40
6.7735638816864441
40
6.7735638816864441
40
7.0247944686733756
40
7.0247944686733756
40
7.0247944686733756
40
7.0247944686733756
41
1
41
1
41
1
41
1
10
145.81347796503647
20
13.804274262631841
30
0
10
145.8793920741806
20
14.249700792553433
30
0
10
145.94129573339259
20
14.696662456097489
30
0
10
145.99971826321303
20
15.145869236771311
30
0
0
SPLINE
5
129
100
AcDbEntity
8
0
100
AcDbSpline
70
4
71
3
72
10
73
6
74
0
42
0.000000001
43
0.0000000001
44
0.0000000001
40
-2.8581327411771191
40
-2.8581327411771191
40
-2.8581327411771191
40
-2.8581327411771191
40
-1.4914250833507714
40
-1.4914250833507714
40
0
40
0
40
0
40
0
41
1
41
1
41
1
41
1
41
1
41
1
10
145.9997182632132
20
15.145869236772732
30
0
10
146.47202213382593
20
18.77738094757785
30
0
10
146.75437695362183
20
22.884532828661918
30
0
10
147.13824568181809
20
32.446942735100372
30
0
10
147.2142747410891
20
37.936946054546347
30
0
10
147.23064153407074
20
42.908336057772296
30
0
0
LINE
5
130
100
AcDbEntity
8
0
100
AcDbLine
10
147.23064153407074
20
42.908336057772296
30
0
11
147.53262622745206
21
126.56723078478791
31
0
0
LINE
5
131
100
AcDbEntity
8
0
100
AcDbLine
10
147.53262622745206
20
126.56723078478791
30
0
11
153.7326262274521
21
168.48940618272565
31
0
0
LINE
5
132
100
AcDbEntity
8
0
100
AcDbLine
10
153.7326262274521
20
168.48940618272565
30
0
11
147.55935540630156
21
211.42544784535949
31
-2.5034664210575927e-31
0
LINE
5
133
100
AcDbEntity
8
0
100
AcDbLine
10
147.55935540630156
20
211.42544784535949
30
-2.5034664210575927e-31
11
129.53966463092408
21
250.88306676295878
31
0
0
LINE
5
134
100
AcDbEntity
8
0
100
AcDbLine
10
129.53966463092408
20
250.88306676295878
30
0
11
125.94678331392508
21
255.02947283874931
31
0
0
LINE
5
135
100
AcDbEntity
8
0
100
AcDbLine
10
125.94678331392508
20
255.02947283874931
30
0
11
136.12720400529352
21
263.85085758318348
31
0
0
LINE
5
136
100
AcDbEntity
8
0
100
AcDbLine
10
136.12720400529352
20
263.85085758318348
30
0
11
115.30263266583344
21
287.88369404764893
31
0
0
LINE
5
137
100
AcDbEntity
8
0
100
AcDbLine
10
115.30263266583344
20
287.88369404764893
30
0
11
105.12221197446505
21
279.0623093032147
31
0
0
LINE
5
138
100
AcDbEntity
8
0
100
AcDbLine
10
105.12221197446505
20
279.0623093032147
30
0
11
101.13340208071358
21
283.6656413143146
31
0
0
LINE
5
139
100
AcDbEntity
8
0
100
AcDbLine
10
101.13340208071358
20
283.6656413143146
30
0
11
64.641874208939541
21
307.1173222747542
31
0
0
LINE
5
140
100
AcDbEntity
8
0
100
AcDbLine
10
64.641874208939541
20
307.1173222747542
30
0
11
23.021407580300711
21
319.33819392537976
31
0
0
LINE
5
141
100
AcDbEntity
8
0
100
AcDbLine
10
23.021407580300711
20
319.33819392537976
30
0
11
23.021407580300707
21
330.28940618272571
31
0
0
LINE
5
142
100
AcDbEntity
8
0
100
AcDbLine
10
23.021407580300707
20
330.28940618272571
30
0
11
-20.35615512539653
21
330.28940618272571
31
0
0
LINE
5
143
100
AcDbEntity
8
0
100
AcDbLine
10
-20.35615512539653
20
330.28940618272571
30
0
11
-20.35615512539653
21
319.33819392537987
31
0
0
LINE
5
144
100
AcDbEntity
8
0
100
AcDbLine
10
-20.35615512539653
20
319.33819392537987
30
0
11
-61.976621754035364
21
307.11732227475432
31
0
0
LINE
5
145
100
AcDbEntity
8
0
100
AcDbLine
10
-61.976621754035364
20
307.11732227475432
30
0
11
-98.468149625809431
21
283.6656413143146
31
0
0
LINE
5
146
100
AcDbEntity
8
0
100
AcDbLine
10
-98.468149625809431
20
283.6656413143146
30
0
11
-126.87441217601997
21
250.88306676295872
31
0
0
LINE
5
147
100
AcDbEntity
8
0
100
AcDbLine
10
-126.87441217601997
20
250.88306676295872
30
0
11
-144.89410295139737
21
211.42544784535949
31
0
0
LINE
5
148
100
AcDbEntity
8
0
100
AcDbLine
10
-144.89410295139737
20
211.42544784535949
30
0
11
-151.067373772548
21
168.48940618272565
31
2.7888093121599741e-31
0
LINE
5
149
100
AcDbEntity
8
0
100
AcDbLine
10
-151.067373772548
20
168.48940618272565
30
2.7888093121599741e-31
11
-145.16365623354775
21
126.4822731562149
31
0
0
LINE
5
150
100
AcDbEntity
8
0
100
AcDbLine
10
-145.16365623354775
20
126.4822731562149
30
0
11
-163.76737377254796
21
-153.51059381727441
31
0
0
LINE
5
151
100
AcDbEntity
8
0
100
AcDbLine
10
-163.76737377254796
20
-153.51059381727441
30
0
11
-163.76737377254796
21
-234.51059381727441
31
0
0
LINE
5
152
100
AcDbEntity
8
0
100
AcDbLine
10
-163.76737377254796
20
-234.51059381727441
30
0
11
-160.66737377254793
21
-234.51059381727441
31
0
0
LINE
5
153
100
AcDbEntity
8
0
100
AcDbLine
10
-160.66737377254793
20
-234.51059381727441
30
0
11
-160.66737377254793
21
-284.5105938172743
31
0
0
ARC
5
154
100
AcDbEntity
8
0
100
AcDbCircle
10
-119.36737377254794
20
-284.5105938172743
30
0
40
41.29999999999999
210
0
220
0
230
1
100
AcDbArc
50
180
51
182.79844242576081
0
ARC
5
155
100
AcDbEntity
8
0
100
AcDbCircle
10
-122.54325399393481
20
-287.91059381727439
30
0
40
38.099999999999994
210
0
220
0
230
1
100
AcDbArc
50
177.91880944797458
51
270
0
LINE
5
156
100
AcDbEntity
8
0
100
AcDbLine
10
-122.5432539939348
20
-326.01059381727441
30
0
11
-79.767373772547899
21
-326.01059381727441
31
0
0
LINE
5
157
100
AcDbEntity
8
0
100
AcDbLine
10
-79.767373772547899
20
-326.01059381727441
30
0
11
-79.767373772547899
21
-329.02059381727435
31
0
0
LINE
5
158
100
AcDbEntity
8
0
100
AcDbLine
10
-79.767373772547899
20
-329.02059381727435
30
0
11
18.862626227452068
21
-329.02059381727435
31
0
0
LINE
5
159
100
AcDbEntity
8
0
100
AcDbLine
10
18.862626227452068
20
-329.02059381727435
30
0
11
18.862626227452072
21
-325.81041109831517
31
0
0
LWPOLYLINE
5
160
100
AcDbEntity
8
0
100
AcDbPolyline
90
24
70
1
43
0.0
10
-1.1675418367007553
20
68.868234719121276
42
-0.42260913640840925
10
-0.16795018751250557
20
67.839659644793187
42
-0.97878811549979594
10
-0.16795018751699031
20
207.80749558978155
42
-0.42260913640844189
10
-1.1675418367006241
20
206.77892051545331
10
-1.1675418367007648
20
181.83607411029897
42
-0.41421356237316792
10
-0.16754183670068201
20
180.83607411029891
10
-44.705041836700445
20
180.83607411029897
10
-44.705041836700602
20
158.6110741102992
42
-0.18763097567466339
10
47.369958163299287
20
158.61107411029903
10
47.36995816329943
20
180.83607411029891
10
2.8324581632991856
20
180.83607411029891
42
-0.4142135623730952
10
3.8324581632992363
20
181.83607411029897
10
3.8324581632992332
20
206.77892051545359
42
-0.42260913640849856
10
2.8328665141113873
20
207.80749558978181
42
-0.97879281548812258
10
2.8328665141107114
20
67.839659644793031
42
-0.42260913640844638
10
3.8324581632991035
20
68.868234719121205
10
3.8324581632991004
20
93.811081124275674
42
-0.41421356237310542
10
2.8324581632991563
20
94.811081124275645
10
47.369958163299295
20
94.811081124275645
10
47.369958163299124
20
117.03608112427571
42
-0.18763097567466269
10
-44.705041836700588
20
117.03608112427567
10
-44.705041836700737
20
94.811081124275688
10
-0.16754183670081427
20
94.811081124275645
42
-0.41421356237309481
10
-1.1675418367007566
20
93.811081124275702
0
LINE
5
161
100
AcDbEntity
8
0
100
AcDbLine
10
18.862626227452097
20
-325.81041109831517
30
0
11
18.862626227452097
21
-329.02059381727435
31
5.5155043679031735e-17
0
LINE
5
162
100
AcDbEntity
8
0
100
AcDbLine
10
-79.767373772547884
20
-329.02059381727435
30
0
11
18.862626227452097
21
-329.02059381727435
31
5.5155043679031735e-17
0
LINE
5
163
100
AcDbEntity
8
0
100
AcDbLine
10
-79.767373772547884
20
-326.01059381727441
30
0
11
-79.767373772547884
21
-329.02059381727435
31
0
0
LINE
5
164
100
AcDbEntity
8
0
100
AcDbLine
10
-79.767373772547884
20
-326.01059381727441
30
0
11
-122.54325399393477
21
-326.01059381727441
31
2.5903413174478346e-16
0
ARC
5
165
100
AcDbEntity
8
0
100
AcDbCircle
10
-122.54325399393478
20
-287.91059381727439
30
0
40
38.10000000000003
210
0
220
0
230
1
100
AcDbArc
50
177.91880944797458
51
270
0
ARC
5
166
100
AcDbEntity
8
0
100
AcDbCircle
10
-119.36737377254792
20
-284.5105938172743
30
0
40
41.299999999999969
210
0
220
0
230
1
100
AcDbArc
50
180
51
182.79844242576081
0
LINE
5
167
100
AcDbEntity
8
0
100
AcDbLine
10
-160.66737377254788
20
-284.5105938172743
30
0
11
-160.66737377254788
21
-234.51059381727435
31
-8.590639304312661e-16
0
LINE
5
168
100
AcDbEntity
8
0
100
AcDbLine
10
-163.7673737725479
20
-234.51059381727441
30
0
11
-160.66737377254788
21
-234.51059381727435
31
-8.590639304312661e-16
0
LINE
5
169
100
AcDbEntity
8
0
100
AcDbLine
10
-163.7673737725479
20
-234.51059381727441
30
0
11
-163.7673737725479
21
-153.51059381727438
31
-1.3916835672986522e-15
0
LINE
5
170
100
AcDbEntity
8
0
100
AcDbLine
10
-163.7673737725479
20
-153.51059381727438
30
-1.3916835672986522e-15
11
-145.16365623354775
21
126.4822731562149
31
-4.9232923502752659e-15
0
LINE
5
171
100
AcDbEntity
8
0
100
AcDbLine
10
-145.16365623354775
20
126.4822731562149
30
-4.9232923502752659e-15
11
-151.06737377254797
21
168.48940618272565
31
-6.8598563355746334e-16
0
LINE
5
172
100
AcDbEntity
8
0
100
AcDbLine
10
-151.06737377254797
20
168.48940618272565
30
-6.8598563355746334e-16
11
-144.89410295139737
21
211.42544784535954
31
-7.750790267563315e-16
0
LINE
5
173
100
AcDbEntity
8
0
100
AcDbLine
10
-144.89410295139737
20
211.42544784535954
30
-7.750790267563315e-16
11
-126.87441217602
21
250.88306676295875
31
-7.8705259877914167e-16
0
LINE
5
174
100
AcDbEntity
8
0
100
AcDbLine
10
-126.87441217602
20
250.88306676295875
30
-7.8705259877914167e-16
11
-98.468149625809446
21
283.6656413143146
31
-7.3526385003090169e-16
0
LINE
5
175
100
AcDbEntity
8
0
100
AcDbLine
10
-98.468149625809446
20
283.6656413143146
30
-7.3526385003090169e-16
11
-61.976621754035378
21
307.11732227475432
31
-6.2390839693564862e-16
0
LINE
5
176
100
AcDbEntity
8
0
100
AcDbLine
10
-61.976621754035378
20
307.11732227475432
30
-6.2390839693564862e-16
11
-20.356155125396551
21
319.33819392537987
31
-4.62007596046772e-16
0
LINE
5
177
100
AcDbEntity
8
0
100
AcDbLine
10
-20.356155125396551
20
319.33819392537987
30
-4.62007596046772e-16
11
-20.356155125396555
21
330.28940618272566
31
-1.8815582889565098e-16
0
LINE
5
178
100
AcDbEntity
8
0
100
AcDbLine
10
-20.356155125396555
20
330.28940618272566
30
-1.8815582889565098e-16
11
23.021407580300682
21
330.28940618272566
31
-2.6267768739116035e-16
0
LINE
5
179
100
AcDbEntity
8
0
100
AcDbLine
10
23.021407580300682
20
319.33819392537987
30
0
11
23.021407580300682
21
330.28940618272566
31
-2.6267768739116035e-16
0
LINE
5
180
100
AcDbEntity
8
0
100
AcDbLine
10
23.021407580300682
20
319.33819392537987
30
0
11
64.641874208939512
21
307.11732227475426
31
-4.2067194707475214e-17
0
LINE
5
181
100
AcDbEntity
8
0
100
AcDbLine
10
64.641874208939512
20
307.11732227475426
30
-4.2067194707475214e-17
11
101.13340208071357
21
283.6656413143146
31
1.8195133190816826e-16
0
LINE
5
182
100
AcDbEntity
8
0
100
AcDbLine
10
105.12221197446502
20
279.0623093032147
30
0
11
101.13340208071357
21
283.6656413143146
31
1.8195133190816826e-16
0
LINE
5
183
100
AcDbEntity
8
0
100
AcDbLine
10
105.12221197446502
20
279.0623093032147
30
0
11
115.30263266583341
21
287.88369404764893
31
-2.1321134627512115e-16
0
LINE
5
184
100
AcDbEntity
8
0
100
AcDbLine
10
115.30263266583341
20
287.88369404764893
30
-2.1321134627512115e-16
11
136.12720400529349
21
263.85085758318348
31
2.868093358464653e-16
0
LINE
5
185
100
AcDbEntity
8
0
100
AcDbLine
10
136.12720400529349
20
263.85085758318348
30
2.868093358464653e-16
11
125.94678331392507
21
255.02947283874929
31
2.1321134627512051e-16
0
LINE
5
186
100
AcDbEntity
8
0
100
AcDbLine
10
129.53966463092405
20
250.88306676295878
30
0
11
125.94678331392507
21
255.02947283874929
31
2.1321134627512051e-16
0
LINE
5
187
100
AcDbEntity
8
0
100
AcDbLine
10
129.53966463092405
20
250.88306676295878
30
0
11
147.55935540630153
21
211.42544784535957
31
5.6881208893333294e-16
0
LINE
5
188
100
AcDbEntity
8
0
100
AcDbLine
10
153.73262622745207
20
168.48940618272565
30
0
11
147.55935540630153
21
211.42544784535957
31
5.6881208893333294e-16
0
LINE
5
189
100
AcDbEntity
8
0
100
AcDbLine
10
147.53262622745203
20
126.56723078478791
30
0
11
153.73262622745207
21
168.48940618272565
31
0
0
LINE
5
190
100
AcDbEntity
8
0
100
AcDbLine
10
147.53262622745203
20
126.56723078478791
30
0
11
147.23064153407074
21
42.908336057772289
31
1.4391954805146176e-15
0
SPLINE
5
191
100
AcDbEntity
8
0
100
AcDbSpline
70
4
71
3
72
10
73
6
74
0
42
0.000000001
43
0.0000000001
44
0.0000000001
40
0
40
0
40
0
40
0
40
1.4914250833507714
40
1.4914250833507714
40
2.8581327411771191
40
2.8581327411771191
40
2.8581327411771191
40
2.8581327411771191
41
1
41
1
41
1
41
1
41
1
41
1
10
147.23064153407074
20
42.908336057772296
30
0
10
147.2142747410891
20
37.936946054546347
30
0
10
147.13824568181809
20
32.446942735100372
30
0
10
146.75437695362183
20
22.884532828661918
30
0
10
146.47202213382593
20
18.77738094757785
30
0
10
145.9997182632132
20
15.145869236772732
30
0
0
SPLINE
5
192
100
AcDbEntity
8
0
100
AcDbSpline
70
4
71
3
72
8
73
4
74
0
42
0.000000001
43
0.0000000001
44
0.0000000001
40
-7.0247944686733756
40
-7.0247944686733756
40
-7.0247944686733756
40
-7.0247944686733756
40
-6.7735638816864441
40
-6.7735638816864441
40
-6.7735638816864441
40
-6.7735638816864441
41
1
41
1
41
1
41
1
10
145.99971826321303
20
15.145869236771311
30
0
10
145.94129573339259
20
14.696662456097489
30
0
10
145.8793920741806
20
14.249700792553433
30
0
10
145.81347796503647
20
13.804274262631841
30
0
0
SPLINE
5
193
100
AcDbEntity
8
0
100
AcDbSpline
70
4
71
3
72
12
73
8
74
0
42
0.000000001
43
0.0000000001
44
0.0000000001
40
0.10010351349993118
40
0.10010351349993118
40
0.10010351349993118
40
0.10010351349993118
40
1.8462846297172044
40
1.8462846297172044
40
4.1706380960675027
40
4.1706380960675027
40
6.7735638816864441
40
6.7735638816864441
40
6.7735638816864441
40
6.7735638816864441
41
1
41
1
41
1
41
1
41
1
41
1
41
1
41
1
10
124.28865230212267
20
-23.571469043264663
30
0
10
129.03727785889618
20
-20.403450334564358
30
0
10
132.25067847525764
20
-16.680284480620962
30
0
10
137.34194691704852
20
-9.7010984020812572
30
0
10
139.98017649555177
20
-4.8676121575830811
30
0
10
144.01714629493017
20
4.7391969430383059
30
0
10
145.13056138077394
20
9.1893417648146603
30
0
10
145.81347796503647
20
13.804274262631841
30
0
0
LINE
5
194
100
AcDbEntity
8
0
100
AcDbLine
10
123.63262622745208
20
-24.710593817274351
30
0
11
124.28865230212267
21
-23.571469043264663
31
0
0
LINE
5
195
100
AcDbEntity
8
0
100
AcDbLine
10
123.63262622745208
20
-64.810593817274352
30
0
11
123.63262622745208
21
-24.710593817274351
31
0
0
ARC
5
196
100
AcDbEntity
8
0
100
AcDbCircle
10
142.63262622745211
20
-64.810593817274338
30
1.984260520772446e-46
40
19.000000000000039
210
-8.4063307701214624e-48
220
-2.1789409980263143e-33
230
1
100
AcDbArc
50
180
51
269.99999999999989
0
LINE
5
197
100
AcDbEntity
8
0
100
AcDbLine
10
142.63262622745208
20
-83.810593817274381
30
-4.1399878962499929e-32
11
186.33262898416689
21
-83.810593817274381
31
-2.6463025921955528e-16
0
LINE
5
198
100
AcDbEntity
8
0
100
AcDbLine
10
186.33262898416689
20
-83.810593817274381
30
-2.6463025921955528e-16
11
186.33262898416689
21
-80.410595009367327
31
-5.8416326787645035e-17
0
ARC
5
199
100
AcDbEntity
8
0
100
AcDbCircle
10
187.33262898416689
20
-80.410595009367327
30
0
40
0.99999999999999645
210
1.0894704990131558e-33
220
-1.0894704990131595e-33
230
1
100
AcDbArc
50
90
51
180
0
LINE
5
200
100
AcDbEntity
8
0
100
AcDbLine
10
187.33262898416689
20
-79.410595009367327
30
1.0894704990131556e-33
11
196.03262622745206
21
-79.410595009367313
31
-5.2683807333312032e-17
0
ARC
5
201
100
AcDbEntity
8
0
100
AcDbCircle
10
196.03262622745206
20
-80.410595009367327
30
0
40
0.99999999999997868
210
0
220
-0
230
1
100
AcDbArc
50
0
51
90
0
LINE
5
202
100
AcDbEntity
8
0
100
AcDbLine
10
197.03262622745211
20
-217.81059381727431
30
0
11
197.03262622745203
21
-80.410595009367327
31
0
0
LINE
5
203
100
AcDbEntity
8
0
100
AcDbLine
10
174.33262622745212
20
-217.81059381727431
30
0
11
197.03262622745211
21
-217.81059381727431
31
0
0
LINE
5
204
100
AcDbEntity
8
0
100
AcDbLine
10
174.33262622745212
20
-319.51059381727435
30
0
11
174.33262622745212
21
-217.81059381727431
31
0
0
LINE
5
205
100
AcDbEntity
8
0
100
AcDbLine
10
174.33262622745212
20
-319.51059381727435
30
0
11
36.256126176658334
21
-319.51059381727441
31
8.3613770470428635e-16
0
ARC
5
206
100
AcDbEntity
8
0
100
AcDbCircle
10
36.256126176658427
20
-325.81059381727448
30
0
40
6.3000000000000966
210
1.8710996856032258e-30
220
-1.3272027058797993e-16
230
1
100
AcDbArc
50
90.000000000000838
51
149.53229226802739
0
ARC
5
207
100
AcDbEntity
8
0
100
AcDbCircle
10
25.30980471848379
20
-319.371025001406
30
0
40
6.3999999999999471
210
7.6898888297164132e-34
220
-1.335120981149632e-33
230
1
100
AcDbArc
50
270.34896319167547
51
329.53229226802881
0
LINE
5
208
100
AcDbEntity
8
0
100
AcDbLine
10
25.348784040137097
20
-325.77090629815535
30
-8.574590461174403e-33
11
18.862626227452097
21
-325.81041109831517
31
0
0
CIRCLE
5
209
100
AcDbEntity
8
0
100
AcDbCircle
10
168.63174600606533
20
-186.86059381727458
30
0
40
3.0000000000000071
210
0
220
-0
230
1
0
CIRCLE
5
210
100
AcDbEntity
8
0
100
AcDbCircle
10
-133.51825399393474
20
-206.76311286161052
30
0
40
3.0000000000000071
210
0
220
-0
230
1
0
CIRCLE
5
211
100
AcDbEntity
8
0
100
AcDbCircle
10
-133.51825399393474
20
-193.76311286161055
30
0
40
3.0000000000000071
210
0
220
0
230
1
0
CIRCLE
5
212
100
AcDbEntity
8
0
100
AcDbCircle
10
168.63174600606533
20
-173.86059381727452
30
0
40
2.9999999999999893
210
0
220
0
230
1
0
CIRCLE
5
213
100
AcDbEntity
8
0
100
AcDbCircle
10
1.3326262274521019
20
-118.91059556071028
30
0
40
4
210
0
220
0
230
1
0
CIRCLE
5
214
100
AcDbEntity
8
0
100
AcDbCircle
10
-73.767373772547927
20
230.28940618272571
30
0
40
4.0000000000000036
210
0
220
0
230
1
0
CIRCLE
5
215
100
AcDbEntity
8
0
100
AcDbCircle
10
76.432626227452076
20
230.28940618272571
30
0
40
4.0000000000000036
210
0
220
0
230
1
0
CIRCLE
5
216
100
AcDbEntity
8
0
100
AcDbCircle
10
-72.835526262625606
20
266.85039237153597
30
0
40
2.9999999999999982
210
0
220
0
230
1
0
CIRCLE
5
217
100
AcDbEntity
8
0
100
AcDbCircle
10
60.358215126568396
20
276.58192708573671
30
0
40
2.9999999999999982
210
0
220
0
230
1
0
CIRCLE
5
218
100
AcDbEntity
8
0
100
AcDbCircle
10
-57.692962671664361
20
276.5819270857437
30
0
40
2.9999999999999982
210
0
220
0
230
1
0
CIRCLE
5
219
100
AcDbEntity
8
0
100
AcDbCircle
10
75.500778717529641
20
266.85039237153592
30
0
40
2.9999999999999982
210
0
220
0
230
1
0
ENDSEC
0
SECTION
2
OBJECTS
0
DICTIONARY
5
C
100
AcDbDictionary
3
ACAD_GROUP
350
D
3
ACAD_MLINESTYLE
350
17
0
DICTIONARY
5
D
100
AcDbDictionary
0
DICTIONARY
5
1A
330
C
100
AcDbDictionary
0
DICTIONARY
5
17
100
AcDbDictionary
0
ENDSEC
0
EOF
