0
SECTION
2
HEADER
9
$INSUNITS
70
4
9
$ACADVER
1
AC1014
9
$HANDSEED
5
FFFF
0
ENDSEC
0
SECTION
2
TABLES
0
TABLE
2
VPORT
5
8
100
AcDbSymbolTable
0
ENDTAB
0
TABLE
2
LTYPE
5
5
100
AcDbSymbolTable
0
LTYPE
5
14
100
AcDbSymbolTableRecord
100
AcDbLinetypeTableRecord
2
BYBLOCK
70
0
0
LTYPE
5
15
100
AcDbSymbolTableRecord
100
AcDbLinetypeTableRecord
2
BYLAYER
70
0
0
ENDTAB
0
TABLE
2
LAYER
5
2
100
AcDbSymbolTable
70
2
0
LAYER
5
50
100
AcDbSymbolTableRecord
100
AcDbLayerTableRecord
2
0
70
0
6
CONTINUOUS
0
ENDTAB
0
TABLE
2
STYLE
5
3
100
AcDbSymbolTable
70
1
0
STYLE
5
11
100
AcDbSymbolTableRecord
100
AcDbTextStyleTableRecord
2
STANDARD
70
0
0
ENDTAB
0
TABLE
2
VIEW
5
6
100
AcDbSymbolTable
70
0
0
ENDTAB
0
TABLE
2
UCS
5
7
100
AcDbSymbolTable
70
0
0
ENDTAB
0
TABLE
2
APPID
5
9
100
AcDbSymbolTable
70
2
0
APPID
5
12
100
AcDbSymbolTableRecord
100
AcDbRegAppTableRecord
2
ACAD
70
0
0
ENDTAB
0
TABLE
2
DIMSTYLE
5
A
100
AcDbSymbolTable
70
1
0
ENDTAB
0
TABLE
2
BLOCK_RECORD
5
1
100
AcDbSymbolTable
70
1
0
BLOCK_RECORD
5
1F
100
AcDbSymbolTableRecord
100
AcDbBlockTableRecord
2
*MODEL_SPACE
0
BLOCK_RECORD
5
1B
100
AcDbSymbolTableRecord
100
AcDbBlockTableRecord
2
*PAPER_SPACE
0
ENDTAB
0
ENDSEC
0
SECTION
2
BLOCKS
0
BLOCK
5
20
100
AcDbEntity
100
AcDbBlockBegin
2
*MODEL_SPACE
0
ENDBLK
5
21
100
AcDbEntity
100
AcDbBlockEnd
0
BLOCK
5
1C
100
AcDbEntity
100
AcDbBlockBegin
2
*PAPER_SPACE
0
ENDBLK
5
1D
100
AcDbEntity
100
AcDbBlockEnd
0
ENDSEC
0
SECTION
2
ENTITIES
0
LWPOLYLINE
5
100
100
AcDbEntity
8
0
100
AcDbPolyline
90
45
70
1
43
0.0
10
-196.06654190909575
20
204.98991429895489
42
-0.41421356237307422
10
-197.06654190909572
20
205.98991429895494
10
-197.06654190909575
20
343.38991310686185
10
-174.36654190909576
20
343.38991310686191
10
-174.36654190909582
20
445.0899131068619
10
-36.290041858302075
20
445.08991310686201
42
0.26576310485443266
10
-30.859976882987041
20
448.19548133206115
42
-0.26413357978836999
10
-25.382699721780824
20
451.3502255877429
10
-18.896541909095838
20
451.38973038790277
10
-18.896541909095824
20
454.59991310686189
10
79.73345809090408
20
454.59991310686189
10
79.73345809090408
20
451.58991310686201
10
122.50933831229099
20
451.5899131068619
42
-0.42489296999733911
10
160.58420639307201
20
412.10628720687203
42
-0.012211115448557415
10
160.6334580909041
20
410.08991310686201
10
160.6334580909041
20
360.08991310686207
10
163.73345809090415
20
360.08991310686207
10
163.73345809090415
20
279.08991310686201
10
145.12974055190409
20
-0.90295386662726074
10
151.03345809090433
20
-42.910086893138022
10
144.86018726975371
20
-85.846128555771912
10
126.84049649437631
20
-125.30374747337109
10
98.434233944165811
20
-158.08632202472697
10
61.942706072391758
20
-181.53800298516674
10
20.322239443752924
20
-193.7588746357921
10
20.322239443752927
20
-204.71008689313805
10
-23.055323261944292
20
-204.71008689313805
10
-23.055323261944309
20
-193.7588746357921
10
-64.675789890583133
20
-181.53800298516666
10
-101.16731776235717
20
-158.08632202472697
10
-105.15612765610862
20
-153.48299001362707
10
-115.33654834747702
20
-162.30437475806133
10
-136.16111968693707
20
-138.27153829359591
10
-125.98069899556867
20
-129.45015354916171
10
-129.57358031256763
20
-125.3037474733712
10
-147.59327108794511
20
-85.846128555771912
10
-153.76654190909571
20
-42.910086893138057
10
-147.40247982192315
20
0.12141747167003558
10
-147.40247982192315
20
90.144956553430958
42
-0.19018549475686436
10
-123.66654190909574
20
150.28991310686195
10
-123.66654190909577
20
190.38991310686191
42
0.41421356237309503
10
-142.66654190909577
20
209.38991310686191
10
-186.36654466581049
20
209.38991310686191
10
-186.36654466581049
20
205.98991429895489
42
-0.4142135623730534
10
-187.36654466581047
20
204.98991429895486
0
CIRCLE
5
101
100
AcDbEntity
8
0
100
AcDbCircle
10
-75.534694399173262
20
-141.27107308194832
30
0
40
2.9999999999999978
210
0
220
0
230
1
0
CIRCLE
5
102
100
AcDbEntity
8
0
100
AcDbCircle
10
57.659046990020705
20
-151.00260779615607
30
0
40
2.9999999999999978
210
0
220
0
230
1
0
CIRCLE
5
103
100
AcDbEntity
8
0
100
AcDbCircle
10
133.48463336851583
20
332.35241720477921
30
0
40
3.0000000000000426
210
0
220
0
230
1
0
CIRCLE
5
104
100
AcDbEntity
8
0
100
AcDbCircle
10
-145.66536663148347
20
404.19989816044284
30
0
40
2.9999999999999711
210
0
220
0
230
1
0
CIRCLE
5
105
100
AcDbEntity
8
0
100
AcDbCircle
10
133.48463336851583
20
314.35241720477927
30
0
40
3.0000000000000426
210
0
220
0
230
1
0
CIRCLE
5
106
100
AcDbEntity
8
0
100
AcDbCircle
10
-60.392130808212023
20
-151.00260779614914
30
0
40
2.9999999999999978
210
0
220
0
230
1
0
CIRCLE
5
107
100
AcDbEntity
8
0
100
AcDbCircle
10
-1.3665419090958075
20
244.48991485029785
30
0
40
4
210
0
220
0
230
1
0
CIRCLE
5
108
100
AcDbEntity
8
0
100
AcDbCircle
10
-145.66536663148347
20
422.19989816044279
30
0
40
3.0000000000000426
210
0
220
0
230
1
0
CIRCLE
5
109
100
AcDbEntity
8
0
100
AcDbCircle
10
-76.466541909095696
20
-104.71008689313805
30
0
40
4.0000000000000044
210
0
220
0
230
1
0
CIRCLE
5
110
100
AcDbEntity
8
0
100
AcDbCircle
10
72.801610580981929
20
-141.27107308194834
30
0
40
2.9999999999999978
210
0
220
0
230
1
0
CIRCLE
5
111
100
AcDbEntity
8
0
100
AcDbCircle
10
73.73345809090425
20
-104.71008689313805
30
0
40
4.0000000000000044
210
0
220
0
230
1
0
LWPOLYLINE
5
112
100
AcDbEntity
8
0
100
AcDbPolyline
90
24
70
1
43
0.0
10
44.73227898498596
20
30.757913960136136
10
44.732278984985776
20
8.5329139601362272
42
0.1876309756746613
10
-47.342721015013858
20
8.5329139601361703
10
-47.34272101501405
20
30.757913960136136
10
-2.8052210150139167
20
30.757913960136136
42
0.21342176528338172
10
-3.8052210150138603
20
32.993981937635873
10
-3.8052210150138688
20
55.295321563378828
42
0.23097053556836178
10
-2.8056293658256326
20
57.729335439618694
42
0.97879281548812513
10
-2.8056293658253884
20
-82.238500505370098
42
0.2309705355683839
10
-3.8052210150139709
20
-79.804486629130068
10
-3.8052210150139794
20
-57.503147003386928
42
0.21342176528339241
10
-2.8052210150139434
20
-55.267079025887114
10
-47.342721015014178
20
-55.267079025887114
10
-47.342721015014071
20
-33.042079025887247
42
0.18763097567466291
10
44.732278984985889
20
-33.042079025887432
10
44.732278984985676
20
-55.267079025887114
10
0.19477898498593937
20
-55.267079025887114
42
0.21342176528339696
10
1.1947789849860135
20
-57.503147003386971
10
1.1947789849858941
20
-79.880781358546571
42
0.22412509917346471
10
0.19518733580228875
20
-82.238500505369871
42
0.97878811549979727
10
0.19518733579760195
20
57.729335439618552
42
0.23097190725955499
10
1.19477898498599
20
55.295306381429235
10
1.1947789849859975
20
32.99398193763588
42
0.21342176528338277
10
0.19477898498604596
20
30.757913960136136
0
ENDSEC
0
SECTION
2
OBJECTS
0
DICTIONARY
5
C
100
AcDbDictionary
3
ACAD_GROUP
350
D
3
ACAD_MLINESTYLE
350
17
0
DICTIONARY
5
D
100
AcDbDictionary
0
DICTIONARY
5
1A
330
C
100
AcDbDictionary
0
DICTIONARY
5
17
100
AcDbDictionary
0
ENDSEC
0
EOF
