0
SECTION
2
HEADER
9
$INSUNITS
70
4
9
$ACADVER
1
AC1014
9
$HANDSEED
5
FFFF
0
ENDSEC
0
SECTION
2
TABLES
0
TABLE
2
VPORT
5
8
100
AcDbSymbolTable
0
ENDTAB
0
TABLE
2
LTYPE
5
5
100
AcDbSymbolTable
0
LTYPE
5
14
100
AcDbSymbolTableRecord
100
AcDbLinetypeTableRecord
2
BYBLOCK
70
0
0
LTYPE
5
15
100
AcDbSymbolTableRecord
100
AcDbLinetypeTableRecord
2
BYLAYER
70
0
0
ENDTAB
0
TABLE
2
LAYER
5
2
100
AcDbSymbolTable
70
2
0
LAYER
5
50
100
AcDbSymbolTableRecord
100
AcDbLayerTableRecord
2
0
70
0
6
CONTINUOUS
0
ENDTAB
0
TABLE
2
STYLE
5
3
100
AcDbSymbolTable
70
1
0
STYLE
5
11
100
AcDbSymbolTableRecord
100
AcDbTextStyleTableRecord
2
STANDARD
70
0
0
ENDTAB
0
TABLE
2
VIEW
5
6
100
AcDbSymbolTable
70
0
0
ENDTAB
0
TABLE
2
UCS
5
7
100
AcDbSymbolTable
70
0
0
ENDTAB
0
TABLE
2
APPID
5
9
100
AcDbSymbolTable
70
2
0
APPID
5
12
100
AcDbSymbolTableRecord
100
AcDbRegAppTableRecord
2
ACAD
70
0
0
ENDTAB
0
TABLE
2
DIMSTYLE
5
A
100
AcDbSymbolTable
70
1
0
ENDTAB
0
TABLE
2
BLOCK_RECORD
5
1
100
AcDbSymbolTable
70
1
0
BLOCK_RECORD
5
1F
100
AcDbSymbolTableRecord
100
AcDbBlockTableRecord
2
*MODEL_SPACE
0
BLOCK_RECORD
5
1B
100
AcDbSymbolTableRecord
100
AcDbBlockTableRecord
2
*PAPER_SPACE
0
ENDTAB
0
ENDSEC
0
SECTION
2
BLOCKS
0
BLOCK
5
20
100
AcDbEntity
100
AcDbBlockBegin
2
*MODEL_SPACE
0
ENDBLK
5
21
100
AcDbEntity
100
AcDbBlockEnd
0
BLOCK
5
1C
100
AcDbEntity
100
AcDbBlockBegin
2
*PAPER_SPACE
0
ENDBLK
5
1D
100
AcDbEntity
100
AcDbBlockEnd
0
ENDSEC
0
SECTION
2
ENTITIES
0
CIRCLE
5
100
100
AcDbEntity
8
0
100
AcDbCircle
10
145.66536663148349
20
-404.1998981604429
30
0
40
2.9999999999999716
210
0
220
0
230
1
0
LWPOLYLINE
5
101
100
AcDbEntity
8
0
100
AcDbPolyline
90
25
70
1
43
0.0
10
-1.1334580909049343
20
-32.838484571233181
42
0.213421765283383
10
-0.13345809090498706
20
-30.602416593733398
10
-44.670958090904904
20
-30.602416593733398
10
-44.670958090904875
20
-8.3774165937334288
42
0.18763097567466255
10
47.404041909095085
20
-8.3774165937334075
10
47.404041909095078
20
-30.602416593733398
10
2.8665419090950905
20
-30.60241659373343
42
0.021134973782323613
10
2.8701122156970191
20
-30.686843284504949
42
0.19887474064989749
10
3.8665419090950448
20
-32.755021998803315
10
3.8665419090950683
20
-58.148810658977006
42
0.23022018943889694
10
2.8669173725879151
20
-60.574499797179101
42
0.97965385063357124
10
2.8669173725875603
20
85.394659595735845
42
0.22979022258375048
10
3.8665419090951896
20
82.973738689619964
10
3.8665419090950626
20
57.658644369789769
42
0.21342176528338933
10
2.8665419090950461
20
55.422576392290004
10
47.404041909095049
20
55.422576392290004
10
47.404041909095099
20
33.197576392290117
42
0.18763097567466294
10
-44.670958090904946
20
33.197576392290102
10
-44.670958090904904
20
55.422576392290004
10
-0.13345809090491656
20
55.422576392289962
42
0.21342176528339593
10
-1.1334580909049499
20
57.658644369789783
10
-1.1334580909049319
20
83.008814452705906
42
0.22663880673136541
10
-0.1338335543976224
20
85.394659595735845
42
0.97965385063357258
10
-0.13383355439765043
20
-60.574499797179165
42
0.2302201894389389
10
-1.1334580909048446
20
-58.148810658976629
0
CIRCLE
5
102
100
AcDbEntity
8
0
100
AcDbCircle
10
-133.48463336851583
20
-314.35241720477927
30
0
40
3.0000000000000426
210
0
220
0
230
1
0
CIRCLE
5
103
100
AcDbEntity
8
0
100
AcDbCircle
10
60.392130808212023
20
151.00260779614911
30
0
40
2.9999999999999982
210
0
220
0
230
1
0
CIRCLE
5
104
100
AcDbEntity
8
0
100
AcDbCircle
10
-133.48463336851583
20
-332.35241720477921
30
0
40
3.0000000000000426
210
0
220
0
230
1
0
CIRCLE
5
105
100
AcDbEntity
8
0
100
AcDbCircle
10
-31.970958090904951
20
49.072576392289911
30
0
40
1.5000000000000036
210
0
220
0
230
1
0
CIRCLE
5
106
100
AcDbEntity
8
0
100
AcDbCircle
10
-73.73345809090425
20
104.71008689313805
30
0
40
4.0000000000000036
210
0
220
0
230
1
0
CIRCLE
5
107
100
AcDbEntity
8
0
100
AcDbCircle
10
-31.970958090904951
20
-24.252416593733415
30
0
40
1.5000000000000036
210
0
220
0
230
1
0
CIRCLE
5
108
100
AcDbEntity
8
0
100
AcDbCircle
10
75.534694399173276
20
141.27107308194832
30
0
40
2.9999999999999982
210
0
220
0
230
1
0
CIRCLE
5
109
100
AcDbEntity
8
0
100
AcDbCircle
10
76.46654190909571
20
104.71008689313805
30
0
40
4.0000000000000124
210
0
220
0
230
1
0
CIRCLE
5
110
100
AcDbEntity
8
0
100
AcDbCircle
10
145.66536663148349
20
-422.19989816044284
30
0
40
3.0000000000000426
210
0
220
0
230
1
0
CIRCLE
5
111
100
AcDbEntity
8
0
100
AcDbCircle
10
34.704041909095075
20
49.072576392289911
30
0
40
1.5000000000000036
210
0
220
0
230
1
0
CIRCLE
5
112
100
AcDbEntity
8
0
100
AcDbCircle
10
-57.659046990020713
20
151.0026077961561
30
0
40
2.9999999999999982
210
0
220
0
230
1
0
CIRCLE
5
113
100
AcDbEntity
8
0
100
AcDbCircle
10
-72.801610580981944
20
141.27107308194834
30
0
40
2.9999999999999982
210
0
220
0
230
1
0
CIRCLE
5
114
100
AcDbEntity
8
0
100
AcDbCircle
10
1.3665419090958075
20
-244.48991485029785
30
0
40
4
210
0
220
0
230
1
0
CIRCLE
5
115
100
AcDbEntity
8
0
100
AcDbCircle
10
34.704041909095075
20
-24.252416593733415
30
0
40
1.5000000000000036
210
0
220
0
230
1
0
LWPOLYLINE
5
116
100
AcDbEntity
8
0
100
AcDbPolyline
90
45
70
1
43
0.0
10
23.055323261944288
20
204.71008689313805
10
23.055323261944309
20
193.7588746357921
10
64.675789890583133
20
181.53800298516666
10
101.16731776235717
20
158.086322024727
10
105.15612765610862
20
153.4829900136271
10
115.33654834747702
20
162.3043747580613
10
136.16111968693707
20
138.27153829359594
10
125.9806989955687
20
129.45015354916171
10
129.57358031256763
20
125.3037474733712
10
147.59327108794511
20
85.846128555771898
10
153.76654190909574
20
42.910086893138057
10
147.40247982192315
20
-0.12141747167000005
10
147.40247982192318
20
-90.144956553430973
42
-0.19018549475686367
10
123.66654190909574
20
-150.28991310686195
10
123.66654190909578
20
-190.38991310686191
42
0.4142135623730967
10
142.66654190909574
20
-209.38991310686191
10
186.36654466581047
20
-209.38991310686191
10
186.36654466581047
20
-205.98991429895491
42
-0.41421356237307422
10
187.36654466581047
20
-204.98991429895489
10
196.06654190909575
20
-204.98991429895489
42
-0.41421356237312623
10
197.06654190909572
20
-205.98991429895491
10
197.06654190909575
20
-343.38991310686185
10
174.36654190909576
20
-343.38991310686197
10
174.36654190909582
20
-445.0899131068619
10
36.290041858302082
20
-445.08991310686207
42
0.26576310485442006
10
30.859976882987105
20
-448.19548133206126
42
-0.26413357978838731
10
25.382699721780835
20
-451.3502255877429
10
18.896541909095834
20
-451.3502255877429
10
18.896541909095834
20
-454.59991310686178
10
-79.733458090904094
20
-454.59991310686178
10
-79.733458090904094
20
-451.58991310686201
10
-122.50933831229098
20
-451.5899131068619
42
-0.42489296999733889
10
-160.58420639307201
20
-412.10628720687203
42
-0.012211115448531876
10
-160.6334580909041
20
-410.0899131068619
10
-160.6334580909041
20
-360.08991310686207
10
-163.73345809090415
20
-360.08991310686207
10
-163.73345809090415
20
-279.08991310686201
10
-145.12974055190409
20
0.90295386662724297
10
-151.0334580909043
20
42.910086893138057
10
-144.86018726975368
20
85.846128555771898
10
-126.84049649437632
20
125.30374747337113
10
-98.434233944165811
20
158.086322024727
10
-61.942706072391744
20
181.53800298516683
10
-20.32223944375291
20
193.7588746357921
10
-20.32223944375291
20
204.71008689313805
0
ENDSEC
0
SECTION
2
OBJECTS
0
DICTIONARY
5
C
100
AcDbDictionary
3
ACAD_GROUP
350
D
3
ACAD_MLINESTYLE
350
17
0
DICTIONARY
5
D
100
AcDbDictionary
0
DICTIONARY
5
1A
330
C
100
AcDbDictionary
0
DICTIONARY
5
17
100
AcDbDictionary
0
ENDSEC
0
EOF
