0
SECTION
2
HEADER
9
$INSUNITS
70
4
9
$ACADVER
1
AC1014
9
$HANDSEED
5
FFFF
0
ENDSEC
0
SECTION
2
TABLES
0
TABLE
2
VPORT
5
8
100
AcDbSymbolTable
0
ENDTAB
0
TABLE
2
LTYPE
5
5
100
AcDbSymbolTable
0
LTYPE
5
14
100
AcDbSymbolTableRecord
100
AcDbLinetypeTableRecord
2
BYBLOCK
70
0
0
LTYPE
5
15
100
AcDbSymbolTableRecord
100
AcDbLinetypeTableRecord
2
BYLAYER
70
0
0
ENDTAB
0
TABLE
2
LAYER
5
2
100
AcDbSymbolTable
70
2
0
LAYER
5
50
100
AcDbSymbolTableRecord
100
AcDbLayerTableRecord
2
0
70
0
6
CONTINUOUS
0
ENDTAB
0
TABLE
2
STYLE
5
3
100
AcDbSymbolTable
70
1
0
STYLE
5
11
100
AcDbSymbolTableRecord
100
AcDbTextStyleTableRecord
2
STANDARD
70
0
0
ENDTAB
0
TABLE
2
VIEW
5
6
100
AcDbSymbolTable
70
0
0
ENDTAB
0
TABLE
2
UCS
5
7
100
AcDbSymbolTable
70
0
0
ENDTAB
0
TABLE
2
APPID
5
9
100
AcDbSymbolTable
70
2
0
APPID
5
12
100
AcDbSymbolTableRecord
100
AcDbRegAppTableRecord
2
ACAD
70
0
0
ENDTAB
0
TABLE
2
DIMSTYLE
5
A
100
AcDbSymbolTable
70
1
0
ENDTAB
0
TABLE
2
BLOCK_RECORD
5
1
100
AcDbSymbolTable
70
1
0
BLOCK_RECORD
5
1F
100
AcDbSymbolTableRecord
100
AcDbBlockTableRecord
2
*MODEL_SPACE
0
BLOCK_RECORD
5
1B
100
AcDbSymbolTableRecord
100
AcDbBlockTableRecord
2
*PAPER_SPACE
0
ENDTAB
0
ENDSEC
0
SECTION
2
BLOCKS
0
BLOCK
5
20
100
AcDbEntity
100
AcDbBlockBegin
2
*MODEL_SPACE
0
ENDBLK
5
21
100
AcDbEntity
100
AcDbBlockEnd
0
BLOCK
5
1C
100
AcDbEntity
100
AcDbBlockBegin
2
*PAPER_SPACE
0
ENDBLK
5
1D
100
AcDbEntity
100
AcDbBlockEnd
0
ENDSEC
0
SECTION
2
ENTITIES
0
LINE
5
100
100
AcDbEntity
8
0
100
AcDbLine
10
-244.60594506609073
20
-116.09746178361877
30
0
11
-215.79979688024949
21
-81.13853374169851
31
0
0
ARC
5
101
100
AcDbEntity
8
0
100
AcDbCircle
10
-267.83660188295863
20
505.96063808836561
30
0
40
0.99999999999990763
210
0
220
0
230
1
100
AcDbArc
50
0
51
90.000000000006523
0
LINE
5
102
100
AcDbEntity
8
0
100
AcDbLine
10
-181.87903950531879
20
412.26392999539115
30
0
11
-181.05499801635656
21
412.26392999539115
31
0
0
ARC
5
103
100
AcDbEntity
8
0
100
AcDbCircle
10
-415.38964409668108
20
-141.36403574939828
30
0
40
0.99999999999898714
210
0
220
0
230
1
100
AcDbArc
50
236.86887304859712
51
253.40719087213552
0
LINE
5
104
100
AcDbEntity
8
0
100
AcDbLine
10
-474.85499803125776
20
197.34854915628375
30
0
11
-474.85499803125776
21
244.26299896240232
31
0
0
ARC
5
105
100
AcDbEntity
8
0
100
AcDbCircle
10
-199.55499801637572
20
329.03261974186563
30
0
40
20.000000000019291
210
0
220
0
230
1
100
AcDbArc
50
-4.8190964218141117
51
0
0
CIRCLE
5
106
100
AcDbEntity
8
0
100
AcDbCircle
10
-412.72576756115427
20
-111.6312513695899
30
0
40
3.0000000000000071
210
0
220
0
230
1
0
ARC
5
107
100
AcDbEntity
8
0
100
AcDbCircle
10
-216.57154895883167
20
-80.502610217049337
30
0
40
0.99999999999907441
210
0
220
0
230
1
100
AcDbArc
50
320.51148573356375
51
337.28006261548569
0
LINE
5
108
100
AcDbEntity
8
0
100
AcDbLine
10
-415.93620108267856
20
-142.20145766280595
30
0
11
-454.66797928177368
21
-116.92253479743307
31
0
0
CIRCLE
5
109
100
AcDbEntity
8
0
100
AcDbCircle
10
-211.75499801635669
20
358.11295348491393
30
0
40
2.999999999999972
210
0
220
0
230
1
0
ARC
5
110
100
AcDbEntity
8
0
100
AcDbCircle
10
-454.12142229577455
20
-116.08511288402269
30
0
40
1.0000000000021818
210
0
220
0
230
1
100
AcDbArc
50
219.55163712741327
51
236.86887304860304
0
LINE
5
111
100
AcDbEntity
8
0
100
AcDbLine
10
-198.21059905386988
20
-39.241363636184026
30
0
11
-215.64914521011121
21
-80.888837254353376
31
0
0
ARC
5
112
100
AcDbEntity
8
0
100
AcDbCircle
10
-245.37769714467257
20
-115.46153825897042
30
0
40
0.99999999999830169
210
0
220
0
230
1
100
AcDbArc
50
303.80741262538385
51
320.51148573358779
0
ARC
5
113
100
AcDbEntity
8
0
100
AcDbCircle
10
-492.35499801635683
20
244.26299896240226
30
0
40
17.499999985099066
210
0
220
-0
230
1
100
AcDbArc
50
0
51
76.27086752427924
0
LINE
5
114
100
AcDbEntity
8
0
100
AcDbLine
10
-502.07043230392122
20
-38.604145462989749
30
0
11
-506.6701549325345
21
7.5884338326328971
31
0
0
CIRCLE
5
115
100
AcDbEntity
8
0
100
AcDbCircle
10
-320.91624128176164
20
-124.70558329855585
30
0
40
2.999999999999972
210
0
220
0
230
1
0
LINE
5
116
100
AcDbEntity
8
0
100
AcDbLine
10
-520.65499801635679
20
395.96299896240237
30
0
11
-542.85499801635706
21
395.96299896240237
31
0
0
LINE
5
117
100
AcDbEntity
8
0
100
AcDbLine
10
-282.88194575887746
20
-141.72739308925119
30
0
11
-326.3338436524603
21
-154.98962433118047
31
0
0
ARC
5
118
100
AcDbEntity
8
0
100
AcDbCircle
10
-453.17271425329295
20
159.06299896240225
30
0
40
43.018150990330533
210
0
220
0
230
1
100
AcDbArc
50
121.7396821575244
51
180
0
CIRCLE
5
119
100
AcDbEntity
8
0
100
AcDbCircle
10
-425.02340577207889
20
-62.299069488569003
30
0
40
3.9999999999999858
210
0
220
0
230
1
0
LINE
5
120
100
AcDbEntity
8
0
100
AcDbLine
10
-519.65499801635679
20
396.96299896240242
30
0
11
-519.65499801635679
21
494.36299896240234
31
0
0
CIRCLE
5
121
100
AcDbEntity
8
0
100
AcDbCircle
10
-211.76877344069695
20
376.1129482137377
30
0
40
2.999999999999972
210
0
220
0
230
1
0
LINE
5
122
100
AcDbEntity
8
0
100
AcDbLine
10
-244.82129402544675
20
-116.29245075070008
30
0
11
-282.61746446588069
21
-141.60186339905454
31
0
0
CIRCLE
5
123
100
AcDbEntity
8
0
100
AcDbCircle
10
-303.64536775670052
20
-119.63439727541015
30
0
40
2.999999999999972
210
0
220
0
230
1
0
LINE
5
124
100
AcDbEntity
8
0
100
AcDbLine
10
-179.55499801635659
20
410.76392999539138
30
0
11
-179.55499801635642
21
329.03261974186563
31
0
0
LINE
5
125
100
AcDbEntity
8
0
100
AcDbLine
10
-179.62569972718416
20
327.3524204378549
30
0
11
-202.61642149935051
21
54.653252554998666
31
0
0
CIRCLE
5
126
100
AcDbEntity
8
0
100
AcDbCircle
10
-427.86833115211562
20
-101.89971665538913
30
0
40
3.0000000000000071
210
0
220
0
230
1
0
LINE
5
127
100
AcDbEntity
8
0
100
AcDbLine
10
-467.57899273513539
20
-118.17145432514481
30
0
11
-460.48146816687171
21
-112.30995536985222
31
0
0
ARC
5
128
100
AcDbEntity
8
0
100
AcDbCircle
10
-199.13300280258883
20
-38.855136598880051
30
0
40
0.9999999999976954
210
0
220
0
230
1
100
AcDbArc
50
337.28006261545573
51
353.91963853137707
0
ARC
5
129
100
AcDbEntity
8
0
100
AcDbCircle
10
-194.31837592658184
20
6.3430736681689837
30
0
40
1.0000000000004341
210
0
220
0
230
1
100
AcDbArc
50
-6.0803614686358074
51
10.915319536583976
0
LINE
5
130
100
AcDbEntity
8
0
100
AcDbLine
10
-496.19086524362353
20
60.317852422425858
30
0
11
-496.19086524362342
21
159.06299896240225
31
0
0
LINE
5
131
100
AcDbEntity
8
0
100
AcDbLine
10
-183.49565644475587
20
428.05284051773634
30
0
11
-182.87817385391972
21
413.22233007416713
31
0
0
LINE
5
132
100
AcDbEntity
8
0
100
AcDbLine
10
-542.8549980163566
20
255.1444944870174
30
0
11
-530.35499801635672
21
255.1444944870174
31
0
0
ARC
5
133
100
AcDbEntity
8
0
100
AcDbCircle
10
-497.19086524362552
20
60.31785242242605
30
0
40
1.0000000000020055
210
0
220
0
230
1
100
AcDbArc
50
348.69243792223489
51
360
0
LINE
5
134
100
AcDbEntity
8
0
100
AcDbLine
10
-202.61642149935051
20
54.653252554998666
30
0
11
-193.3364678086345
21
6.5324316569362653
31
0
0
ARC
5
135
100
AcDbEntity
8
0
100
AcDbCircle
10
-520.65499801635656
20
396.96299896240242
30
0
40
1.0000000000000142
210
0
220
0
230
1
100
AcDbArc
50
-90.000000000013031
51
0
0
ARC
5
136
100
AcDbEntity
8
0
100
AcDbCircle
10
-501.07535353473679
20
-38.50505841477365
30
0
40
1.000000000002905
210
0
220
0
230
1
100
AcDbArc
50
185.68660109007939
51
202.97619255962258
0
ARC
5
137
100
AcDbEntity
8
0
100
AcDbCircle
10
-372.375773143088
20
497.76052610126845
30
0
40
6.0000000000000853
210
0
220
0
230
1
100
AcDbArc
50
90.00000000000054
51
150.48038871262168
0
LINE
5
138
100
AcDbEntity
8
0
100
AcDbLine
10
-529.35499801635672
20
261.26299896240232
30
0
11
-488.20168614768409
21
261.26299896240232
31
0
0
LINE
5
139
100
AcDbEntity
8
0
100
AcDbLine
10
-365.25433136049799
20
507.02698462422688
30
0
11
-267.83660188295875
21
506.96063808836556
31
0
0
ARC
5
140
100
AcDbEntity
8
0
100
AcDbCircle
10
-325.75000000000017
20
-156.90250869503558
30
0
40
1.9999999999998386
210
0
220
0
230
1
100
AcDbArc
50
106.97304804108009
51
180
0
ARC
5
141
100
AcDbEntity
8
0
100
AcDbCircle
10
-483.01769820111366
20
-81.095423431924857
30
0
40
1.0000000000042144
210
0
220
0
230
1
100
AcDbArc
50
202.97619255968223
51
219.5516371273556
0
LINE
5
142
100
AcDbEntity
8
0
100
AcDbLine
10
-518.65499801635679
20
495.36299896240234
30
0
11
-383.54314836384077
21
495.36299896240234
31
0
0
SPLINE
5
143
100
AcDbEntity
8
0
100
AcDbSpline
70
0
71
3
72
32
73
28
74
0
42
0.000000001
43
0.0000000001
44
0.0000000001
40
-0.99395502968602722
40
-0.99395502968602722
40
-0.99395502968602722
40
-0.99395502968602722
40
-0.82043381457927844
40
-0.82043381457927844
40
-0.82043381457927844
40
-0.70059989857357219
40
-0.70059989857357219
40
-0.70059989857357219
40
-0.57261503060320651
40
-0.57261503060320651
40
-0.57261503060320651
40
-0.46867090645855408
40
-0.46867090645855408
40
-0.46867090645855408
40
-0.34400811024524652
40
-0.34400811024524652
40
-0.34400811024524652
40
-0.2379436874166421
40
-0.2379436874166421
40
-0.2379436874166421
40
-0.099952453985819437
40
-0.099952453985819437
40
-0.099952453985819437
40
0
40
0
40
0
40
0.087799608705929427
40
0.087799608705929427
40
0.087799608705929427
40
0.087799608705929427
10
-183.49565644475601
20
428.05284051773634
30
0
10
-183.40745497668263
20
443.56716913495632
30
0
10
-185.01890680850127
20
456.53379757808835
30
0
10
-188.37538276261523
20
466.9009581140848
30
0
10
-190.69336824533002
20
474.06052902951444
30
0
10
-193.86106716102191
20
479.97152405226268
30
0
10
-197.66657046949803
20
484.64807449819142
30
0
10
-201.73091931772325
20
489.64271801255683
30
0
10
-206.51667342817885
20
493.19572587406662
30
0
10
-211.21191148878623
20
495.70842131461143
30
0
10
-215.02519360252398
20
497.74913074340247
30
0
10
-218.74148517047374
20
499.13440125551801
30
0
10
-222.1063535780869
20
500.16169001080215
30
0
10
-226.14192468934215
20
501.39374319135499
30
0
10
-229.67360091436439
20
502.12877627835815
30
0
10
-233.16443307471818
20
502.56726195214935
30
0
10
-236.13446992232684
20
502.94033019160798
30
0
10
-239.13084966630157
20
503.07553788535643
30
0
10
-242.19067229655255
20
503.09136146201638
30
0
10
-246.17154248438342
20
503.11194814699837
30
0
10
-250.18055500872049
20
502.9616571117777
30
0
10
-253.67608601929405
20
502.91597553594846
30
0
10
-256.20803601208456
20
502.88288658172627
30
0
10
-258.48563302859407
20
502.89507488350722
30
0
10
-260.48712454037747
20
502.96303812451242
30
0
10
-262.28159590056799
20
503.02397172768372
30
0
10
-264.07606726075812
20
503.08490533085501
30
0
10
-265.87053862094831
20
503.14583893402619
30
0
0
CIRCLE
5
144
100
AcDbEntity
8
0
100
AcDbCircle
10
-509.65499801635673
20
341.86186198602962
30
0
40
3.0000000000000071
210
0
220
0
230
1
0
CIRCLE
5
145
100
AcDbEntity
8
0
100
AcDbCircle
10
-509.65499801635673
20
359.86186198602974
30
0
40
3.0000000000000071
210
0
220
0
230
1
0
ARC
5
146
100
AcDbEntity
8
0
100
AcDbCircle
10
-542.8549980163566
20
256.14449448701743
30
0
40
1.0000000000000142
210
0
220
0
230
1
100
AcDbArc
50
180
51
270
0
ARC
5
147
100
AcDbEntity
8
0
100
AcDbCircle
10
-476.85499803125947
20
197.34854915628375
30
0
40
2.000000000001763
210
0
220
0
230
1
100
AcDbArc
50
-58.260317842472489
51
0
0
LINE
5
148
100
AcDbEntity
8
0
100
AcDbLine
10
-193.32400161809974
20
6.2371504193912024
30
0
11
-198.13862849410938
21
-38.961059847657324
31
0
0
ARC
5
149
100
AcDbEntity
8
0
100
AcDbCircle
10
-486.68210069950374
20
-95.040037064570271
30
0
40
1.9999999999999605
210
0
220
0
230
1
100
AcDbArc
50
129.55163712738255
51
219.55163712738423
0
ARC
5
150
100
AcDbEntity
8
0
100
AcDbCircle
10
-181.05499801635656
20
410.76392999539138
30
0
40
1.4999999999999503
210
0
220
0
230
1
100
AcDbArc
50
0
51
90
0
LINE
5
151
100
AcDbEntity
8
0
100
AcDbLine
10
-372.25
20
-165.00785919709421
30
0
11
-372.25
21
-156.75302728796859
31
0
0
LINE
5
152
100
AcDbEntity
8
0
100
AcDbLine
10
-458.36973157965468
20
-112.51137181954874
30
0
11
-454.89247330808047
21
-116.72188626319802
31
0
0
LINE
5
153
100
AcDbEntity
8
0
100
AcDbLine
10
-488.22420272411284
20
-96.313583822917352
30
0
11
-470.3946415180917
21
-117.90289905888274
31
0
0
LINE
5
154
100
AcDbEntity
8
0
100
AcDbLine
10
-327.75
20
-156.90250869503558
30
0
11
-327.75
21
-165.00785919709421
31
0
0
ARC
5
155
100
AcDbEntity
8
0
100
AcDbCircle
10
-459.52630809811149
20
-113.46653188830908
30
0
40
1.4999999999999711
210
0
220
-0
230
1
100
AcDbArc
50
39.551637127385675
51
129.55163712738096
0
LINE
5
156
100
AcDbEntity
8
0
100
AcDbLine
10
-483.9383653310033
20
-81.485772040157656
30
0
11
-501.99602066462558
21
-38.895407023004957
31
0
0
ARC
5
157
100
AcDbEntity
8
0
100
AcDbCircle
10
-329.75000000000011
20
-165.00785919709415
30
0
40
2.0000000000000995
210
0
220
0
230
1
100
AcDbArc
50
270.00000000000489
51
360
0
ARC
5
158
100
AcDbEntity
8
0
100
AcDbCircle
10
-530.35499801635672
20
256.14449448701737
30
0
40
0.99999999999997868
210
0
220
0
230
1
100
AcDbArc
50
-90
51
0
0
ARC
5
159
100
AcDbEntity
8
0
100
AcDbCircle
10
-505.67507616335121
20
7.6875208808482398
30
0
40
1.0000000000017686
210
0
220
0
230
1
100
AcDbArc
50
168.692437922241
51
185.68660109004273
0
LINE
5
160
100
AcDbEntity
8
0
100
AcDbLine
10
-379.19221287650566
20
497.89939177272146
30
0
11
-377.59689572789034
21
500.71685472888555
31
0
0
LINE
5
161
100
AcDbEntity
8
0
100
AcDbLine
10
-529.35499801635672
20
261.26299896240232
30
0
11
-529.35499801635672
21
256.14449448701737
31
0
0
LINE
5
162
100
AcDbEntity
8
0
100
AcDbLine
10
-329.74999999999994
20
-167.00785919709426
30
0
11
-370.25
21
-167.00785919709421
31
0
0
ARC
5
163
100
AcDbEntity
8
0
100
AcDbCircle
10
-365.25501241230279
20
506.02698485614263
30
0
40
1.0000000000000726
210
0
220
-0
230
1
100
AcDbArc
50
89.960978602938411
51
180
0
LINE
5
164
100
AcDbEntity
8
0
100
AcDbLine
10
-372.37577314308805
20
503.76052610126857
30
0
11
-367.25501241230256
21
503.7605261012684
31
0
0
ARC
5
165
100
AcDbEntity
8
0
100
AcDbCircle
10
-468.8525394934826
20
-116.6293523005358
30
0
40
1.9999999999998628
210
0
220
0
230
1
100
AcDbArc
50
219.5516371273811
51
309.55163712738891
0
ARC
5
166
100
AcDbEntity
8
0
100
AcDbCircle
10
-374.24999999999983
20
-156.75302728796845
30
0
40
1.9999999999998153
210
0
220
0
230
1
100
AcDbArc
50
0
51
73.407190872143062
0
ARC
5
167
100
AcDbEntity
8
0
100
AcDbCircle
10
-283.17386758510827
20
-140.77095090732246
30
0
40
1.000000000001267
210
0
220
0
230
1
100
AcDbArc
50
286.97304804110087
51
303.80741262539073
0
LINE
5
168
100
AcDbEntity
8
0
100
AcDbLine
10
-483.7887492134218
20
-81.732196811100707
30
0
11
-480.6567064398908
21
-85.524699497451365
31
0
0
ARC
5
169
100
AcDbEntity
8
0
100
AcDbCircle
10
-367.25501241230256
20
504.76052610126828
30
0
40
0.9999999999998721
210
0
220
0
230
1
100
AcDbArc
50
-90
51
0
0
ARC
5
170
100
AcDbEntity
8
0
100
AcDbCircle
10
-542.85499801635729
20
394.96299896240259
30
0
40
0.99999999999980105
210
0
220
-0
230
1
100
AcDbArc
50
89.999999999986969
51
180
0
LINE
5
171
100
AcDbEntity
8
0
100
AcDbLine
10
-266.83660188295875
20
505.96063808836561
30
0
11
-266.8366018829588
21
504.14526291703567
31
0
0
ARC
5
172
100
AcDbEntity
8
0
100
AcDbCircle
10
-181.87903950531879
20
413.26392999539115
30
0
40
1.000000000000014
210
0
220
0
230
1
100
AcDbArc
50
182.38418791245721
51
270
0
LINE
5
173
100
AcDbEntity
8
0
100
AcDbLine
10
-366.25501241230262
20
504.76052610126828
30
0
11
-366.25501241230273
21
506.02698485614263
31
0
0
ARC
5
174
100
AcDbEntity
8
0
100
AcDbCircle
10
-265.8366018829588
20
504.14526291703567
30
0
40
1.0000000000000142
210
0
220
0
230
1
100
AcDbArc
50
180
51
268.05519471478937
0
CIRCLE
5
175
100
AcDbEntity
8
0
100
AcDbCircle
10
-349.92340577207892
20
286.90093225486703
30
0
40
4
210
0
220
0
230
1
0
ARC
5
176
100
AcDbEntity
8
0
100
AcDbCircle
10
-370.25
20
-165.00785919709412
30
0
40
2.0000000000000284
210
0
220
0
230
1
100
AcDbArc
50
180
51
270
0
ARC
5
177
100
AcDbEntity
8
0
100
AcDbCircle
10
-481.8132829583476
20
-86.479859566211687
30
0
40
1.5000000000000282
210
0
220
0
230
1
100
AcDbArc
50
-50.448362872616428
51
39.551637127385263
0
CIRCLE
5
178
100
AcDbEntity
8
0
100
AcDbCircle
10
-274.8234057720789
20
-62.299069488569003
30
0
40
3.9999999999999858
210
0
220
0
230
1
0
ARC
5
179
100
AcDbEntity
8
0
100
AcDbCircle
10
-383.54314836384071
20
500.36299896240195
30
0
40
4.9999999999995737
210
0
220
0
230
1
100
AcDbArc
50
269.99999999999932
51
330.48038871262463
0
LINE
5
180
100
AcDbEntity
8
0
100
AcDbLine
10
-543.85499801635717
20
394.96299896240259
30
0
11
-543.85499801635672
21
256.14449448701743
31
0
0
ARC
5
181
100
AcDbEntity
8
0
100
AcDbCircle
10
-518.6549980163569
20
494.36299896240257
30
0
40
0.99999999999980105
210
0
220
-0
230
1
100
AcDbArc
50
89.999999999993491
51
180
0
LINE
5
182
100
AcDbEntity
8
0
100
AcDbLine
10
-373.6788638170791
20
-154.83631044384202
30
0
11
-415.6752121881413
21
-142.32239417146056
31
0
0
LINE
5
183
100
AcDbEntity
8
0
100
AcDbLine
10
-506.65566495176836
20
7.8835964480007448
30
0
11
-496.2102764552082
21
60.121776855273403
31
0
0
LINE
5
184
100
AcDbEntity
8
0
100
AcDbLine
10
-487.95564745785077
20
-93.497935039961121
30
0
11
-480.85812288958726
21
-87.636436084668574
31
0
0
ENDSEC
0
SECTION
2
OBJECTS
0
DICTIONARY
5
C
100
AcDbDictionary
3
ACAD_GROUP
350
D
3
ACAD_MLINESTYLE
350
17
0
DICTIONARY
5
D
100
AcDbDictionary
0
DICTIONARY
5
1A
330
C
100
AcDbDictionary
0
DICTIONARY
5
17
100
AcDbDictionary
0
ENDSEC
0
EOF
