0
SECTION
2
HEADER
9
$INSUNITS
70
4
9
$ACADVER
1
AC1014
9
$HANDSEED
5
FFFF
0
ENDSEC
0
SECTION
2
TABLES
0
TABLE
2
VPORT
5
8
100
AcDbSymbolTable
0
ENDTAB
0
TABLE
2
LTYPE
5
5
100
AcDbSymbolTable
0
LTYPE
5
14
100
AcDbSymbolTableRecord
100
AcDbLinetypeTableRecord
2
BYBLOCK
70
0
0
LTYPE
5
15
100
AcDbSymbolTableRecord
100
AcDbLinetypeTableRecord
2
BYLAYER
70
0
0
ENDTAB
0
TABLE
2
LAYER
5
2
100
AcDbSymbolTable
70
2
0
LAYER
5
50
100
AcDbSymbolTableRecord
100
AcDbLayerTableRecord
2
0
70
0
6
CONTINUOUS
0
ENDTAB
0
TABLE
2
STYLE
5
3
100
AcDbSymbolTable
70
1
0
STYLE
5
11
100
AcDbSymbolTableRecord
100
AcDbTextStyleTableRecord
2
STANDARD
70
0
0
ENDTAB
0
TABLE
2
VIEW
5
6
100
AcDbSymbolTable
70
0
0
ENDTAB
0
TABLE
2
UCS
5
7
100
AcDbSymbolTable
70
0
0
ENDTAB
0
TABLE
2
APPID
5
9
100
AcDbSymbolTable
70
2
0
APPID
5
12
100
AcDbSymbolTableRecord
100
AcDbRegAppTableRecord
2
ACAD
70
0
0
ENDTAB
0
TABLE
2
DIMSTYLE
5
A
100
AcDbSymbolTable
70
1
0
ENDTAB
0
TABLE
2
BLOCK_RECORD
5
1
100
AcDbSymbolTable
70
1
0
BLOCK_RECORD
5
1F
100
AcDbSymbolTableRecord
100
AcDbBlockTableRecord
2
*MODEL_SPACE
0
BLOCK_RECORD
5
1B
100
AcDbSymbolTableRecord
100
AcDbBlockTableRecord
2
*PAPER_SPACE
0
ENDTAB
0
ENDSEC
0
SECTION
2
BLOCKS
0
BLOCK
5
20
100
AcDbEntity
100
AcDbBlockBegin
2
*MODEL_SPACE
0
ENDBLK
5
21
100
AcDbEntity
100
AcDbBlockEnd
0
BLOCK
5
1C
100
AcDbEntity
100
AcDbBlockBegin
2
*PAPER_SPACE
0
ENDBLK
5
1D
100
AcDbEntity
100
AcDbBlockEnd
0
ENDSEC
0
SECTION
2
ENTITIES
0
LINE
5
100
100
AcDbEntity
8
0
100
AcDbLine
10
-523.65499801635679
20
402.96299896240242
30
0
11
-523.65499801635679
21
495.36299896240234
31
0
0
ARC
5
101
100
AcDbEntity
8
0
100
AcDbCircle
10
-369.91719375587417
20
-166.09163664363709
30
0
40
2.999999999999976
210
0
220
0
230
1
100
AcDbArc
50
180.2683638140422
51
270.26836381404149
0
ARC
5
102
100
AcDbEntity
8
0
100
AcDbCircle
10
-377.93355007849937
20
-162.61831625008281
30
0
40
4.9999999999999121
210
0
220
-0
230
1
100
AcDbArc
50
0.26836381404086118
51
80.253212606601764
0
ARC
5
103
100
AcDbEntity
8
0
100
AcDbCircle
10
-527.65499801635679
20
402.96299896240242
30
0
40
4.0000000000000568
210
0
220
0
230
1
100
AcDbArc
50
-90
51
0
0
ARC
5
104
100
AcDbEntity
8
0
100
AcDbCircle
10
-488.7517710919397
20
-92.621959699755209
30
0
40
3.0000000000002176
210
0
220
0
230
1
100
AcDbArc
50
129.73710341951184
51
219.73710341950522
0
ARC
5
105
100
AcDbEntity
8
0
100
AcDbCircle
10
-519.65499801635679
20
495.36299896240251
30
0
40
3.9999999999998437
210
0
220
-0
230
1
100
AcDbArc
50
90
51
180
0
ARC
5
106
100
AcDbEntity
8
0
100
AcDbCircle
10
-350
20
0
30
0
40
159.99999999999997
210
0
220
0
230
1
100
AcDbArc
50
228.27008326929771
51
260.25321260660013
0
ARC
5
107
100
AcDbEntity
8
0
100
AcDbCircle
10
-388.53242429143933
20
503.36299896240234
30
0
40
3.9999999999999858
210
0
220
0
230
1
100
AcDbArc
50
270
51
314.97363418899079
0
ARC
5
108
100
AcDbEntity
8
0
100
AcDbCircle
10
-467.04434957141723
20
-118.73425022230465
30
0
40
2.9999999999998761
210
0
220
0
230
1
100
AcDbArc
50
219.73710341950988
51
309.7371034195117
0
LINE
5
109
100
AcDbEntity
8
0
100
AcDbLine
10
-372.9171608485089
20
-166.10568808870426
30
0
11
-372.93360492410818
21
-162.59489717497092
31
0
0
LINE
5
110
100
AcDbEntity
8
0
100
AcDbLine
10
-490.66956887856009
20
-90.315002472229025
30
0
11
-488.44985786272082
21
-88.46973337823826
31
0
0
ARC
5
111
100
AcDbEntity
8
0
100
AcDbCircle
10
-459.82731941804622
20
-123.13797103024912
30
0
40
5.0000000000001013
210
0
220
-0
230
1
100
AcDbArc
50
48.270083269298055
51
129.73710341950775
0
CIRCLE
5
112
100
AcDbEntity
8
0
100
AcDbCircle
10
-425.02340577207889
20
-62.299069488569003
30
0
40
3.9999999999999858
210
0
220
0
230
1
0
LINE
5
113
100
AcDbEntity
8
0
100
AcDbLine
10
-463.02364906241303
20
-119.29304231770551
30
0
11
-465.1265517847969
21
-121.04120744983078
31
0
0
CIRCLE
5
114
100
AcDbEntity
8
0
100
AcDbCircle
10
-412.72576756115421
20
-111.6312513695899
30
0
40
3.0000000000000071
210
0
220
0
230
1
0
ARC
5
115
100
AcDbEntity
8
0
100
AcDbCircle
10
-543.85499801635706
20
395.96299896240237
30
0
40
2.9999999999999716
210
0
220
-0
230
1
100
AcDbArc
50
90
51
180
0
LINE
5
116
100
AcDbEntity
8
0
100
AcDbLine
10
-519.65499801635679
20
499.36299896240234
30
0
11
-388.53242429143933
21
499.36299896240234
31
0
0
LINE
5
117
100
AcDbEntity
8
0
100
AcDbLine
10
-529.35499801635672
20
254.14449448701737
30
0
11
-529.35499801635672
21
259.26309859411168
31
0
0
LINE
5
118
100
AcDbEntity
8
0
100
AcDbLine
10
-328.96458602407449
20
-168.89985300800416
30
0
11
-369.90314231080703
21
-169.09160373627185
31
0
0
ARC
5
119
100
AcDbEntity
8
0
100
AcDbCircle
10
-375.97236141673977
20
506.01656499301453
30
0
40
2.9999999999997584
210
0
220
0
230
1
100
AcDbArc
50
90.000000000014111
51
134.97363418898962
0
CIRCLE
5
120
100
AcDbEntity
8
0
100
AcDbCircle
10
-427.86833115211562
20
-101.89971665538913
30
0
40
3.0000000000000071
210
0
220
0
230
1
0
CIRCLE
5
121
100
AcDbEntity
8
0
100
AcDbCircle
10
-509.65499801635673
20
341.86186198602962
30
0
40
3.0000000000000071
210
0
220
0
230
1
0
ARC
5
122
100
AcDbEntity
8
0
100
AcDbCircle
10
-491.64618750708769
20
-84.624804665694654
30
0
40
5.0000000000000604
210
0
220
0
230
1
100
AcDbArc
50
-50.26289658049177
51
30.855696313853336
0
LINE
5
123
100
AcDbEntity
8
0
100
AcDbLine
10
-378.0927053672994
20
508.13886128037007
30
0
11
-385.70529902402603
21
500.53327057926128
31
0
0
LINE
5
124
100
AcDbEntity
8
0
100
AcDbLine
10
-469.3513067989432
20
-120.65204800892472
30
0
11
-491.05872831946607
21
-94.539757486375294
31
0
0
CIRCLE
5
125
100
AcDbEntity
8
0
100
AcDbCircle
10
-509.65499801635673
20
359.86186198602974
30
0
40
3.0000000000000071
210
0
220
0
230
1
0
LINE
5
126
100
AcDbEntity
8
0
100
AcDbLine
10
-268.73479166899028
20
509.01656499304477
30
0
11
-375.97236141674051
21
509.0165649930143
31
0
0
LINE
5
127
100
AcDbEntity
8
0
100
AcDbLine
10
-543.85499801635672
20
252.1444944870174
30
0
11
-531.35499801635672
21
252.1444944870174
31
0
0
ARC
5
128
100
AcDbEntity
8
0
100
AcDbCircle
10
-320.99479940824324
20
-162.43059545120158
30
0
40
4.9999999999998641
210
0
220
0
230
1
100
AcDbArc
50
100.12458179201447
51
180.2683638140436
0
LINE
5
129
100
AcDbEntity
8
0
100
AcDbLine
10
-527.65499801635679
20
398.96299896240237
30
0
11
-543.85499801635706
21
398.96299896240237
31
0
0
ARC
5
130
100
AcDbEntity
8
0
100
AcDbCircle
10
-543.85499801635672
20
255.1444944870174
30
0
40
2.9999999999999716
210
0
220
0
230
1
100
AcDbArc
50
180
51
270
0
ARC
5
131
100
AcDbEntity
8
0
100
AcDbCircle
10
-350
20
0
30
0
40
159.99999999999997
210
0
220
0
230
1
100
AcDbArc
50
-79.875418207985845
51
19.94059723681713
0
CIRCLE
5
132
100
AcDbEntity
8
0
100
AcDbCircle
10
-211.76877344069695
20
376.1129482137377
30
0
40
2.9999999999999716
210
0
220
0
230
1
0
CIRCLE
5
133
100
AcDbEntity
8
0
100
AcDbCircle
10
-303.64536775670052
20
-119.63439727541014
30
0
40
2.9999999999999716
210
0
220
0
230
1
0
CIRCLE
5
134
100
AcDbEntity
8
0
100
AcDbCircle
10
-320.91624128176164
20
-124.70558329855585
30
0
40
2.9999999999999716
210
0
220
0
230
1
0
LINE
5
135
100
AcDbEntity
8
0
100
AcDbLine
10
-546.85499801635706
20
395.96299896240237
30
0
11
-546.85499801635672
21
255.1444944870174
31
0
0
CIRCLE
5
136
100
AcDbEntity
8
0
100
AcDbCircle
10
-274.8234057720789
20
-62.299069488569003
30
0
40
3.9999999999999858
210
0
220
0
230
1
0
CIRCLE
5
137
100
AcDbEntity
8
0
100
AcDbCircle
10
-349.92340577207892
20
286.90093225486703
30
0
40
4
210
0
220
0
230
1
0
ARC
5
138
100
AcDbEntity
8
0
100
AcDbCircle
10
-328.97863746914169
20
-165.89988591536937
30
0
40
3.0000000000000115
210
0
220
0
230
1
100
AcDbArc
50
-89.731636185957427
51
0.26836381404221926
0
ARC
5
139
100
AcDbEntity
8
0
100
AcDbCircle
10
-527.3549980163566
20
259.26309859411168
30
0
40
2.0000000000001297
210
0
220
0
230
1
100
AcDbArc
50
90.002854309326693
51
180
0
LINE
5
140
100
AcDbEntity
8
0
100
AcDbLine
10
-495.6908652585247
20
66.137521727249521
30
0
11
-495.69086525852475
21
159.06299896240225
31
0
0
LINE
5
141
100
AcDbEntity
8
0
100
AcDbLine
10
-179.2997878883921
20
330.134180797353
30
0
11
-179.60219044827994
21
429.154212858584
31
0
0
SPLINE
5
142
100
AcDbEntity
8
0
100
AcDbSpline
70
0
71
3
72
32
73
28
74
0
42
0.000000001
43
0.0000000001
44
0.0000000001
40
-0.99633095466366794
40
-0.99633095466366794
40
-0.99633095466366794
40
-0.99633095466366794
40
-0.8289917558649198
40
-0.8289917558649198
40
-0.8289917558649198
40
-0.71780123193021383
40
-0.71780123193021383
40
-0.71780123193021383
40
-0.61150303733121969
40
-0.61150303733121969
40
-0.61150303733121969
40
-0.50660994309799179
40
-0.50660994309799179
40
-0.50660994309799179
40
-0.40428129398130391
40
-0.40428129398130391
40
-0.40428129398130391
40
-0.28847583782988567
40
-0.28847583782988567
40
-0.28847583782988567
40
-0.13383051446118585
40
-0.13383051446118585
40
-0.13383051446118585
40
0
40
0
40
0
40
0.13506699801700794
40
0.13506699801700794
40
0.13506699801700794
40
0.13506699801700794
10
-179.60219044827994
20
429.154212858584
30
0
10
-179.47005837233314
20
444.45865197071726
30
0
10
-180.92888506171289
20
457.49316644623258
30
0
10
-184.16177126790103
20
468.27184219969195
30
0
10
-186.30990101674527
20
475.43386169633607
30
0
10
-189.26679875980327
20
481.59764028112926
30
0
10
-192.92283681531785
20
486.671428052544
30
0
10
-196.41801096266363
20
491.52197161322135
30
0
10
-200.55451259448262
20
495.34031607390551
30
0
10
-204.78374324896609
20
498.20923253105553
30
0
10
-208.95706991032961
20
501.04022627861968
30
0
10
-213.1707692382648
20
502.97896903418547
30
0
10
-217.01062487715646
20
504.40307174620489
30
0
10
-220.75660303904769
20
505.79235774057457
30
0
10
-224.13103431618265
20
506.70963534527289
30
0
10
-227.29609718564723
20
507.38285942141351
30
0
10
-230.87800266871773
20
508.14474792382754
30
0
10
-234.27979905409515
20
508.56577985676603
30
0
10
-237.74239523775071
20
508.74556123345513
30
0
10
-242.36630782626037
20
508.98563929244921
30
0
10
-247.07435426412246
20
508.82031658098163
30
0
10
-251.2043208880381
20
508.73568209241029
30
0
10
-254.77840606530776
20
508.66243915883871
30
0
10
-257.88407221441207
20
508.64811473630851
30
0
10
-260.45318780238807
20
508.73535238925285
30
0
10
-263.21372242458915
20
508.82908992385012
30
0
10
-265.9742570467896
20
508.92282745844739
30
0
10
-268.73479166899028
20
509.01656499304477
30
0
0
LINE
5
143
100
AcDbEntity
8
0
100
AcDbLine
10
-325.99474456263437
20
-162.4540145263137
30
0
11
-325.97867037650695
21
-165.88583447030217
31
0
0
LINE
5
144
100
AcDbEntity
8
0
100
AcDbLine
10
-488.11828256614444
20
261.26505325580001
30
0
11
-527.3550976505478
21
261.26309859163007
31
0
0
ARC
5
145
100
AcDbEntity
8
0
100
AcDbCircle
10
-531.35499801635672
20
254.14449448701737
30
0
40
1.9999999999999929
210
0
220
0
230
1
100
AcDbArc
50
-90
51
0
0
ARC
5
146
100
AcDbEntity
8
0
100
AcDbCircle
10
-453.17271425329295
20
159.06299896240225
30
0
40
42.518151005231815
210
0
220
0
230
1
100
AcDbArc
50
121.99914537562273
51
180
0
ARC
5
147
100
AcDbEntity
8
0
100
AcDbCircle
10
-492.26317692943223
20
244.26299896240221
30
0
40
17.499999985098924
210
0
220
-0
230
1
100
AcDbArc
50
0
51
76.299235664543559
0
CIRCLE
5
148
100
AcDbEntity
8
0
100
AcDbCircle
10
-211.75499801635669
20
358.11295348491393
30
0
40
2.9999999999999716
210
0
220
0
230
1
0
ARC
5
149
100
AcDbEntity
8
0
100
AcDbCircle
10
-476.76317694433322
20
196.81688404655304
30
0
40
2.0000000000000457
210
0
220
0
230
1
100
AcDbArc
50
-58.000854624378121
51
0
0
LINE
5
150
100
AcDbEntity
8
0
100
AcDbLine
10
-199.59252588653845
20
54.56731375840679
30
0
11
-179.2997878883921
21
330.134180797353
31
0
0
LINE
5
151
100
AcDbEntity
8
0
100
AcDbLine
10
-474.76317694433317
20
196.81688404655304
30
0
11
-474.76317694433334
21
244.26299896240232
31
0
0
ARC
5
152
100
AcDbEntity
8
0
100
AcDbCircle
10
-350
20
0
30
0
40
160
210
0
220
0
230
1
100
AcDbArc
50
155.583950528071
51
210.85569631385181
0
ENDSEC
0
SECTION
2
OBJECTS
0
DICTIONARY
5
C
100
AcDbDictionary
3
ACAD_GROUP
350
D
3
ACAD_MLINESTYLE
350
17
0
DICTIONARY
5
D
100
AcDbDictionary
0
DICTIONARY
5
1A
330
C
100
AcDbDictionary
0
DICTIONARY
5
17
100
AcDbDictionary
0
ENDSEC
0
EOF
