0
SECTION
2
HEADER
9
$INSUNITS
70
4
9
$ACADVER
1
AC1014
9
$HANDSEED
5
FFFF
0
ENDSEC
0
SECTION
2
TABLES
0
TABLE
2
VPORT
5
8
100
AcDbSymbolTable
0
ENDTAB
0
TABLE
2
LTYPE
5
5
100
AcDbSymbolTable
0
LTYPE
5
14
100
AcDbSymbolTableRecord
100
AcDbLinetypeTableRecord
2
BYBLOCK
70
0
0
LTYPE
5
15
100
AcDbSymbolTableRecord
100
AcDbLinetypeTableRecord
2
BYLAYER
70
0
0
ENDTAB
0
TABLE
2
LAYER
5
2
100
AcDbSymbolTable
70
2
0
LAYER
5
50
100
AcDbSymbolTableRecord
100
AcDbLayerTableRecord
2
0
70
0
6
CONTINUOUS
0
ENDTAB
0
TABLE
2
STYLE
5
3
100
AcDbSymbolTable
70
1
0
STYLE
5
11
100
AcDbSymbolTableRecord
100
AcDbTextStyleTableRecord
2
STANDARD
70
0
0
ENDTAB
0
TABLE
2
VIEW
5
6
100
AcDbSymbolTable
70
0
0
ENDTAB
0
TABLE
2
UCS
5
7
100
AcDbSymbolTable
70
0
0
ENDTAB
0
TABLE
2
APPID
5
9
100
AcDbSymbolTable
70
2
0
APPID
5
12
100
AcDbSymbolTableRecord
100
AcDbRegAppTableRecord
2
ACAD
70
0
0
ENDTAB
0
TABLE
2
DIMSTYLE
5
A
100
AcDbSymbolTable
70
1
0
ENDTAB
0
TABLE
2
BLOCK_RECORD
5
1
100
AcDbSymbolTable
70
1
0
BLOCK_RECORD
5
1F
100
AcDbSymbolTableRecord
100
AcDbBlockTableRecord
2
*MODEL_SPACE
0
BLOCK_RECORD
5
1B
100
AcDbSymbolTableRecord
100
AcDbBlockTableRecord
2
*PAPER_SPACE
0
ENDTAB
0
ENDSEC
0
SECTION
2
BLOCKS
0
BLOCK
5
20
100
AcDbEntity
100
AcDbBlockBegin
2
*MODEL_SPACE
0
ENDBLK
5
21
100
AcDbEntity
100
AcDbBlockEnd
0
BLOCK
5
1C
100
AcDbEntity
100
AcDbBlockBegin
2
*PAPER_SPACE
0
ENDBLK
5
1D
100
AcDbEntity
100
AcDbBlockEnd
0
ENDSEC
0
SECTION
2
ENTITIES
0
CIRCLE
5
100
100
AcDbEntity
8
0
100
AcDbCircle
10
-336.58678784276555
20
176.29666792757484
30
0
40
1.4999999999999858
210
0
220
-0
230
1
0
CIRCLE
5
101
100
AcDbEntity
8
0
100
AcDbCircle
10
-403.26178784276533
20
176.29666792757487
30
0
40
1.4999999999999858
210
0
220
-0
230
1
0
CIRCLE
5
102
100
AcDbEntity
8
0
100
AcDbCircle
10
-336.58678784276555
20
102.97167494155161
30
0
40
1.4999999999999858
210
0
220
-0
230
1
0
LWPOLYLINE
5
103
100
AcDbEntity
8
0
100
AcDbPolyline
90
24
70
1
43
0.0
10
-371.42469619357678
20
69.650253462069216
42
-0.97878811549979861
10
-371.42469619358172
20
209.61808940705754
42
-0.4226091364084209
10
-372.42428784276535
20
208.58951433272927
10
-372.42428784276558
20
183.6466679275749
42
-0.41421356237316787
10
-371.42428784276541
20
182.64666792757484
10
-415.96178784276515
20
182.64666792757492
10
-415.96178784276532
20
160.42166792757513
42
-0.18763097567466291
10
-323.88678784276544
20
160.42166792757499
10
-323.88678784276527
20
182.64666792757484
10
-368.42428784276558
20
182.64666792757484
42
-0.41421356237309503
10
-367.42428784276547
20
183.64666792757492
10
-367.42428784276547
20
208.58951433272907
42
-0.42260913640845188
10
-368.42387949195398
20
209.61808940705782
42
-0.97879281584829325
10
-368.42387954344872
20
69.650253460965118
42
-0.42260913630000096
10
-367.42428784276564
20
70.678828587902345
10
-367.42428784276569
20
95.621674941551603
42
-0.41421356237310025
10
-368.42428784276558
20
96.621674941551632
10
-323.88678784276544
20
96.621674941551632
10
-323.8867878427655
20
118.8466749415515
42
-0.18763097567466303
10
-415.96178784276526
20
118.84667494155151
10
-415.96178784276549
20
96.621674941551632
10
-371.42428784276547
20
96.621674941551632
42
-0.41421356237312101
10
-372.42428784276547
20
95.621674941551689
10
-372.42428784276547
20
70.678828536397305
42
-0.42260913640838721
0
CIRCLE
5
104
100
AcDbEntity
8
0
100
AcDbCircle
10
-403.26178784276533
20
102.97167494155168
30
0
40
1.4999999999999858
210
0
220
-0
230
1
0
CIRCLE
5
105
100
AcDbEntity
8
0
100
AcDbCircle
10
-541.84752555069156
20
473.46163535913519
30
0
40
3.0000000000000071
210
1.2325951644078309e-32
220
-5.294019064050576e-65
230
1
0
CIRCLE
5
106
100
AcDbEntity
8
0
100
AcDbCircle
10
-334.96499296131759
20
15.785903075169259
30
0
40
2.9999999999999716
210
0
220
-0
230
1
0
CIRCLE
5
107
100
AcDbEntity
8
0
100
AcDbCircle
10
-444.94752555069158
20
77.335101945994353
30
0
40
3.9999999999999858
210
0
220
-0
230
1
0
CIRCLE
5
108
100
AcDbEntity
8
0
100
AcDbCircle
10
-317.69411943625653
20
20.857089098314958
30
0
40
2.9999999999999716
210
0
220
-0
230
1
0
CIRCLE
5
109
100
AcDbEntity
8
0
100
AcDbCircle
10
-235.00323798525002
20
513.78308844018625
30
0
40
2.9999999999999716
210
0
220
-0
230
1
0
CIRCLE
5
110
100
AcDbEntity
8
0
100
AcDbCircle
10
-541.84752555069156
20
491.46163535913513
30
0
40
3.0000000000000071
210
1.2325951644078309e-32
220
-5.294019064050576e-65
230
1
0
CIRCLE
5
111
100
AcDbEntity
8
0
100
AcDbCircle
10
-438.35810869335899
20
30.651588865946984
30
0
40
3.0000000000000071
210
1.2325951644078309e-32
220
-5.294019064050576e-65
230
1
0
CIRCLE
5
112
100
AcDbEntity
8
0
100
AcDbCircle
10
-453.50067228432033
20
40.383123580147746
30
0
40
3.0000000000000071
210
1.2325951644078309e-32
220
-5.294019064050576e-65
230
1
0
CIRCLE
5
113
100
AcDbEntity
8
0
100
AcDbCircle
10
-294.74752555069159
20
77.335101945994353
30
0
40
3.9999999999999858
210
0
220
-0
230
1
0
CIRCLE
5
114
100
AcDbEntity
8
0
100
AcDbCircle
10
-234.98946256090974
20
495.78309371136243
30
0
40
2.9999999999999716
210
0
220
-0
230
1
0
CIRCLE
5
115
100
AcDbEntity
8
0
100
AcDbCircle
10
-369.84752555069167
20
426.5351036894304
30
0
40
4
210
1.2325951644078309e-32
220
2.5091797722380785e-64
230
1
0
LWPOLYLINE
5
116
100
AcDbEntity
8
0
100
AcDbPolyline
90
45
70
1
43
0.0
10
-565.5475255506916
20
525.43510194599435
10
-542.84752555069167
20
525.43510194599446
10
-542.84752555069167
20
627.13510194599439
10
-404.7710254998978
20
627.13510194599462
42
0.26576310485443594
10
-399.34096052458301
20
630.24067017119376
42
-0.26413357978838659
10
-393.86368336337671
20
633.39541442687539
10
-387.37752555069164
20
633.39541442687539
10
-387.37752555069164
20
636.64510194599427
10
-288.74752555069171
20
636.64510194599427
10
-288.74752555069171
20
633.63510194599462
10
-245.97164532930486
20
633.63510194599439
42
-0.42489296999733889
10
-207.89677724852385
20
594.15147604600452
42
-0.012211115448531876
10
-207.84752555069176
20
592.13510194599439
10
-207.84752555069176
20
542.13510194599462
10
-204.74752555069165
20
542.13510194599462
10
-204.74752555069165
20
461.13510194599456
10
-223.35124308969171
20
181.14223497250526
10
-217.44752555069155
20
139.13510194599445
10
-223.62079637184218
20
96.199060283360609
10
-241.64048714721952
20
56.741441365761389
10
-270.04674969743002
20
23.958866814405511
10
-306.53827756920407
20
0.50718585396573701
10
-348.15874419784291
20
-11.71368579665959
10
-348.15874419784291
20
-22.664898054005533
10
-391.53630690354015
20
-22.664898054005533
10
-391.53630690354015
20
-11.71368579665959
10
-433.15677353217893
20
0.50718585396587912
10
-469.64830140395298
20
23.958866814405511
10
-473.63711129770445
20
28.562198825505405
10
-483.81753198907285
20
19.740814081071179
10
-504.64210332853293
20
43.773650545536569
10
-494.46168263716453
20
52.595035289970795
10
-498.05456395416343
20
56.741441365761318
10
-516.07425472954094
20
96.199060283360609
10
-522.24752555069153
20
139.13510194599445
10
-515.88346346351898
20
182.16660631080254
10
-515.88346346351898
20
272.19014539256358
42
-0.19018549475686367
10
-492.14752555069151
20
332.33510194599444
10
-492.14752555069151
20
372.43510194599435
42
0.41421356237309614
10
-511.14752555069163
20
391.43510194599446
10
-554.84752830740626
20
391.43510194599446
10
-554.84752830740626
20
388.03510313808738
42
-0.4142135623730534
10
-555.84752830740626
20
387.03510313808744
10
-564.5475255506916
20
387.03510313808744
42
-0.41421356237311585
10
-565.5475255506916
20
388.03510313808744
0
CIRCLE
5
117
100
AcDbEntity
8
0
100
AcDbCircle
10
-336.58678784276555
20
176.29666792757484
30
0
40
1.4999999999999858
210
0
220
-0
230
1
0
CIRCLE
5
118
100
AcDbEntity
8
0
100
AcDbCircle
10
-403.26178784276533
20
176.29666792757487
30
-5.5511151231257827e-16
40
1.4999999999999858
210
0
220
-0
230
1
0
CIRCLE
5
119
100
AcDbEntity
8
0
100
AcDbCircle
10
-336.58678784276555
20
102.97167494155161
30
0
40
1.4999999999999858
210
0
220
-0
230
1
0
LWPOLYLINE
5
120
100
AcDbEntity
8
0
100
AcDbPolyline
90
24
70
1
43
0.0
10
-368.42387949195398
20
209.61808940705777
42
-0.97879281584829325
10
-368.42387954344872
20
69.650253460965104
42
-0.4226091362999958
10
-367.42428784276564
20
70.678828587902359
10
-367.42428784276569
20
95.621674941551618
42
-0.41421356237309503
10
-368.42428784276558
20
96.621674941551632
10
-323.88678784276544
20
96.621674941551632
10
-323.88678784276556
20
118.84667494155153
42
-0.18763097567466269
10
-415.96178784276537
20
118.84667494155156
10
-415.96178784276549
20
96.621674941551632
10
-371.42428784276552
20
96.621674941551589
42
-0.4142135623730846
10
-372.42428784276547
20
95.621674941551689
10
-372.42428784276558
20
70.678828536397234
42
-0.42260913640841136
10
-371.42469619357701
20
69.650253462069145
42
-0.97878811549979727
10
-371.42469619358172
20
209.61808940705754
42
-0.42260913640846337
10
-372.42428784276535
20
208.58951433272927
10
-372.42428784276558
20
183.6466679275749
42
-0.41421356237318868
10
-371.42428784276541
20
182.64666792757484
10
-415.96178784276515
20
182.64666792757487
10
-415.96178784276532
20
160.42166792757513
42
-0.1876309756746635
10
-323.88678784276533
20
160.4216679275749
10
-323.88678784276533
20
182.64666792757484
10
-368.42428784276558
20
182.64666792757484
42
-0.41421356237309503
10
-367.42428784276547
20
183.64666792757492
10
-367.42428784276558
20
208.58951433272904
42
-0.42260913640849435
0
CIRCLE
5
121
100
AcDbEntity
8
0
100
AcDbCircle
10
-403.26178784276533
20
102.97167494155168
30
0
40
1.4999999999999858
210
0
220
-0
230
1
0
CIRCLE
5
122
100
AcDbEntity
8
0
100
AcDbCircle
10
-541.84752555069156
20
473.46163535913519
30
0
40
3.0000000000000071
210
0
220
-0
230
1
0
CIRCLE
5
123
100
AcDbEntity
8
0
100
AcDbCircle
10
-334.96499296131759
20
15.785903075169259
30
0
40
2.9999999999999716
210
0
220
-0
230
1
0
CIRCLE
5
124
100
AcDbEntity
8
0
100
AcDbCircle
10
-444.94752555069158
20
77.335101945994353
30
0
40
3.9999999999999858
210
0
220
-0
230
1
0
CIRCLE
5
125
100
AcDbEntity
8
0
100
AcDbCircle
10
-317.69411943625653
20
20.857089098314958
30
-5.5511151231257827e-16
40
2.9999999999999716
210
0
220
-0
230
1
0
CIRCLE
5
126
100
AcDbEntity
8
0
100
AcDbCircle
10
-235.00323798525002
20
513.78308844018625
30
-5.5511151231257827e-16
40
2.9999999999999716
210
0
220
-0
230
1
0
CIRCLE
5
127
100
AcDbEntity
8
0
100
AcDbCircle
10
-541.84752555069156
20
491.46163535913513
30
-5.5511151231257827e-16
40
3.0000000000000071
210
0
220
-0
230
1
0
CIRCLE
5
128
100
AcDbEntity
8
0
100
AcDbCircle
10
-438.35810869335899
20
30.651588865946984
30
0
40
3.0000000000000071
210
0
220
-0
230
1
0
CIRCLE
5
129
100
AcDbEntity
8
0
100
AcDbCircle
10
-453.50067228432033
20
40.383123580147746
30
-5.5511151231257827e-16
40
3.0000000000000071
210
0
220
-0
230
1
0
CIRCLE
5
130
100
AcDbEntity
8
0
100
AcDbCircle
10
-294.74752555069159
20
77.335101945994353
30
0
40
3.9999999999999858
210
0
220
-0
230
1
0
CIRCLE
5
131
100
AcDbEntity
8
0
100
AcDbCircle
10
-234.98946256090974
20
495.78309371136243
30
-5.5511151231257827e-16
40
2.9999999999999716
210
0
220
-0
230
1
0
CIRCLE
5
132
100
AcDbEntity
8
0
100
AcDbCircle
10
-369.84752555069167
20
426.5351036894304
30
-5.5511151231257827e-16
40
4
210
0
220
-0
230
1
0
LWPOLYLINE
5
133
100
AcDbEntity
8
0
100
AcDbPolyline
90
45
70
1
43
0.0
10
-542.84752555069167
20
627.13510194599439
10
-542.84752555069167
20
525.43510194599446
10
-565.5475255506916
20
525.43510194599435
10
-565.5475255506916
20
388.03510313808744
42
0.41421356237313667
10
-564.5475255506916
20
387.03510313808744
10
-555.84752830740626
20
387.03510313808738
42
0.41421356237307422
10
-554.84752830740626
20
388.03510313808744
10
-554.84752830740626
20
391.43510194599446
10
-511.14752555069151
20
391.43510194599435
42
-0.41421356237309065
10
-492.14752555069163
20
372.43510194599446
10
-492.14752555069151
20
332.33510194599455
42
0.19018549475686403
10
-515.88346346351898
20
272.19014539256352
10
-515.88346346351898
20
182.16660631080254
10
-522.24752555069153
20
139.13510194599445
10
-516.07425472954094
20
96.199060283360609
10
-498.05456395416343
20
56.741441365761318
10
-494.46168263716453
20
52.595035289970795
10
-504.64210332853293
20
43.773650545536569
10
-483.81753198907285
20
19.740814081071214
10
-473.63711129770445
20
28.562198825505405
10
-469.64830140395298
20
23.958866814405511
10
-433.15677353217893
20
0.50718585396587912
10
-391.53630690354015
20
-11.71368579665959
10
-391.53630690354015
20
-22.664898054005533
10
-348.15874419784291
20
-22.664898054005533
10
-348.15874419784291
20
-11.71368579665959
10
-306.53827756920407
20
0.50718585396570148
10
-270.04674969743002
20
23.958866814405511
10
-241.64048714721952
20
56.741441365761389
10
-223.62079637184218
20
96.199060283360609
10
-217.44752555069155
20
139.13510194599445
10
-223.35124308969171
20
181.14223497250526
10
-204.74752555069165
20
461.13510194599456
10
-204.74752555069165
20
542.13510194599462
10
-207.84752555069176
20
542.13510194599462
10
-207.84752555069176
20
592.13510194599439
42
0.012211115448531873
10
-207.89677724852382
20
594.15147604600452
42
0.42489296999733889
10
-245.97164532930486
20
633.63510194599439
10
-288.74752555069171
20
633.63510194599462
10
-288.74752555069171
20
636.64510194599427
10
-387.37752555069164
20
636.64510194599427
10
-387.37752555069164
20
633.39541442687539
10
-393.86368336337671
20
633.39541442687539
42
0.26413357978838514
10
-399.3409605245829
20
630.24067017119376
42
-0.2657631048544436
10
-404.77102549989797
20
627.13510194599462
0
ENDSEC
0
SECTION
2
OBJECTS
0
DICTIONARY
5
C
100
AcDbDictionary
3
ACAD_GROUP
350
D
3
ACAD_MLINESTYLE
350
17
0
DICTIONARY
5
D
100
AcDbDictionary
0
DICTIONARY
5
1A
330
C
100
AcDbDictionary
0
DICTIONARY
5
17
100
AcDbDictionary
0
ENDSEC
0
EOF
