0
SECTION
2
HEADER
9
$INSUNITS
70
4
9
$ACADVER
1
AC1014
9
$HANDSEED
5
FFFF
0
ENDSEC
0
SECTION
2
TABLES
0
TABLE
2
VPORT
5
8
100
AcDbSymbolTable
0
ENDTAB
0
TABLE
2
LTYPE
5
5
100
AcDbSymbolTable
0
LTYPE
5
14
100
AcDbSymbolTableRecord
100
AcDbLinetypeTableRecord
2
BYBLOCK
70
0
0
LTYPE
5
15
100
AcDbSymbolTableRecord
100
AcDbLinetypeTableRecord
2
BYLAYER
70
0
0
ENDTAB
0
TABLE
2
LAYER
5
2
100
AcDbSymbolTable
70
2
0
LAYER
5
50
100
AcDbSymbolTableRecord
100
AcDbLayerTableRecord
2
0
70
0
6
CONTINUOUS
0
ENDTAB
0
TABLE
2
STYLE
5
3
100
AcDbSymbolTable
70
1
0
STYLE
5
11
100
AcDbSymbolTableRecord
100
AcDbTextStyleTableRecord
2
STANDARD
70
0
0
ENDTAB
0
TABLE
2
VIEW
5
6
100
AcDbSymbolTable
70
0
0
ENDTAB
0
TABLE
2
UCS
5
7
100
AcDbSymbolTable
70
0
0
ENDTAB
0
TABLE
2
APPID
5
9
100
AcDbSymbolTable
70
2
0
APPID
5
12
100
AcDbSymbolTableRecord
100
AcDbRegAppTableRecord
2
ACAD
70
0
0
ENDTAB
0
TABLE
2
DIMSTYLE
5
A
100
AcDbSymbolTable
70
1
0
ENDTAB
0
TABLE
2
BLOCK_RECORD
5
1
100
AcDbSymbolTable
70
1
0
BLOCK_RECORD
5
1F
100
AcDbSymbolTableRecord
100
AcDbBlockTableRecord
2
*MODEL_SPACE
0
BLOCK_RECORD
5
1B
100
AcDbSymbolTableRecord
100
AcDbBlockTableRecord
2
*PAPER_SPACE
0
ENDTAB
0
ENDSEC
0
SECTION
2
BLOCKS
0
BLOCK
5
20
100
AcDbEntity
100
AcDbBlockBegin
2
*MODEL_SPACE
0
ENDBLK
5
21
100
AcDbEntity
100
AcDbBlockEnd
0
BLOCK
5
1C
100
AcDbEntity
100
AcDbBlockBegin
2
*PAPER_SPACE
0
ENDBLK
5
1D
100
AcDbEntity
100
AcDbBlockEnd
0
ENDSEC
0
SECTION
2
ENTITIES
0
CIRCLE
5
100
100
AcDbEntity
8
0
100
AcDbCircle
10
-463.04157317234342
20
131.84522653436278
30
0
40
1.4999999999999858
210
0
220
-0
230
1
0
CIRCLE
5
101
100
AcDbEntity
8
0
100
AcDbCircle
10
-431.67047557369642
20
90.383246096983498
30
0
40
1.4999999999999858
210
0
220
-0
230
1
0
CIRCLE
5
102
100
AcDbEntity
8
0
100
AcDbCircle
10
-383.68530440349701
20
70.026253142009722
30
0
40
1.4999999999999858
210
0
220
-0
230
1
0
CIRCLE
5
103
100
AcDbEntity
8
0
100
AcDbCircle
10
-308.83066603045188
20
249.92828108356147
30
0
40
1.4999999999999858
210
0
220
-0
230
1
0
CIRCLE
5
104
100
AcDbEntity
8
0
100
AcDbCircle
10
-276.96354249575506
20
208.56879125015911
30
0
40
1.4999999999999858
210
0
220
-0
230
1
0
CIRCLE
5
105
100
AcDbEntity
8
0
100
AcDbCircle
10
-369.92340577207864
20
169.90093051143185
30
0
40
2.4999999999999289
210
0
220
-0
230
1
0
CIRCLE
5
106
100
AcDbEntity
8
0
100
AcDbCircle
10
-197.99999999999966
20
-163.92653341313999
30
0
40
3.0000000000000071
210
0
220
-0
230
1
0
CIRCLE
5
107
100
AcDbEntity
8
0
100
AcDbCircle
10
-404.88253258937362
20
293.74919887082592
30
0
40
2.9999999999999716
210
0
220
-0
230
1
0
CIRCLE
5
108
100
AcDbEntity
8
0
100
AcDbCircle
10
-294.89999999999964
20
232.20000000000081
30
0
40
3.9999999999999858
210
-1.7060776564390129e-63
220
-4.9303806576313238e-32
230
1
0
CIRCLE
5
109
100
AcDbEntity
8
0
100
AcDbCircle
10
-422.15340611443469
20
288.67801284768018
30
0
40
2.9999999999999716
210
0
220
-0
230
1
0
CIRCLE
5
110
100
AcDbEntity
8
0
100
AcDbCircle
10
-504.84428756544116
20
-204.247986494191
30
0
40
2.9999999999999716
210
0
220
-0
230
1
0
CIRCLE
5
111
100
AcDbEntity
8
0
100
AcDbCircle
10
-197.99999999999966
20
-181.92653341313996
30
0
40
3.0000000000000071
210
0
220
-0
230
1
0
CIRCLE
5
112
100
AcDbEntity
8
0
100
AcDbCircle
10
-301.48941685733223
20
278.8835130800482
30
0
40
3.0000000000000071
210
0
220
-0
230
1
0
CIRCLE
5
113
100
AcDbEntity
8
0
100
AcDbCircle
10
-286.34685326637089
20
269.15197836584741
30
0
40
3.0000000000000071
210
0
220
-0
230
1
0
CIRCLE
5
114
100
AcDbEntity
8
0
100
AcDbCircle
10
-445.09999999999962
20
232.20000000000081
30
0
40
3.9999999999999858
210
-1.7060776564390129e-63
220
-4.9303806576313238e-32
230
1
0
CIRCLE
5
115
100
AcDbEntity
8
0
100
AcDbCircle
10
-504.8580629897815
20
-186.24799176536723
30
0
40
2.9999999999999716
210
0
220
-0
230
1
0
CIRCLE
5
116
100
AcDbEntity
8
0
100
AcDbCircle
10
-369.99999999999955
20
-117.00000174343522
30
0
40
4
210
0
220
-0
230
1
0
LWPOLYLINE
5
117
100
AcDbEntity
8
0
100
AcDbPolyline
90
45
70
1
43
0.0
10
-174.29999999999964
20
-215.89999999999918
10
-196.9999999999996
20
-215.89999999999932
10
-196.9999999999996
20
-317.59999999999928
10
-335.07650005079341
20
-317.5999999999994
42
0.26576310485442783
10
-340.50656502610821
20
-320.70556822519859
42
-0.26413357978838659
10
-345.98384218731451
20
-323.86031248088022
10
-352.46999999999957
20
-323.86031248088022
10
-352.46999999999957
20
-327.1099999999991
10
-451.09999999999951
20
-327.1099999999991
10
-451.09999999999951
20
-324.0999999999994
10
-493.87588022138635
20
-324.09999999999917
42
-0.42489296999733889
10
-531.95074830216731
20
-284.61637410000924
42
-0.012211115448530764
10
-531.99999999999943
20
-282.59999999999928
10
-531.99999999999943
20
-232.5999999999994
10
-535.09999999999957
20
-232.5999999999994
10
-535.09999999999957
20
-151.5999999999994
10
-516.49628246099951
20
128.3928669734899
10
-522.39999999999964
20
170.40000000000072
10
-516.22672917884904
20
213.33604166263456
10
-498.2070384034717
20
252.79366058023379
10
-469.8007758532612
20
285.57623513158967
10
-433.30924798148715
20
309.02791609202944
10
-391.68878135284831
20
321.24878774265477
10
-391.68878135284831
20
332.20000000000073
10
-348.31121864715107
20
332.20000000000073
10
-348.31121864715107
20
321.24878774265477
10
-306.69075201851228
20
309.02791609202927
10
-270.19922414673823
20
285.57623513158967
10
-266.21041425298677
20
280.97290312048978
10
-256.02999356161837
20
289.794287864924
10
-235.20542222215829
20
265.76145140045861
10
-245.38584291352669
20
256.94006665602438
10
-241.79296159652779
20
252.79366058023385
10
-223.77327082115031
20
213.33604166263456
10
-217.59999999999962
20
170.40000000000072
10
-223.96406208717224
20
127.36849563519264
10
-223.96406208717224
20
37.344956553431672
42
-0.19018549475686389
10
-247.69999999999968
20
-22.799999999999336
10
-247.69999999999968
20
-62.899999999999295
42
0.41421356237309354
10
-228.69999999999962
20
-81.899999999999267
10
-184.99999724328489
20
-81.899999999999267
10
-184.99999724328492
20
-78.50000119209227
42
-0.41421356237306384
10
-183.99999724328495
20
-77.500001192092256
10
-175.29999999999961
20
-77.500001192092256
42
-0.41421356237312623
10
-174.29999999999964
20
-78.50000119209227
0
CIRCLE
5
118
100
AcDbEntity
8
0
100
AcDbCircle
10
-463.04157317234342
20
131.84522653436278
30
0
40
1.4999999999999858
210
0
220
0
230
1
0
CIRCLE
5
119
100
AcDbEntity
8
0
100
AcDbCircle
10
-431.67047557369642
20
90.383246096983498
30
0
40
1.4999999999999858
210
0
220
0
230
1
0
CIRCLE
5
120
100
AcDbEntity
8
0
100
AcDbCircle
10
-383.68530440349701
20
70.026253142009722
30
0
40
1.4999999999999858
210
0
220
0
230
1
0
CIRCLE
5
121
100
AcDbEntity
8
0
100
AcDbCircle
10
-308.83066603045188
20
249.92828108356147
30
0
40
1.4999999999999858
210
0
220
0
230
1
0
CIRCLE
5
122
100
AcDbEntity
8
0
100
AcDbCircle
10
-276.96354249575506
20
208.56879125015911
30
0
40
1.4999999999999858
210
0
220
0
230
1
0
CIRCLE
5
123
100
AcDbEntity
8
0
100
AcDbCircle
10
-369.92340577207864
20
169.90093051143185
30
0
40
2.4999999999999289
210
0
220
0
230
1
0
CIRCLE
5
124
100
AcDbEntity
8
0
100
AcDbCircle
10
-197.99999999999966
20
-163.92653341313999
30
0
40
3.0000000000000071
210
0
220
0
230
1
0
CIRCLE
5
125
100
AcDbEntity
8
0
100
AcDbCircle
10
-404.88253258937362
20
293.74919887082592
30
0
40
2.9999999999999716
210
0
220
0
230
1
0
CIRCLE
5
126
100
AcDbEntity
8
0
100
AcDbCircle
10
-294.89999999999964
20
232.20000000000081
30
0
40
3.9999999999999858
210
0
220
0
230
1
0
CIRCLE
5
127
100
AcDbEntity
8
0
100
AcDbCircle
10
-422.15340611443469
20
288.67801284768018
30
0
40
2.9999999999999716
210
0
220
0
230
1
0
CIRCLE
5
128
100
AcDbEntity
8
0
100
AcDbCircle
10
-504.84428756544116
20
-204.247986494191
30
0
40
2.9999999999999716
210
0
220
0
230
1
0
CIRCLE
5
129
100
AcDbEntity
8
0
100
AcDbCircle
10
-197.99999999999966
20
-181.92653341313996
30
0
40
3.0000000000000071
210
0
220
0
230
1
0
CIRCLE
5
130
100
AcDbEntity
8
0
100
AcDbCircle
10
-301.48941685733223
20
278.8835130800482
30
0
40
3.0000000000000071
210
0
220
0
230
1
0
CIRCLE
5
131
100
AcDbEntity
8
0
100
AcDbCircle
10
-286.34685326637089
20
269.15197836584741
30
0
40
3.0000000000000071
210
0
220
0
230
1
0
CIRCLE
5
132
100
AcDbEntity
8
0
100
AcDbCircle
10
-445.09999999999962
20
232.20000000000081
30
0
40
3.9999999999999858
210
0
220
0
230
1
0
CIRCLE
5
133
100
AcDbEntity
8
0
100
AcDbCircle
10
-504.8580629897815
20
-186.24799176536723
30
0
40
2.9999999999999716
210
0
220
0
230
1
0
CIRCLE
5
134
100
AcDbEntity
8
0
100
AcDbCircle
10
-369.99999999999955
20
-117.00000174343522
30
0
40
4
210
0
220
-0
230
1
0
LWPOLYLINE
5
135
100
AcDbEntity
8
0
100
AcDbPolyline
90
45
70
1
43
0.0
10
-196.99999999999955
20
-317.59999999999928
10
-196.9999999999996
20
-215.89999999999932
10
-174.29999999999964
20
-215.89999999999918
10
-174.29999999999964
20
-78.50000119209227
42
0.41421356237313667
10
-175.29999999999967
20
-77.500001192092256
10
-183.99999724328492
20
-77.500001192092256
42
0.41421356237307422
10
-184.99999724328489
20
-78.50000119209227
10
-184.99999724328489
20
-81.899999999999267
10
-228.6999999999997
20
-81.899999999999196
42
-0.41421356237309287
10
-247.69999999999959
20
-62.899999999999281
10
-247.69999999999965
20
-22.799999999999354
42
0.19018549475686386
10
-223.96406208717224
20
37.344956553431672
10
-223.96406208717224
20
127.36849563519264
10
-217.59999999999962
20
170.40000000000072
10
-223.77327082115031
20
213.33604166263456
10
-241.79296159652779
20
252.79366058023385
10
-245.38584291352669
20
256.94006665602438
10
-235.20542222215829
20
265.76145140045861
10
-256.02999356161837
20
289.79428786492394
10
-266.21041425298677
20
280.97290312048978
10
-270.19922414673823
20
285.57623513158967
10
-306.69075201851228
20
309.02791609202927
10
-348.31121864715107
20
321.24878774265477
10
-348.31121864715107
20
332.20000000000073
10
-391.68878135284831
20
332.20000000000073
10
-391.68878135284831
20
321.24878774265477
10
-433.30924798148715
20
309.02791609202944
10
-469.8007758532612
20
285.57623513158967
10
-498.2070384034717
20
252.79366058023379
10
-516.22672917884904
20
213.33604166263456
10
-522.39999999999964
20
170.40000000000072
10
-516.49628246099951
20
128.3928669734899
10
-535.09999999999957
20
-151.5999999999994
10
-535.09999999999957
20
-232.5999999999994
10
-531.99999999999943
20
-232.5999999999994
10
-531.99999999999943
20
-282.59999999999928
42
0.012211115448531873
10
-531.95074830216743
20
-284.61637410000941
42
0.42489296999733889
10
-493.87588022138635
20
-324.09999999999923
10
-451.09999999999951
20
-324.0999999999994
10
-451.09999999999951
20
-327.1099999999991
10
-352.46999999999957
20
-327.1099999999991
10
-352.46999999999957
20
-323.86031248088022
10
-345.98384218731451
20
-323.86031248088022
42
0.26413357978838664
10
-340.50656502610826
20
-320.70556822519859
42
-0.26576310485443388
10
-335.07650005079324
20
-317.5999999999994
0
ENDSEC
0
SECTION
2
OBJECTS
0
DICTIONARY
5
C
100
AcDbDictionary
3
ACAD_GROUP
350
D
3
ACAD_MLINESTYLE
350
17
0
DICTIONARY
5
D
100
AcDbDictionary
0
DICTIONARY
5
1A
330
C
100
AcDbDictionary
0
DICTIONARY
5
17
100
AcDbDictionary
0
ENDSEC
0
EOF
