0
SECTION
2
HEADER
9
$INSUNITS
70
4
9
$ACADVER
1
AC1014
9
$HANDSEED
5
FFFF
0
ENDSEC
0
SECTION
2
TABLES
0
TABLE
2
VPORT
5
8
100
AcDbSymbolTable
0
ENDTAB
0
TABLE
2
LTYPE
5
5
100
AcDbSymbolTable
0
LTYPE
5
14
100
AcDbSymbolTableRecord
100
AcDbLinetypeTableRecord
2
BYBLOCK
70
0
0
LTYPE
5
15
100
AcDbSymbolTableRecord
100
AcDbLinetypeTableRecord
2
BYLAYER
70
0
0
ENDTAB
0
TABLE
2
LAYER
5
2
100
AcDbSymbolTable
70
2
0
LAYER
5
50
100
AcDbSymbolTableRecord
100
AcDbLayerTableRecord
2
0
70
0
6
CONTINUOUS
0
ENDTAB
0
TABLE
2
STYLE
5
3
100
AcDbSymbolTable
70
1
0
STYLE
5
11
100
AcDbSymbolTableRecord
100
AcDbTextStyleTableRecord
2
STANDARD
70
0
0
ENDTAB
0
TABLE
2
VIEW
5
6
100
AcDbSymbolTable
70
0
0
ENDTAB
0
TABLE
2
UCS
5
7
100
AcDbSymbolTable
70
0
0
ENDTAB
0
TABLE
2
APPID
5
9
100
AcDbSymbolTable
70
2
0
APPID
5
12
100
AcDbSymbolTableRecord
100
AcDbRegAppTableRecord
2
ACAD
70
0
0
ENDTAB
0
TABLE
2
DIMSTYLE
5
A
100
AcDbSymbolTable
70
1
0
ENDTAB
0
TABLE
2
BLOCK_RECORD
5
1
100
AcDbSymbolTable
70
1
0
BLOCK_RECORD
5
1F
100
AcDbSymbolTableRecord
100
AcDbBlockTableRecord
2
*MODEL_SPACE
0
BLOCK_RECORD
5
1B
100
AcDbSymbolTableRecord
100
AcDbBlockTableRecord
2
*PAPER_SPACE
0
ENDTAB
0
ENDSEC
0
SECTION
2
BLOCKS
0
BLOCK
5
20
100
AcDbEntity
100
AcDbBlockBegin
2
*MODEL_SPACE
0
ENDBLK
5
21
100
AcDbEntity
100
AcDbBlockEnd
0
BLOCK
5
1C
100
AcDbEntity
100
AcDbBlockBegin
2
*PAPER_SPACE
0
ENDBLK
5
1D
100
AcDbEntity
100
AcDbBlockEnd
0
ENDSEC
0
SECTION
2
ENTITIES
0
CIRCLE
5
100
100
AcDbEntity
8
0
100
AcDbCircle
10
-463.04157317234342
20
131.84522653436278
30
0
40
1.4999999999999858
210
-7.7037197775489434e-34
220
-2.3152727801644669e-66
230
1
0
CIRCLE
5
101
100
AcDbEntity
8
0
100
AcDbCircle
10
-431.67047557369642
20
90.383246096983498
30
0
40
1.4999999999999858
210
-7.7037197775489434e-34
220
-2.3152727801669364e-66
230
1
0
CIRCLE
5
102
100
AcDbEntity
8
0
100
AcDbCircle
10
-383.68530440349701
20
70.026253142009722
30
0
40
1.4999999999999858
210
-7.7037197775489434e-34
220
-3.6964120601279081e-66
230
1
0
CIRCLE
5
103
100
AcDbEntity
8
0
100
AcDbCircle
10
-308.83066603045188
20
249.92828108356147
30
0
40
1.4999999999999858
210
-7.7037197775489434e-34
220
7.4684679682720627e-67
230
1
0
CIRCLE
5
104
100
AcDbEntity
8
0
100
AcDbCircle
10
-276.96354249575506
20
208.56879125015911
30
0
40
1.4999999999999858
210
-7.7037197775489434e-34
220
7.4684679682716581e-67
230
1
0
CIRCLE
5
105
100
AcDbEntity
8
0
100
AcDbCircle
10
-369.92340577207864
20
169.90093051143185
30
0
40
2.4999999999999289
210
0
220
-0
230
1
0
ARC
5
106
100
AcDbEntity
8
0
100
AcDbCircle
10
-184.99999724328487
20
-78.000001192092242
30
0
40
0.99999999999999645
210
0
220
-0
230
1
100
AcDbArc
50
89.99999999999838
51
180
0
LINE
5
107
100
AcDbEntity
8
0
100
AcDbLine
10
-185.99999724328484
20
-78.000001192092242
30
0
11
-185.99999724328484
21
-80.899999999999324
31
0
0
ARC
5
108
100
AcDbEntity
8
0
100
AcDbCircle
10
-186.99999724328484
20
-80.899999999999324
30
0
40
0.99999999999999645
210
-0
220
0
230
1
100
AcDbArc
50
-90
51
0
0
LINE
5
109
100
AcDbEntity
8
0
100
AcDbLine
10
-186.99999724328484
20
-81.899999999999324
30
0
11
-228.69999999999962
21
-81.899999999999324
31
0
0
ARC
5
110
100
AcDbEntity
8
0
100
AcDbCircle
10
-228.69999999999962
20
-62.899999999999288
30
0
40
19.000000000000021
210
-4.5284811682096657e-48
220
2.4651903288156619e-32
230
1
100
AcDbArc
50
180
51
270
0
LINE
5
111
100
AcDbEntity
8
0
100
AcDbLine
10
-247.69999999999965
20
-62.899999999999288
30
-8.6041142195983751e-47
11
-247.69999999999968
21
-22.799999999999301
31
0
0
LINE
5
112
100
AcDbEntity
8
0
100
AcDbLine
10
-247.69999999999968
20
-22.799999999999301
30
0
11
-247.04397392532906
21
-21.660875225989614
31
-4.7454913829701491e-30
0
SPLINE
5
113
100
AcDbEntity
8
0
100
AcDbSpline
70
0
71
3
72
12
73
8
74
0
42
0.000000001
43
0.0000000001
44
0.0000000001
40
0
40
0
40
0
40
0
40
1.422936454681772
40
1.422936454681772
40
2.0105982976943881
40
2.0105982976943881
40
2.6033960054276788
40
2.6033960054276788
40
2.6033960054276788
40
2.6033960054276788
10
-225.51914826241529
20
15.71486807990691
30
0
10
-226.21347322790308
20
11.022841379843911
30
0
10
-227.5257532552142
20
5.0307703700786099
30
0
10
-233.07990236962979
20
-5.9935410719070559
30
0
10
-235.04273286629129
20
-9.2896250591633702
30
0
10
-239.36819936396012
20
-15.096129794284085
30
0
10
-242.5022039964432
20
-18.63085908062326
30
0
10
-247.04397392532906
20
-21.660875225989592
30
0
0
SPLINE
5
114
100
AcDbEntity
8
0
100
AcDbSpline
70
4
71
3
72
8
73
4
74
0
42
0.000000001
43
0.0000000001
44
0.0000000001
40
6.7735638816864441
40
6.7735638816864441
40
6.7735638816864441
40
6.7735638816864441
40
7.0247944686733756
40
7.0247944686733756
40
7.0247944686733756
40
7.0247944686733756
41
1
41
1
41
1
41
1
10
-225.51914826241529
20
15.71486807990691
30
0
10
-225.45323415327113
20
16.160294609828501
30
0
10
-225.3913304940591
20
16.607256273372556
30
0
10
-225.3329079642387
20
17.056463054046379
30
0
0
SPLINE
5
115
100
AcDbEntity
8
0
100
AcDbSpline
70
4
71
3
72
10
73
6
74
0
42
0.000000001
43
0.0000000001
44
0.0000000001
40
-2.8581327411771191
40
-2.8581327411771191
40
-2.8581327411771191
40
-2.8581327411771191
40
-1.4914250833507714
40
-1.4914250833507714
40
0
40
0
40
0
40
0
41
1
41
1
41
1
41
1
41
1
41
1
10
-225.33290796423856
20
17.0564630540478
30
0
10
-224.8606040936258
20
20.687974764852925
30
0
10
-224.57824927382987
20
24.795126645936989
30
0
10
-224.19438054563363
20
34.357536552375443
30
0
10
-224.11835148636266
20
39.847539871821418
30
0
10
-224.10198469338098
20
44.81892987504736
30
0
0
LINE
5
116
100
AcDbEntity
8
0
100
AcDbLine
10
-224.10198469338098
20
44.81892987504736
30
0
11
-223.82818721745787
21
120.66911273800272
31
0
0
ARC
5
117
100
AcDbEntity
8
0
100
AcDbCircle
10
-369.99999999999966
20
170.40000000000077
30
-1.313717310304516e-45
40
154.40000000000003
210
-2.0911986854939395e-33
220
-6.1465684522523662e-33
230
1
100
AcDbArc
50
-18.789441383029526
51
31.0205724060744
0
ARC
5
118
100
AcDbEntity
8
0
100
AcDbCircle
10
-234.25400085610491
20
252.03077677215785
30
0
40
3.9999999999999969
210
0
220
0
230
1
100
AcDbArc
50
130.90909090909102
51
211.02057240607428
0
LINE
5
119
100
AcDbEntity
8
0
100
AcDbLine
10
-236.87344379188605
20
255.05377506957487
30
0
11
-230.62139708454129
21
260.47120437997876
31
0
0
ARC
5
120
100
AcDbEntity
8
0
100
AcDbCircle
10
-231.93111855243188
20
261.98270352868735
30
-4.7040658897622643e-47
40
2.0000000000000506
210
-9.3153327085234727e-33
220
-8.0717817402151455e-33
230
1
100
AcDbArc
50
-49.090909090909982
51
40.909090909089329
0
LINE
5
121
100
AcDbEntity
8
0
100
AcDbLine
10
-230.41961940372332
20
263.29242499657789
30
2.4651903288156624e-32
11
-254.51849441290983
21
291.1040093328146
31
9.8607613152626476e-31
0
ARC
5
122
100
AcDbEntity
8
0
100
AcDbCircle
10
-256.02999356161837
20
289.79428786492394
30
-4.2353698702004969e-45
40
2.0000000000000466
210
-3.5646974486049044e-31
220
-3.415019350256555e-31
230
1
100
AcDbArc
50
40.909090909092328
51
130.9090909090888
0
LINE
5
123
100
AcDbEntity
8
0
100
AcDbLine
10
-257.33971502950891
20
291.30578701363254
30
4.9303806576313446e-32
11
-262.93130684994298
21
286.46064512045893
31
7.3955709864469857e-31
0
ARC
5
124
100
AcDbEntity
8
0
100
AcDbCircle
10
-265.55074978572412
20
289.48364341787601
30
0
40
3.9999999999999956
210
-9.2665355452613649e-33
220
8.1277550972309942e-33
230
1
100
AcDbArc
50
228.74573094428268
51
310.90909090909048
0
ARC
5
125
100
AcDbEntity
8
0
100
AcDbCircle
10
-369.99999999999966
20
170.40000000000077
30
-1.313717310304516e-45
40
154.40000000000001
210
7.7243513292369207e-33
220
-6.7750925448199222e-33
230
1
100
AcDbArc
50
48.745730944282428
51
80.299976650293971
0
ARC
5
126
100
AcDbEntity
8
0
100
AcDbCircle
10
-343.31121864715101
20
326.53541862722921
30
0
40
3.9999999999999858
210
-6.1629758220391766e-33
220
-1.1596417737553576e-80
230
1
100
AcDbArc
50
180
51
260.29997665029344
0
LINE
5
127
100
AcDbEntity
8
0
100
AcDbLine
10
-347.31121864715101
20
326.53541862722921
30
-2.4651903288156619e-32
11
-347.31121864715101
21
331.20000000000067
31
0
0
ARC
5
128
100
AcDbEntity
8
0
100
AcDbCircle
10
-349.31121864715118
20
331.20000000000056
30
0
40
2.0000000000001705
210
0
220
-0
230
1
100
AcDbArc
50
0
51
89.999999999995111
0
LINE
5
129
100
AcDbEntity
8
0
100
AcDbLine
10
-349.31121864715101
20
333.20000000000073
30
0
11
-390.6887813528482
21
333.20000000000073
31
0
0
ARC
5
130
100
AcDbEntity
8
0
100
AcDbCircle
10
-390.68878135284814
20
331.20000000000061
30
0
40
2.0000000000000995
210
0
220
0
230
1
100
AcDbArc
50
90.000000000001634
51
180
0
LINE
5
131
100
AcDbEntity
8
0
100
AcDbLine
10
-392.6887813528482
20
331.20000000000067
30
0
11
-392.68878135284831
21
326.53541862722921
31
0
0
ARC
5
132
100
AcDbEntity
8
0
100
AcDbCircle
10
-396.68878135284831
20
326.53541862722921
30
0
40
4.000000000000024
210
4.1535937928610152e-33
220
-2.4299464898069815e-32
230
1
100
AcDbArc
50
-80.299976650293459
51
0
0
ARC
5
133
100
AcDbEntity
8
0
100
AcDbCircle
10
-369.99999999999966
20
170.40000000000077
30
-1.313717310304516e-45
40
154.40000000000003
210
-1.0760605680986897e-34
220
6.2951981601216661e-34
230
1
100
AcDbArc
50
99.700023349706029
51
197.96785178922735
0
LINE
5
134
100
AcDbEntity
8
0
100
AcDbLine
10
-516.86987395286064
20
122.77017609658114
30
0
11
-537.92412786994316
21
-170.1000025331966
31
0
0
LINE
5
135
100
AcDbEntity
8
0
100
AcDbLine
10
-537.92412786994316
20
-170.1000025331966
30
0
11
-532.92412779543736
21
-285.10000424683017
31
0
0
ARC
5
136
100
AcDbEntity
8
0
100
AcDbCircle
10
-485.78588724955182
20
-283.05051552744379
30
0
40
47.182773612544878
210
-1.0708102519654891e-33
220
2.4628635795206213e-32
230
1
100
AcDbArc
50
182.48955292199912
51
243.79954709782325
0
ARC
5
137
100
AcDbEntity
8
0
100
AcDbCircle
10
-490.61284832727449
20
-292.85999999999933
30
0
40
36.249999999999993
210
1.2427471826567341e-32
220
2.5255453680464929e-32
230
1
100
AcDbArc
50
243.79954709782314
51
270
0
LINE
5
138
100
AcDbEntity
8
0
100
AcDbLine
10
-490.61284832727449
20
-329.10999999999933
30
0
11
-349.70640866682731
21
-329.10999999999933
31
0
0
ARC
5
139
100
AcDbEntity
8
0
100
AcDbCircle
10
-349.70640866682686
20
-323.61000000000081
30
-5.2702643659481951e-45
40
5.4999999999984794
210
1.0814976099960885e-32
220
1.1992049869101721e-46
230
1
100
AcDbArc
50
269.99999999999528
51
298.66789655138507
0
LINE
5
140
100
AcDbEntity
8
0
100
AcDbLine
10
-347.06788295531504
20
-328.4357830524882
30
3.8316754883881717e-46
11
-332.14062747346708
21
-320.27421694751035
31
0
0
ARC
5
141
100
AcDbEntity
8
0
100
AcDbCircle
10
-329.50210176195475
20
-325.09999999999928
30
0
40
5.5000000000000071
210
7.7037197775489434e-34
220
1.415150365065519e-49
230
1
100
AcDbArc
50
90
51
118.66789655138207
0
LINE
5
142
100
AcDbEntity
8
0
100
AcDbLine
10
-329.50210176195475
20
-319.59999999999928
30
-7.7833270078603637e-49
11
-197.24999999999963
21
-319.59999999999928
31
0
0
ARC
5
143
100
AcDbEntity
8
0
100
AcDbCircle
10
-197.24999999999966
20
-317.34999999999928
30
-3.8487811825327617e-47
40
2.2500000000000142
210
-7.7037197775489306e-34
220
4.9416449751037801e-48
230
1
100
AcDbArc
50
-89.999999999999304
51
0
0
LINE
5
144
100
AcDbEntity
8
0
100
AcDbLine
10
-194.99999999999966
20
-317.34999999999928
30
1.7333369499484818e-33
11
-194.9999999999996
21
-220.39999999999921
31
0
0
ARC
5
145
100
AcDbEntity
8
0
100
AcDbCircle
10
-192.4999999999996
20
-220.39999999999921
30
0
40
2.5
210
0
220
-0
230
1
100
AcDbArc
50
90
51
180
0
LINE
5
146
100
AcDbEntity
8
0
100
AcDbLine
10
-192.4999999999996
20
-217.89999999999921
30
0
11
-174.79999999999961
21
-217.89999999999921
31
0
0
ARC
5
147
100
AcDbEntity
8
0
100
AcDbCircle
10
-174.79999999999959
20
-215.39999999999924
30
0
40
2.4999999999999645
210
0
220
0
230
1
100
AcDbArc
50
-90.000000000000654
51
0
0
LINE
5
148
100
AcDbEntity
8
0
100
AcDbLine
10
-172.29999999999961
20
-215.39999999999921
30
0
11
-172.29999999999964
21
-79.250001192092213
31
0
0
ARC
5
149
100
AcDbEntity
8
0
100
AcDbCircle
10
-174.54999999999967
20
-79.250001192092242
30
0
40
2.2500000000000142
210
0
220
-0
230
1
100
AcDbArc
50
0
51
90.000000000000725
0
LINE
5
150
100
AcDbEntity
8
0
100
AcDbLine
10
-174.5499999999997
20
-77.000001192092228
30
0
11
-184.99999724328484
21
-77.000001192092242
31
0
0
CIRCLE
5
151
100
AcDbEntity
8
0
100
AcDbCircle
10
-404.88253258937362
20
293.74919887082592
30
0
40
2.9999999999999716
210
-7.7037197775489434e-34
220
-2.3152727801713019e-66
230
1
0
CIRCLE
5
152
100
AcDbEntity
8
0
100
AcDbCircle
10
-504.84428756544116
20
-204.247986494191
30
0
40
2.9999999999999716
210
-7.7037197775489434e-34
220
-2.3152727801713019e-66
230
1
0
CIRCLE
5
153
100
AcDbEntity
8
0
100
AcDbCircle
10
-197.99999999999966
20
-181.92653341313996
30
0
40
3.0000000000000071
210
7.7037197775489434e-34
220
2.3152727801713014e-66
230
1
0
CIRCLE
5
154
100
AcDbEntity
8
0
100
AcDbCircle
10
-301.48941685733223
20
278.8835130800482
30
0
40
3.0000000000000071
210
7.7037197775489434e-34
220
2.3152727801713014e-66
230
1
0
CIRCLE
5
155
100
AcDbEntity
8
0
100
AcDbCircle
10
-422.15340611443469
20
288.67801284768018
30
0
40
2.9999999999999716
210
-7.7037197775489434e-34
220
-2.3152727801713019e-66
230
1
0
CIRCLE
5
156
100
AcDbEntity
8
0
100
AcDbCircle
10
-504.8580629897815
20
-186.24799176536723
30
0
40
2.9999999999999716
210
-7.7037197775489434e-34
220
-2.3152727801713019e-66
230
1
0
CIRCLE
5
157
100
AcDbEntity
8
0
100
AcDbCircle
10
-197.99999999999966
20
-163.92653341313999
30
0
40
3.0000000000000071
210
7.7037197775489434e-34
220
2.3152727801713014e-66
230
1
0
CIRCLE
5
158
100
AcDbEntity
8
0
100
AcDbCircle
10
-286.34685326637089
20
269.15197836584741
30
0
40
3.0000000000000071
210
7.7037197775489434e-34
220
2.3152727801713014e-66
230
1
0
CIRCLE
5
159
100
AcDbEntity
8
0
100
AcDbCircle
10
-369.99999999999966
20
-117.00000174343522
30
0
40
4
210
-7.7037197775489434e-34
220
-2.1382117680737622e-50
230
1
0
CIRCLE
5
160
100
AcDbEntity
8
0
100
AcDbCircle
10
-445.09999999999962
20
232.20000000000081
30
0
40
4.0000000000000036
210
-6.8422776578360376e-49
220
2.4651903288156619e-32
230
1
0
CIRCLE
5
161
100
AcDbEntity
8
0
100
AcDbCircle
10
-294.89999999999964
20
232.20000000000081
30
0
40
4.0000000000000036
210
-6.8422776578360376e-49
220
2.4651903288156619e-32
230
1
0
ENDSEC
0
SECTION
2
OBJECTS
0
DICTIONARY
5
C
100
AcDbDictionary
3
ACAD_GROUP
350
D
3
ACAD_MLINESTYLE
350
17
0
DICTIONARY
5
D
100
AcDbDictionary
0
DICTIONARY
5
1A
330
C
100
AcDbDictionary
0
DICTIONARY
5
17
100
AcDbDictionary
0
ENDSEC
0
EOF
