0
SECTION
2
HEADER
9
$INSUNITS
70
4
9
$ACADVER
1
AC1014
9
$HANDSEED
5
FFFF
0
ENDSEC
0
SECTION
2
TABLES
0
TABLE
2
VPORT
5
8
100
AcDbSymbolTable
0
ENDTAB
0
TABLE
2
LTYPE
5
5
100
AcDbSymbolTable
0
LTYPE
5
14
100
AcDbSymbolTableRecord
100
AcDbLinetypeTableRecord
2
BYBLOCK
70
0
0
LTYPE
5
15
100
AcDbSymbolTableRecord
100
AcDbLinetypeTableRecord
2
BYLAYER
70
0
0
ENDTAB
0
TABLE
2
LAYER
5
2
100
AcDbSymbolTable
70
2
0
LAYER
5
50
100
AcDbSymbolTableRecord
100
AcDbLayerTableRecord
2
0
70
0
6
CONTINUOUS
0
ENDTAB
0
TABLE
2
STYLE
5
3
100
AcDbSymbolTable
70
1
0
STYLE
5
11
100
AcDbSymbolTableRecord
100
AcDbTextStyleTableRecord
2
STANDARD
70
0
0
ENDTAB
0
TABLE
2
VIEW
5
6
100
AcDbSymbolTable
70
0
0
ENDTAB
0
TABLE
2
UCS
5
7
100
AcDbSymbolTable
70
0
0
ENDTAB
0
TABLE
2
APPID
5
9
100
AcDbSymbolTable
70
2
0
APPID
5
12
100
AcDbSymbolTableRecord
100
AcDbRegAppTableRecord
2
ACAD
70
0
0
ENDTAB
0
TABLE
2
DIMSTYLE
5
A
100
AcDbSymbolTable
70
1
0
ENDTAB
0
TABLE
2
BLOCK_RECORD
5
1
100
AcDbSymbolTable
70
1
0
BLOCK_RECORD
5
1F
100
AcDbSymbolTableRecord
100
AcDbBlockTableRecord
2
*MODEL_SPACE
0
BLOCK_RECORD
5
1B
100
AcDbSymbolTableRecord
100
AcDbBlockTableRecord
2
*PAPER_SPACE
0
ENDTAB
0
ENDSEC
0
SECTION
2
BLOCKS
0
BLOCK
5
20
100
AcDbEntity
100
AcDbBlockBegin
2
*MODEL_SPACE
0
ENDBLK
5
21
100
AcDbEntity
100
AcDbBlockEnd
0
BLOCK
5
1C
100
AcDbEntity
100
AcDbBlockBegin
2
*PAPER_SPACE
0
ENDBLK
5
1D
100
AcDbEntity
100
AcDbBlockEnd
0
ENDSEC
0
SECTION
2
ENTITIES
0
CIRCLE
5
100
100
AcDbEntity
8
0
100
AcDbCircle
10
-336.58678784276555
20
176.29666792757484
30
0
40
1.5000000000000036
210
0
220
-0
230
1
0
CIRCLE
5
101
100
AcDbEntity
8
0
100
AcDbCircle
10
-403.26178784276533
20
176.29666792757484
30
0
40
1.5000000000000036
210
0
220
-0
230
1
0
CIRCLE
5
102
100
AcDbEntity
8
0
100
AcDbCircle
10
-403.26178784276533
20
102.97167494155161
30
0
40
1.5000000000000036
210
0
220
-0
230
1
0
CIRCLE
5
103
100
AcDbEntity
8
0
100
AcDbCircle
10
-336.58678784276555
20
102.97167494155158
30
0
40
1.5000000000000036
210
0
220
-0
230
1
0
ARC
5
104
100
AcDbEntity
8
0
100
AcDbCircle
10
-369.92411977861263
20
139.63417143456331
30
1.3684555315672042e-47
40
70.00000360255666
210
7.7019502962667754e-34
220
-1.651061623164348e-35
230
1
100
AcDbArc
50
-88.771942529300844
51
88.771942529300773
0
ARC
5
105
100
AcDbEntity
8
0
100
AcDbCircle
10
-367.42428784276564
20
69.678828536397106
30
-2.3841061214022385e-47
40
0.99999999999997868
210
-7.700573957325482e-34
220
-2.2013436524721733e-35
230
1
100
AcDbArc
50
90
51
181.63786683849591
0
LINE
5
106
100
AcDbEntity
8
0
100
AcDbLine
10
-367.42428784276564
20
70.678828536397091
30
2.2013436524697425e-35
11
-367.42428784276564
21
95.621674941551589
31
2.4651903288156619e-31
0
ARC
5
107
100
AcDbEntity
8
0
100
AcDbCircle
10
-367.42428784276564
20
96.621674941551561
30
0
40
0.99999999999994316
210
0
220
0
230
1
100
AcDbArc
50
180
51
270
0
LINE
5
108
100
AcDbEntity
8
0
100
AcDbLine
10
-368.42428784276558
20
96.621674941551561
30
0
11
-323.88678784276544
21
96.621674941551561
31
0
0
LINE
5
109
100
AcDbEntity
8
0
100
AcDbLine
10
-323.88678784276544
20
96.621674941551561
30
0
11
-323.88678784276556
21
118.84667494155153
31
1.8488927466117464e-31
0
ARC
5
110
100
AcDbEntity
8
0
100
AcDbCircle
10
-369.92428784276547
20
237.20861389893003
30
2.0253141867194622e-45
40
127.00000000000067
210
9.8241920877978094e-34
220
-2.9242579449456816e-33
230
1
100
AcDbArc
50
248.7461908146405
51
291.2538091853595
0
LINE
5
111
100
AcDbEntity
8
0
100
AcDbLine
10
-415.96178784276532
20
118.84667494155156
30
-3.0089271605108869e-31
11
-415.96178784276549
21
96.621674941551589
31
6.1629758220391547e-32
0
LINE
5
112
100
AcDbEntity
8
0
100
AcDbLine
10
-415.96178784276549
20
96.621674941551589
30
6.1629758220391547e-32
11
-371.42428784276552
21
96.621674941551561
31
0
0
ARC
5
113
100
AcDbEntity
8
0
100
AcDbCircle
10
-372.42428784276541
20
96.621674941551547
30
-1.4860571788112608e-47
40
0.99999999999992539
210
7.7037197775488818e-34
220
-3.9877649474578097e-47
230
1
100
AcDbArc
50
-90.000000000003254
51
0
0
LINE
5
114
100
AcDbEntity
8
0
100
AcDbLine
10
-372.42428784276547
20
95.621674941551618
30
0
11
-372.42428784276547
21
70.678828536397162
31
-1.8488927466117464e-31
0
ARC
5
115
100
AcDbEntity
8
0
100
AcDbCircle
10
-372.42428784276535
20
69.678828536397162
30
0
40
0.99999999999991007
210
0
220
0
230
1
100
AcDbArc
50
-1.6374540495705057
51
90.000000000006523
0
ARC
5
116
100
AcDbEntity
8
0
100
AcDbCircle
10
-369.92411977861263
20
139.63417143456331
30
1.3684555315672042e-47
40
70.000003602556717
210
-7.7019495035479602e-34
220
1.6514313729638095e-35
230
1
100
AcDbArc
50
91.228332532256232
51
268.77166746774753
0
ARC
5
117
100
AcDbEntity
8
0
100
AcDbCircle
10
-372.42428784276768
20
209.58951433272682
30
-2.1681467328267891e-46
40
0.99999999999759837
210
-1.4520610453589112e-33
220
-3.1242564559830674e-33
230
1
100
AcDbArc
50
-89.999999999866475
51
1.6374540497216539
0
LINE
5
118
100
AcDbEntity
8
0
100
AcDbLine
10
-372.42428784276535
20
208.58951433272921
30
-3.1242564559723763e-33
11
-372.42428784276547
21
183.64666792757487
31
2.4651903288156619e-31
0
ARC
5
119
100
AcDbEntity
8
0
100
AcDbCircle
10
-372.42428784276535
20
182.64666792757495
30
0
40
0.99999999999994316
210
0
220
0
230
1
100
AcDbArc
50
0
51
90.000000000006523
0
LINE
5
120
100
AcDbEntity
8
0
100
AcDbLine
10
-371.42428784276541
20
182.64666792757484
30
0
11
-415.96178784276515
21
182.64666792757484
31
0
0
LINE
5
121
100
AcDbEntity
8
0
100
AcDbLine
10
-415.96178784276515
20
182.64666792757484
30
0
11
-415.96178784276532
21
160.42166792757513
31
2.4651903288156619e-31
0
ARC
5
122
100
AcDbEntity
8
0
100
AcDbCircle
10
-369.92428784276564
20
42.059728970197305
30
-2.7026996748452282e-46
40
127.00000000000001
210
-2.6924031792962364e-34
220
-1.0472244072605746e-34
230
1
100
AcDbArc
50
68.746190814640229
51
111.25380918535953
0
LINE
5
123
100
AcDbEntity
8
0
100
AcDbLine
10
-323.88678784276544
20
160.4216679275749
30
2.4790302273370041e-32
11
-323.88678784276527
21
182.64666792757481
31
-1.2325951644078309e-31
0
LINE
5
124
100
AcDbEntity
8
0
100
AcDbLine
10
-323.88678784276527
20
182.64666792757481
30
-1.2325951644078309e-31
11
-368.42428784276558
21
182.64666792757481
31
0
0
ARC
5
125
100
AcDbEntity
8
0
100
AcDbCircle
10
-367.42428784276547
20
182.64666792757487
30
0
40
0.99999999999997868
210
0
220
-0
230
1
100
AcDbArc
50
90
51
180
0
LINE
5
126
100
AcDbEntity
8
0
100
AcDbLine
10
-367.42428784276547
20
183.64666792757487
30
0
11
-367.42428784276547
21
208.58951433272907
31
-6.1629758220391547e-32
0
ARC
5
127
100
AcDbEntity
8
0
100
AcDbCircle
10
-367.42428784276524
20
209.58951433272929
30
2.6674191806720113e-47
40
1.0000000515055953
210
-6.2935268777065463e-37
220
-2.2009988418782212e-35
230
1
100
AcDbArc
50
178.36213316149161
51
269.99999999998698
0
ARC
5
128
100
AcDbEntity
8
0
100
AcDbCircle
10
-554.84752830740626
20
387.53510313808727
30
0
40
0.9999999999998721
210
0
220
0
230
1
100
AcDbArc
50
-90.000000000006523
51
0
0
LINE
5
129
100
AcDbEntity
8
0
100
AcDbLine
10
-553.84752830740638
20
387.53510313808738
30
0
11
-553.84752830740638
21
390.43510194599446
31
-7.7037197775489434e-33
0
ARC
5
130
100
AcDbEntity
8
0
100
AcDbCircle
10
-552.84752830740638
20
390.43510194599446
30
0
40
1.0000000000000142
210
0
220
-0
230
1
100
AcDbArc
50
90
51
180
0
LINE
5
131
100
AcDbEntity
8
0
100
AcDbLine
10
-552.84752830740638
20
391.43510194599452
30
0
11
-511.14752555069163
21
391.43510194599452
31
0
0
ARC
5
132
100
AcDbEntity
8
0
100
AcDbCircle
10
-511.14752555069163
20
372.43510194599446
30
0
40
18.999999999999986
210
5.6606014602620936e-49
220
-3.0814879110195774e-33
230
1
100
AcDbArc
50
0
51
90
0
LINE
5
133
100
AcDbEntity
8
0
100
AcDbLine
10
-492.14752555069163
20
372.43510194599446
30
-1.0755142774497969e-47
11
-492.14752555069151
21
332.33510194599444
31
9.8607613152626476e-31
0
LINE
5
134
100
AcDbEntity
8
0
100
AcDbLine
10
-492.14752555069151
20
332.33510194599444
30
9.8607613152626476e-31
11
-492.80355162536216
21
331.19597717198479
31
5.8740863303810694e-30
0
SPLINE
5
135
100
AcDbEntity
8
0
100
AcDbSpline
70
0
71
3
72
12
73
8
74
0
42
0.000000001
43
0.0000000001
44
0.0000000001
40
0
40
0
40
0
40
0
40
1.422936454681772
40
1.422936454681772
40
2.0105982976943881
40
2.0105982976943881
40
2.6033960054276788
40
2.6033960054276788
40
2.6033960054276788
40
2.6033960054276788
10
-514.32837728827599
20
293.82023386608824
30
0
10
-513.63405232278819
20
298.51226056615127
30
0
10
-512.32177229547699
20
304.50433157591652
30
0
10
-506.76762318106142
20
315.52864301790225
30
0
10
-504.8047926843999
20
318.82472700515854
30
0
10
-500.4793261867311
20
324.6312317402793
30
0
10
-497.34532155424802
20
328.16596102661839
30
0
10
-492.80355162536216
20
331.19597717198474
30
0
0
SPLINE
5
136
100
AcDbEntity
8
0
100
AcDbSpline
70
4
71
3
72
8
73
4
74
0
42
0.000000001
43
0.0000000001
44
0.0000000001
40
6.7735638816864441
40
6.7735638816864441
40
6.7735638816864441
40
6.7735638816864441
40
7.0247944686733756
40
7.0247944686733756
40
7.0247944686733756
40
7.0247944686733756
41
1
41
1
41
1
41
1
10
-514.32837728827599
20
293.82023386608824
30
0
10
-514.39429139742015
20
293.37480733616667
30
0
10
-514.45619505663205
20
292.9278456726226
30
0
10
-514.51461758645246
20
292.47863889194878
30
0
0
SPLINE
5
137
100
AcDbEntity
8
0
100
AcDbSpline
70
4
71
3
72
10
73
6
74
0
42
0.000000001
43
0.0000000001
44
0.0000000001
40
-2.8581327411771191
40
-2.8581327411771191
40
-2.8581327411771191
40
-2.8581327411771191
40
-1.4914250833507714
40
-1.4914250833507714
40
0
40
0
40
0
40
0
41
1
41
1
41
1
41
1
41
1
41
1
10
-514.51461758645269
20
292.47863889194736
30
0
10
-514.98692145706536
20
288.84712718114224
30
0
10
-515.26927627686132
20
284.73997530005818
30
0
10
-515.65314500505758
20
275.17756539361972
30
0
10
-515.72917406432862
20
269.68756207417374
30
0
10
-515.74554085731029
20
264.71617207094778
30
0
0
LINE
5
138
100
AcDbEntity
8
0
100
AcDbLine
10
-515.74554085731029
20
264.71617207094778
30
0
11
-516.01933833323335
21
188.86598920799244
31
-2.4651903288156619e-31
0
ARC
5
139
100
AcDbEntity
8
0
100
AcDbCircle
10
-369.8475255506915
20
139.13510194599442
30
-2.0526832973508063e-46
40
154.40000000000009
210
-1.7010882306846437e-33
220
-4.2873103981083173e-35
230
1
100
AcDbArc
50
161.21055861697053
51
211.02057240607436
0
ARC
5
140
100
AcDbEntity
8
0
100
AcDbCircle
10
-505.59352469458634
20
57.504325173837323
30
0
40
4.0000000000000071
210
5.8220829428270729e-34
220
5.0448635876345378e-34
230
1
100
AcDbArc
50
-49.090909090908298
51
31.020572406074514
0
LINE
5
141
100
AcDbEntity
8
0
100
AcDbLine
10
-502.97408175880514
20
54.481326876420312
30
-2.1329228359049074e-47
11
-509.22612846614993
21
49.063897566016408
31
-4.622231866529366e-32
0
ARC
5
142
100
AcDbEntity
8
0
100
AcDbCircle
10
-507.91640699825939
20
47.552398417307884
30
2.5273663098631802e-46
40
1.9999999999999938
210
-1.3970174174338144e-32
220
1.8475221546008405e-32
230
1
100
AcDbArc
50
130.90909090909014
51
220.90909090909309
0
LINE
5
143
100
AcDbEntity
8
0
100
AcDbLine
10
-509.42790614696781
20
46.242676949417294
30
3.0814879110196225e-33
11
-485.32903113778139
21
18.431092613180589
31
-7.3955709864469857e-31
0
ARC
5
144
100
AcDbEntity
8
0
100
AcDbCircle
10
-483.8175319890729
20
19.740814081071012
30
-3.3612688994119452e-46
40
1.9999999999998876
210
-2.7744203582067427e-31
220
-2.444822853835873e-31
230
1
100
AcDbArc
50
220.90909090908838
51
310.90909090909264
0
LINE
5
145
100
AcDbEntity
8
0
100
AcDbLine
10
-482.50781052118236
20
18.229314932362623
30
-6.1629758220392409e-33
11
-476.91621870074823
21
23.074456825536203
31
-9.2444637330587321e-31
0
ARC
5
146
100
AcDbEntity
8
0
100
AcDbCircle
10
-474.29677576496715
20
20.051458528119142
30
0
40
4.0000000000000089
210
3.0479081614616175e-33
220
3.4749508294730043e-33
230
1
100
AcDbArc
50
48.745730944282009
51
130.90909090909003
0
ARC
5
147
100
AcDbEntity
8
0
100
AcDbCircle
10
-369.8475255506915
20
139.13510194599442
30
-2.0526832973508063e-46
40
154.40000000000009
210
-7.8961351333202209e-35
220
-9.0024632887900457e-35
230
1
100
AcDbArc
50
228.74573094428243
51
260.29997665029396
0
ARC
5
148
100
AcDbEntity
8
0
100
AcDbCircle
10
-396.53630690354021
20
-17.000316681234011
30
0
40
3.9999999999999858
210
-6.1629758220391766e-33
220
-8.2488326910073458e-65
230
1
100
AcDbArc
50
0
51
80.299976650293416
0
LINE
5
149
100
AcDbEntity
8
0
100
AcDbLine
10
-392.53630690354021
20
-17.000316681234011
30
2.4651903288156619e-32
11
-392.53630690354021
21
-21.664898054005519
31
1.5407439555097887e-32
0
ARC
5
150
100
AcDbEntity
8
0
100
AcDbCircle
10
-390.53630690354009
20
-21.664898054005448
30
0
40
2.0000000000000995
210
7.7037197775485602e-33
220
2.7369110631341361e-46
230
1
100
AcDbArc
50
180
51
269.99999999999676
0
LINE
5
151
100
AcDbEntity
8
0
100
AcDbLine
10
-390.53630690354021
20
-23.664898054005548
30
0
11
-349.15874419784302
21
-23.664898054005548
31
0
0
ARC
5
152
100
AcDbEntity
8
0
100
AcDbCircle
10
-349.15874419784296
20
-21.664898054005519
30
0
40
2.0000000000000284
210
0
220
0
230
1
100
AcDbArc
50
-90.000000000001634
51
0
0
LINE
5
153
100
AcDbEntity
8
0
100
AcDbLine
10
-347.15874419784291
20
-21.664898054005519
30
0
11
-347.15874419784291
21
-17.000316681234011
31
-1.5407439555097887e-32
0
ARC
5
154
100
AcDbEntity
8
0
100
AcDbCircle
10
-343.15874419784291
20
-17.000316681234011
30
0
40
4.0000000000000027
210
5.1919922410762956e-34
220
-3.0374331122587429e-33
230
1
100
AcDbArc
50
99.700023349706584
51
180
0
ARC
5
155
100
AcDbEntity
8
0
100
AcDbCircle
10
-369.8475255506915
20
139.13510194599442
30
-2.0526832973508063e-46
40
154.40000000000006
210
-7.4502323580962696e-35
220
6.8254216023314055e-35
230
1
100
AcDbArc
50
-80.299976650293971
51
17.967851789227343
0
LINE
5
156
100
AcDbEntity
8
0
100
AcDbLine
10
-222.97765159783046
20
186.76492584941406
30
-5.9472716682678064e-32
11
-201.92339768074802
21
479.6351044791918
31
0
0
LINE
5
157
100
AcDbEntity
8
0
100
AcDbLine
10
-201.92339768074802
20
479.6351044791918
30
0
11
-206.92339775525383
21
594.63510619282533
31
0
0
ARC
5
158
100
AcDbEntity
8
0
100
AcDbCircle
10
-254.0616383011394
20
592.58561747343902
30
0
40
47.182773612544878
210
0
220
-0
230
1
100
AcDbArc
50
2.4895529219991284
51
63.799547097823194
0
ARC
5
159
100
AcDbEntity
8
0
100
AcDbCircle
10
-249.23467722341672
20
602.39510194599438
30
0
40
36.250000000000156
210
2.1253202689153319e-34
220
4.3191349259788133e-34
230
1
100
AcDbArc
50
63.799547097823215
51
89.999999999999972
0
LINE
5
160
100
AcDbEntity
8
0
100
AcDbLine
10
-249.2346772234167
20
638.6451019459945
30
0
11
-390.1411168838639
21
638.6451019459945
31
0
0
ARC
5
161
100
AcDbEntity
8
0
100
AcDbCircle
10
-390.14111688386436
20
633.14510194599598
30
2.0253141867194622e-44
40
5.4999999999984794
210
1.9426723844246372e-33
220
3.5318056030493063e-45
230
1
100
AcDbArc
50
89.999999999995268
51
118.66789655138506
0
LINE
5
162
100
AcDbEntity
8
0
100
AcDbLine
10
-392.77964259537617
20
637.97088499848337
30
3.3896367021215351e-32
11
-407.70689807722414
21
629.80931889350552
31
6.1629758220391547e-32
0
ARC
5
163
100
AcDbEntity
8
0
100
AcDbCircle
10
-410.34542378873647
20
634.63510194599439
30
0
40
5.4999999999999716
210
1.5550631040536412e-49
220
3.0814879110195931e-33
230
1
100
AcDbArc
50
270
51
298.66789655138234
0
LINE
5
164
100
AcDbEntity
8
0
100
AcDbLine
10
-410.34542378873647
20
629.13510194599451
30
1.6948183510607673e-32
11
-542.59752555069156
21
629.13510194599451
31
0
0
ARC
5
165
100
AcDbEntity
8
0
100
AcDbCircle
10
-542.59752555069144
20
626.88510194599439
30
1.317138449133434e-46
40
2.2500000000000853
210
-7.7037197775492222e-34
220
3.4211388289177931e-47
230
1
100
AcDbArc
50
90.000000000002899
51
180
0
LINE
5
166
100
AcDbEntity
8
0
100
AcDbLine
10
-544.84752555069156
20
626.88510194599439
30
-1.7333369499485088e-33
11
-544.84752555069167
21
529.93510194599435
31
2.4651903288156619e-31
0
ARC
5
167
100
AcDbEntity
8
0
100
AcDbCircle
10
-547.34752555069167
20
529.93510194599435
30
0
40
2.5
210
-0
220
0
230
1
100
AcDbArc
50
-90
51
0
0
LINE
5
168
100
AcDbEntity
8
0
100
AcDbLine
10
-547.34752555069167
20
527.43510194599435
30
0
11
-565.0475255506916
21
527.43510194599435
31
0
0
ARC
5
169
100
AcDbEntity
8
0
100
AcDbCircle
10
-565.04752555069172
20
524.93510194599446
30
0
40
2.4999999999999289
210
0
220
-0
230
1
100
AcDbArc
50
89.999999999997399
51
180
0
LINE
5
170
100
AcDbEntity
8
0
100
AcDbLine
10
-567.5475255506916
20
524.93510194599435
30
0
11
-567.5475255506916
21
388.78510313808738
31
-2.4651903288156619e-31
0
ARC
5
171
100
AcDbEntity
8
0
100
AcDbCircle
10
-565.29752555069138
20
388.78510313808755
30
0
40
2.2500000000002274
210
-1.0956401461401834e-31
220
-6.9199924164174504e-45
230
1
100
AcDbArc
50
180
51
269.9999999999971
0
LINE
5
172
100
AcDbEntity
8
0
100
AcDbLine
10
-565.29752555069149
20
386.53510313808738
30
0
11
-554.84752830740638
21
386.53510313808738
31
0
0
CIRCLE
5
173
100
AcDbEntity
8
0
100
AcDbCircle
10
-334.96499296131759
20
15.785903075169259
30
0
40
2.9999999999999716
210
-7.7037197775489434e-34
220
-1.2626313643930483e-65
230
1
0
CIRCLE
5
174
100
AcDbEntity
8
0
100
AcDbCircle
10
-235.00323798525002
20
513.78308844018625
30
0
40
2.9999999999999716
210
-7.7037197775489434e-34
220
-1.2626313643930483e-65
230
1
0
CIRCLE
5
175
100
AcDbEntity
8
0
100
AcDbCircle
10
-541.84752555069156
20
491.46163535913513
30
0
40
3.0000000000000071
210
7.7037197775489434e-34
220
1.2626313643930481e-65
230
1
0
CIRCLE
5
176
100
AcDbEntity
8
0
100
AcDbCircle
10
-438.35810869335899
20
30.651588865946984
30
0
40
3.0000000000000071
210
7.7037197775489434e-34
220
1.2626313643930481e-65
230
1
0
CIRCLE
5
177
100
AcDbEntity
8
0
100
AcDbCircle
10
-317.69411943625653
20
20.857089098314958
30
0
40
2.9999999999999716
210
-7.7037197775489434e-34
220
-1.2626313643930483e-65
230
1
0
CIRCLE
5
178
100
AcDbEntity
8
0
100
AcDbCircle
10
-234.98946256090974
20
495.78309371136243
30
0
40
2.9999999999999716
210
-7.7037197775489434e-34
220
-1.2626313643930483e-65
230
1
0
CIRCLE
5
179
100
AcDbEntity
8
0
100
AcDbCircle
10
-541.84752555069156
20
473.46163535913519
30
0
40
3.0000000000000071
210
7.7037197775489434e-34
220
1.2626313643930481e-65
230
1
0
CIRCLE
5
180
100
AcDbEntity
8
0
100
AcDbCircle
10
-453.50067228432033
20
40.383123580147746
30
0
40
3.0000000000000071
210
7.7037197775489434e-34
220
1.2626313643930481e-65
230
1
0
CIRCLE
5
181
100
AcDbEntity
8
0
100
AcDbCircle
10
-369.84752555069156
20
426.5351036894304
30
0
40
4
210
-7.7037197775489434e-34
220
-2.1382117680737632e-50
230
1
0
CIRCLE
5
182
100
AcDbEntity
8
0
100
AcDbCircle
10
-294.74752555069159
20
77.335101945994353
30
0
40
4.0000000000000036
210
-7.7037197775489434e-34
220
-2.1382117680737627e-50
230
1
0
CIRCLE
5
183
100
AcDbEntity
8
0
100
AcDbCircle
10
-444.94752555069158
20
77.335101945994353
30
0
40
4.0000000000000036
210
-7.7037197775489434e-34
220
-2.1382117680737627e-50
230
1
0
ARC
5
184
100
AcDbEntity
8
0
100
AcDbCircle
10
-372.42428784276774
20
209.58951433272694
30
0
40
0.99999999999774047
210
5.9555868961705076e-44
220
-2.4651903288156619e-32
230
1
100
AcDbArc
50
-89.999999999863206
51
1.6374540497116363
0
LINE
5
185
100
AcDbEntity
8
0
100
AcDbLine
10
-372.42428784276547
20
183.6466679275749
30
1.7763568394002505e-14
11
-372.42428784276535
21
208.58951433272921
31
-2.4651903288100917e-32
0
ARC
5
186
100
AcDbEntity
8
0
100
AcDbCircle
10
-372.42428784276535
20
182.64666792757495
30
0
40
0.99999999999994316
210
-0
220
0
230
1
100
AcDbArc
50
0
51
90.000000000006523
0
LINE
5
187
100
AcDbEntity
8
0
100
AcDbLine
10
-415.96178784276515
20
182.64666792757487
30
0
11
-371.42428784276541
21
182.64666792757484
31
0
0
LINE
5
188
100
AcDbEntity
8
0
100
AcDbLine
10
-415.96178784276532
20
160.42166792757513
30
1.7763568394002505e-14
11
-415.96178784276515
21
182.64666792757487
31
0
0
ARC
5
189
100
AcDbEntity
8
0
100
AcDbCircle
10
-369.92428784276564
20
42.059728970197376
30
1.7763568394002505e-14
40
126.99999999999994
210
-1.1487586898330587e-32
220
4.4681574709784076e-33
230
1
100
AcDbArc
50
68.746190814640215
51
111.25380918535954
0
LINE
5
190
100
AcDbEntity
8
0
100
AcDbLine
10
-323.88678784276527
20
182.64666792757481
30
1.7763568394002505e-14
11
-323.88678784276544
21
160.4216679275749
31
1.7763568394002505e-14
0
LINE
5
191
100
AcDbEntity
8
0
100
AcDbLine
10
-368.42428784276558
20
182.64666792757481
30
0
11
-323.88678784276527
21
182.64666792757481
31
1.7763568394002505e-14
0
ARC
5
192
100
AcDbEntity
8
0
100
AcDbCircle
10
-367.42428784276547
20
182.64666792757481
30
0
40
1.0000000000000497
210
0
220
-0
230
1
100
AcDbArc
50
90
51
180
0
LINE
5
193
100
AcDbEntity
8
0
100
AcDbLine
10
-367.42428784276547
20
208.58951433272907
30
0
11
-367.42428784276547
21
183.64666792757487
31
0
0
ARC
5
194
100
AcDbEntity
8
0
100
AcDbCircle
10
-367.42428784276535
20
209.58951433272921
30
0
40
1.0000000000002058
210
-7.7005739573251955e-34
220
2.2013436524771434e-35
230
1
100
AcDbArc
50
178.36254595040657
51
269.99999999999346
0
ARC
5
195
100
AcDbEntity
8
0
100
AcDbCircle
10
-369.92411977861263
20
139.63417143456331
30
1.7763568394002505e-14
40
70.000003602556689
210
-1.5403900592356045e-33
220
-3.3021232462894973e-35
230
1
100
AcDbArc
50
-88.771942529300844
51
88.771942529300873
0
ARC
5
196
100
AcDbEntity
8
0
100
AcDbCircle
10
-369.92411977861263
20
139.63417143456331
30
1.7763568394002505e-14
40
70.00000360255666
210
-5.4399161294010857e-18
220
2.5370693580113291e-16
230
1
100
AcDbArc
50
91.228332532256232
51
268.77166746774765
0
CIRCLE
5
197
100
AcDbEntity
8
0
100
AcDbCircle
10
-336.58678784276555
20
176.29666792757484
30
1.7763568394002505e-14
40
1.5000000000000036
210
0
220
-0
230
1
0
CIRCLE
5
198
100
AcDbEntity
8
0
100
AcDbCircle
10
-403.26178784276533
20
176.29666792757484
30
1.7763568394002505e-14
40
1.5000000000000036
210
0
220
-0
230
1
0
CIRCLE
5
199
100
AcDbEntity
8
0
100
AcDbCircle
10
-403.26178784276533
20
102.97167494155161
30
0
40
1.5000000000000036
210
0
220
-0
230
1
0
CIRCLE
5
200
100
AcDbEntity
8
0
100
AcDbCircle
10
-336.58678784276555
20
102.97167494155158
30
0
40
1.5000000000000036
210
0
220
-0
230
1
0
ARC
5
201
100
AcDbEntity
8
0
100
AcDbCircle
10
-367.42428784276564
20
69.678828536397077
30
1.7763568394002505e-14
40
1.0000000000000142
210
0
220
-0
230
1
100
AcDbArc
50
90
51
181.63786683849503
0
LINE
5
202
100
AcDbEntity
8
0
100
AcDbLine
10
-367.42428784276569
20
95.621674941551589
30
0
11
-367.42428784276564
21
70.678828536397091
31
1.7763568394002505e-14
0
ARC
5
203
100
AcDbEntity
8
0
100
AcDbCircle
10
-367.42428784276564
20
96.621674941551532
30
0
40
0.99999999999994316
210
-7.7037197775489434e-34
220
2.7347728513664902e-47
230
1
100
AcDbArc
50
180
51
269.99999999999676
0
LINE
5
204
100
AcDbEntity
8
0
100
AcDbLine
10
-323.88678784276544
20
96.621674941551561
30
0
11
-368.42428784276558
21
96.621674941551561
31
-7.7037197775485055e-34
0
LINE
5
205
100
AcDbEntity
8
0
100
AcDbLine
10
-323.88678784276556
20
118.84667494155153
30
0
11
-323.88678784276544
21
96.621674941551561
31
0
0
ARC
5
206
100
AcDbEntity
8
0
100
AcDbCircle
10
-369.92428784276547
20
237.20861389892946
30
0
40
127.00000000000011
210
-8.9363149419567344e-33
220
-2.297517379666121e-32
230
1
100
AcDbArc
50
248.74619081464039
51
291.25380918535956
0
LINE
5
207
100
AcDbEntity
8
0
100
AcDbLine
10
-415.96178784276549
20
96.621674941551589
30
0
11
-415.96178784276532
21
118.8466749415516
31
-3.1307917175958934e-30
0
LINE
5
208
100
AcDbEntity
8
0
100
AcDbLine
10
-371.42428784276552
20
96.621674941551561
30
0
11
-415.96178784276549
21
96.621674941551589
31
0
0
ARC
5
209
100
AcDbEntity
8
0
100
AcDbCircle
10
-372.42428784276547
20
96.621674941551561
30
0
40
0.99999999999994316
210
6.84227765783603e-49
220
-2.4651903288156619e-32
230
1
100
AcDbArc
50
-90
51
0
0
LINE
5
210
100
AcDbEntity
8
0
100
AcDbLine
10
-372.42428784276547
20
70.678828536397162
30
0
11
-372.42428784276547
21
95.621674941551618
31
-2.4651903288155218e-32
0
ARC
5
211
100
AcDbEntity
8
0
100
AcDbCircle
10
-372.42428784276547
20
69.678828536397077
30
1.7763568394002505e-14
40
1.0000000000001203
210
-7.5748179760048423e-48
220
-2.6497655635210454e-46
230
1
100
AcDbArc
50
-1.6374540495645009
51
90
0
ARC
5
212
100
AcDbEntity
8
0
100
AcDbCircle
10
-554.84752830740638
20
387.53510313808738
30
1.7763568394002505e-14
40
0.99999999999994316
210
-1.7431527984210492e-32
220
0
230
1
100
AcDbArc
50
-90
51
0
0
LINE
5
213
100
AcDbEntity
8
0
100
AcDbLine
10
-554.84752830740638
20
386.53510313808744
30
1.7763568394002505e-14
11
-565.29752555069149
21
386.53510313808738
31
1.7700287265744237e-14
0
ARC
5
214
100
AcDbEntity
8
0
100
AcDbCircle
10
-565.29752555069149
20
388.78510313808738
30
1.7763568394002505e-14
40
2.2500000000000142
210
0
220
1.7431527984210358e-32
230
1
100
AcDbArc
50
180
51
270
0
LINE
5
215
100
AcDbEntity
8
0
100
AcDbLine
10
-567.5475255506916
20
524.93510194599435
30
1.7763568394002505e-14
11
-567.54752555069149
21
388.78510313808738
31
1.7763568394002505e-14
0
LINE
5
216
100
AcDbEntity
8
0
100
AcDbLine
10
-553.84752830740638
20
390.43510194599446
30
1.7763568394002505e-14
11
-553.84752830740649
21
387.53510313808738
31
1.7763568394002505e-14
0
CIRCLE
5
217
100
AcDbEntity
8
0
100
AcDbCircle
10
-334.96499296131759
20
15.785903075169259
30
0
40
2.9999999999999716
210
0
220
-0
230
1
0
CIRCLE
5
218
100
AcDbEntity
8
0
100
AcDbCircle
10
-235.00323798525002
20
513.78308844018625
30
0
40
2.9999999999999716
210
0
220
-0
230
1
0
CIRCLE
5
219
100
AcDbEntity
8
0
100
AcDbCircle
10
-541.84752555069156
20
491.46163535913513
30
1.7763568394002505e-14
40
3.0000000000000071
210
0
220
-0
230
1
0
CIRCLE
5
220
100
AcDbEntity
8
0
100
AcDbCircle
10
-438.35810869335899
20
30.651588865946984
30
1.7763568394002505e-14
40
3.0000000000000071
210
0
220
-0
230
1
0
CIRCLE
5
221
100
AcDbEntity
8
0
100
AcDbCircle
10
-317.69411943625653
20
20.857089098314958
30
1.7763568394002505e-14
40
2.9999999999999716
210
0
220
-0
230
1
0
CIRCLE
5
222
100
AcDbEntity
8
0
100
AcDbCircle
10
-234.98946256090974
20
495.78309371136243
30
1.7763568394002505e-14
40
2.9999999999999716
210
0
220
-0
230
1
0
CIRCLE
5
223
100
AcDbEntity
8
0
100
AcDbCircle
10
-541.84752555069156
20
473.46163535913519
30
1.7763568394002505e-14
40
3.0000000000000071
210
0
220
-0
230
1
0
CIRCLE
5
224
100
AcDbEntity
8
0
100
AcDbCircle
10
-453.50067228432033
20
40.383123580147746
30
1.7763568394002505e-14
40
3.0000000000000071
210
0
220
-0
230
1
0
ARC
5
225
100
AcDbEntity
8
0
100
AcDbCircle
10
-249.2346772234167
20
602.3951019459945
30
1.7763568394002505e-14
40
36.250000000000007
210
5.0133945993096572e-33
220
-2.4669451963390135e-33
230
1
100
AcDbArc
50
63.799547097823179
51
90
0
ARC
5
226
100
AcDbEntity
8
0
100
AcDbCircle
10
-565.0475255506916
20
524.93510194599435
30
0
40
2.5
210
0
220
-0
230
1
100
AcDbArc
50
90
51
180
0
LINE
5
227
100
AcDbEntity
8
0
100
AcDbLine
10
-547.34752555069167
20
527.43510194599435
30
0
11
-565.0475255506916
21
527.43510194599435
31
0
0
ARC
5
228
100
AcDbEntity
8
0
100
AcDbCircle
10
-547.34752555069156
20
529.93510194599435
30
0
40
2.4999999999999289
210
0
220
0
230
1
100
AcDbArc
50
-90.000000000002586
51
0
0
LINE
5
229
100
AcDbEntity
8
0
100
AcDbLine
10
-544.84752555069167
20
626.88510194599439
30
1.7763568394002505e-14
11
-544.84752555069167
21
529.93510194599435
31
0
0
ARC
5
230
100
AcDbEntity
8
0
100
AcDbCircle
10
-542.59752555069156
20
626.88510194599439
30
1.7763568394002505e-14
40
2.2499999999999432
210
8.7157639921052461e-33
220
-0
230
1
100
AcDbArc
50
90
51
180
0
LINE
5
231
100
AcDbEntity
8
0
100
AcDbLine
10
-410.34542378873647
20
629.13510194599451
30
0
11
-542.59752555069156
21
629.13510194599439
31
1.7763568394002505e-14
0
ARC
5
232
100
AcDbEntity
8
0
100
AcDbCircle
10
-410.34542378873607
20
634.6351019459936
30
-4.2464885713944804e-45
40
5.4999999999991189
210
5.9711175291159258e-33
220
3.8638572346422934e-46
230
1
100
AcDbArc
50
269.99999999999585
51
298.66789655138325
0
LINE
5
233
100
AcDbEntity
8
0
100
AcDbLine
10
-407.70689807722414
20
629.80931889350563
30
-8.391829341969964e-33
11
-392.77964259537623
21
637.97088499848337
31
1.3970052695757319e-15
0
ARC
5
234
100
AcDbEntity
8
0
100
AcDbCircle
10
-390.1411168838639
20
633.1451019459945
30
0
40
5.4999999999999716
210
0
220
-0
230
1
100
AcDbArc
50
90
51
118.66789655138236
0
LINE
5
235
100
AcDbEntity
8
0
100
AcDbLine
10
-249.2346772234167
20
638.6451019459945
30
1.7763568394002505e-14
11
-390.1411168838639
21
638.6451019459945
31
0
0
ARC
5
236
100
AcDbEntity
8
0
100
AcDbCircle
10
-254.06163830113937
20
592.58561747343902
30
1.7763568394002505e-14
40
47.18277361254485
210
0
220
-0
230
1
100
AcDbArc
50
2.4895529219991284
51
63.799547097823215
0
LINE
5
237
100
AcDbEntity
8
0
100
AcDbLine
10
-201.92339768074788
20
479.6351044791918
30
1.7763568394002505e-14
11
-206.92339775525383
21
594.63510619282533
31
1.7763568394002505e-14
0
LINE
5
238
100
AcDbEntity
8
0
100
AcDbLine
10
-222.97765159783063
20
186.76492584941403
30
0
11
-201.92339768074788
21
479.6351044791918
31
1.7763568394002505e-14
0
ARC
5
239
100
AcDbEntity
8
0
100
AcDbCircle
10
-369.84752555069144
20
139.13510194599439
30
1.7763568394002505e-14
40
154.40000000000003
210
0
220
0
230
1
100
AcDbArc
50
-80.299976650294013
51
17.96785178922736
0
ARC
5
240
100
AcDbEntity
8
0
100
AcDbCircle
10
-343.15874419784285
20
-17.000316681234033
30
-2.3811126249269353e-45
40
4.00000000000004
210
7.4824493831116349e-16
220
-4.3774024424099528e-15
230
1
100
AcDbArc
50
99.700023349707337
51
180
0
LINE
5
241
100
AcDbEntity
8
0
100
AcDbLine
10
-347.15874419784291
20
-17.000316681234011
30
1.3895290680513554e-31
11
-347.15874419784291
21
-21.664898054005519
31
-7.4676796897078193e-16
0
ARC
5
242
100
AcDbEntity
8
0
100
AcDbCircle
10
-349.15874419784302
20
-21.664898054005519
30
0
40
2.0000000000000018
210
-0
220
0
230
1
100
AcDbArc
50
-90
51
0
0
LINE
5
243
100
AcDbEntity
8
0
100
AcDbLine
10
-390.53630690354021
20
-23.664898054005548
30
0
11
-349.15874419784302
21
-23.664898054005519
31
0
0
ARC
5
244
100
AcDbEntity
8
0
100
AcDbCircle
10
-390.53630690354021
20
-21.664898054005519
30
0
40
2.0000000000000284
210
0
220
0
230
1
100
AcDbArc
50
180
51
270
0
LINE
5
245
100
AcDbEntity
8
0
100
AcDbLine
10
-392.53630690354021
20
-21.664898054005519
30
0
11
-392.53630690354021
21
-17.000316681234011
31
7.4676796897078193e-16
0
ARC
5
246
100
AcDbEntity
8
0
100
AcDbCircle
10
-396.53630690354026
20
-17.000316681234033
30
-8.2620502718369952e-46
40
4.0000000000000568
210
-1.8669199224269282e-16
220
-1.0254534935637e-30
230
1
100
AcDbArc
50
0
51
80.29997665029272
0
ARC
5
247
100
AcDbEntity
8
0
100
AcDbCircle
10
-369.84752555069167
20
139.13510194599397
30
1.7763568394002505e-14
40
154.39999999999961
210
0
220
0
230
1
100
AcDbArc
50
228.74573094428237
51
260.29997665029396
0
ARC
5
248
100
AcDbEntity
8
0
100
AcDbCircle
10
-474.29677576496715
20
20.051458528119078
30
0
40
4.0000000000000995
210
-2.9283323861798227e-15
220
-3.3386212822922428e-15
230
1
100
AcDbArc
50
48.745730944281966
51
130.90909090909059
0
LINE
5
249
100
AcDbEntity
8
0
100
AcDbLine
10
-476.91621870074835
20
23.07445682553621
30
0
11
-482.50781052118225
21
18.229314932362612
31
1.6954033395097607e-14
0
ARC
5
250
100
AcDbEntity
8
0
100
AcDbCircle
10
-483.8175319890729
20
19.740814081071143
30
0
40
2.0000000000000271
210
0
220
0
230
1
100
AcDbArc
50
220.90909090908909
51
310.90909090909247
0
LINE
5
251
100
AcDbEntity
8
0
100
AcDbLine
10
-485.3290311377815
20
18.431092613180589
30
0
11
-509.42790614696787
21
46.242676949417287
31
-1.3457055042074938e-14
0
ARC
5
252
100
AcDbEntity
8
0
100
AcDbCircle
10
-507.91640699825933
20
47.552398417307877
30
1.7763568394002505e-14
40
2
210
-8.2336686590071178e-34
220
-7.1345145059547423e-34
230
1
100
AcDbArc
50
130.90909090909003
51
220.90909090909093
0
LINE
5
253
100
AcDbEntity
8
0
100
AcDbLine
10
-509.22612846614987
20
49.063897566016408
30
1.7763568394002505e-14
11
-502.9740817588052
21
54.481326876420297
31
1.8668722201168423e-14
0
ARC
5
254
100
AcDbEntity
8
0
100
AcDbCircle
10
-505.59352469458645
20
57.504325173837387
30
1.7763568394002505e-14
40
4.0000000000001137
210
-1.4818742162350862e-16
220
1.7101740112268842e-16
230
1
100
AcDbArc
50
-49.090909090908397
51
31.020572406072652
0
ARC
5
255
100
AcDbEntity
8
0
100
AcDbCircle
10
-369.84752555069156
20
139.13510194599442
30
1.7763568394002505e-14
40
154.40000000000001
210
0
220
0
230
1
100
AcDbArc
50
161.21055861697053
51
211.02057240607439
0
LINE
5
256
100
AcDbEntity
8
0
100
AcDbLine
10
-516.01933833323335
20
188.86598920799241
30
1.7763568394002505e-14
11
-515.74554085731029
21
264.71617207094778
31
1.2144759926752797e-14
0
SPLINE
5
257
100
AcDbEntity
8
0
100
AcDbSpline
70
4
71
3
72
10
73
6
74
0
42
0.000000001
43
0.0000000001
44
0.0000000001
40
0
40
0
40
0
40
0
40
1.4914250833507714
40
1.4914250833507714
40
2.8581327411771191
40
2.8581327411771191
40
2.8581327411771191
40
2.8581327411771191
41
1
41
1
41
1
41
1
41
1
41
1
10
-515.74554085731029
20
264.71617207094778
30
1.7763568394002505e-14
10
-515.72917406432862
20
269.68756207417374
30
1.7763568394002505e-14
10
-515.65314500505758
20
275.17756539361972
30
1.7763568394002505e-14
10
-515.26927627686132
20
284.73997530005818
30
1.7763568394002505e-14
10
-514.98692145706536
20
288.84712718114224
30
1.7763568394002505e-14
10
-514.51461758645269
20
292.47863889194736
30
1.7763568394002505e-14
0
SPLINE
5
258
100
AcDbEntity
8
0
100
AcDbSpline
70
4
71
3
72
8
73
4
74
0
42
0.000000001
43
0.0000000001
44
0.0000000001
40
-7.0247944686733756
40
-7.0247944686733756
40
-7.0247944686733756
40
-7.0247944686733756
40
-6.7735638816864441
40
-6.7735638816864441
40
-6.7735638816864441
40
-6.7735638816864441
41
1
41
1
41
1
41
1
10
-514.51461758645246
20
292.47863889194878
30
1.7763568394002505e-14
10
-514.45619505663205
20
292.9278456726226
30
1.7763568394002505e-14
10
-514.39429139742015
20
293.37480733616667
30
1.7763568394002505e-14
10
-514.32837728827599
20
293.82023386608824
30
1.7763568394002505e-14
0
SPLINE
5
259
100
AcDbEntity
8
0
100
AcDbSpline
70
4
71
3
72
12
73
8
74
0
42
0.000000001
43
0.0000000001
44
0.0000000001
40
0.10010351349993118
40
0.10010351349993118
40
0.10010351349993118
40
0.10010351349993118
40
1.8462846297172044
40
1.8462846297172044
40
4.1706380960675027
40
4.1706380960675027
40
6.7735638816864441
40
6.7735638816864441
40
6.7735638816864441
40
6.7735638816864441
41
1
41
1
41
1
41
1
41
1
41
1
41
1
41
1
10
-492.80355162536216
20
331.19597717198474
30
0
10
-497.55217718213567
20
328.02795846328445
30
0
10
-500.76557779849713
20
324.30479260934106
30
0
10
-505.85684624028801
20
317.32560653080134
30
0
10
-508.49507581879124
20
312.49212028630319
30
0
10
-512.5320456181696
20
302.88531118568181
30
0
10
-513.64546070401343
20
298.43516636390541
30
1.7763568394002505e-14
10
-514.32837728827599
20
293.82023386608824
30
1.7763568394002505e-14
0
LINE
5
260
100
AcDbEntity
8
0
100
AcDbLine
10
-492.14752555069151
20
332.33510194599444
30
0
11
-492.80355162536216
21
331.19597717198474
31
0
0
LINE
5
261
100
AcDbEntity
8
0
100
AcDbLine
10
-492.14752555069151
20
372.43510194599446
30
1.7763568394002505e-14
11
-492.14752555069151
21
332.33510194599444
31
0
0
ARC
5
262
100
AcDbEntity
8
0
100
AcDbCircle
10
-511.14752555069174
20
372.43510194599435
30
1.7763568394002505e-14
40
19.000000000000199
210
0
220
-0
230
1
100
AcDbArc
50
0
51
89.999999999999659
0
LINE
5
263
100
AcDbEntity
8
0
100
AcDbLine
10
-511.14752555069163
20
391.43510194599457
30
1.7763568394002505e-14
11
-552.84752830740638
21
391.43510194599452
31
1.751104935869718e-14
0
ARC
5
264
100
AcDbEntity
8
0
100
AcDbCircle
10
-552.84752830740661
20
390.4351019459948
30
1.7763568394002505e-14
40
0.99999999999972999
210
7.1770226470977269e-29
220
2.5251903530539225e-16
230
1
100
AcDbArc
50
89.999999999986969
51
180
0
CIRCLE
5
265
100
AcDbEntity
8
0
100
AcDbCircle
10
-444.94752555069158
20
77.335101945994353
30
0
40
4.0000000000000036
210
0
220
-0
230
1
0
CIRCLE
5
266
100
AcDbEntity
8
0
100
AcDbCircle
10
-294.74752555069159
20
77.335101945994353
30
0
40
4.0000000000000036
210
0
220
-0
230
1
0
CIRCLE
5
267
100
AcDbEntity
8
0
100
AcDbCircle
10
-369.84752555069156
20
426.5351036894304
30
0
40
4
210
0
220
-0
230
1
0
ENDSEC
0
SECTION
2
OBJECTS
0
DICTIONARY
5
C
100
AcDbDictionary
3
ACAD_GROUP
350
D
3
ACAD_MLINESTYLE
350
17
0
DICTIONARY
5
D
100
AcDbDictionary
0
DICTIONARY
5
1A
330
C
100
AcDbDictionary
0
DICTIONARY
5
17
100
AcDbDictionary
0
ENDSEC
0
EOF
