0
SECTION
2
HEADER
9
$INSUNITS
70
4
9
$ACADVER
1
AC1014
9
$HANDSEED
5
FFFF
0
ENDSEC
0
SECTION
2
TABLES
0
TABLE
2
VPORT
5
8
100
AcDbSymbolTable
0
ENDTAB
0
TABLE
2
LTYPE
5
5
100
AcDbSymbolTable
0
LTYPE
5
14
100
AcDbSymbolTableRecord
100
AcDbLinetypeTableRecord
2
BYBLOCK
70
0
0
LTYPE
5
15
100
AcDbSymbolTableRecord
100
AcDbLinetypeTableRecord
2
BYLAYER
70
0
0
ENDTAB
0
TABLE
2
LAYER
5
2
100
AcDbSymbolTable
70
2
0
LAYER
5
50
100
AcDbSymbolTableRecord
100
AcDbLayerTableRecord
2
0
70
0
6
CONTINUOUS
0
ENDTAB
0
TABLE
2
STYLE
5
3
100
AcDbSymbolTable
70
1
0
STYLE
5
11
100
AcDbSymbolTableRecord
100
AcDbTextStyleTableRecord
2
STANDARD
70
0
0
ENDTAB
0
TABLE
2
VIEW
5
6
100
AcDbSymbolTable
70
0
0
ENDTAB
0
TABLE
2
UCS
5
7
100
AcDbSymbolTable
70
0
0
ENDTAB
0
TABLE
2
APPID
5
9
100
AcDbSymbolTable
70
2
0
APPID
5
12
100
AcDbSymbolTableRecord
100
AcDbRegAppTableRecord
2
ACAD
70
0
0
ENDTAB
0
TABLE
2
DIMSTYLE
5
A
100
AcDbSymbolTable
70
1
0
ENDTAB
0
TABLE
2
BLOCK_RECORD
5
1
100
AcDbSymbolTable
70
1
0
BLOCK_RECORD
5
1F
100
AcDbSymbolTableRecord
100
AcDbBlockTableRecord
2
*MODEL_SPACE
0
BLOCK_RECORD
5
1B
100
AcDbSymbolTableRecord
100
AcDbBlockTableRecord
2
*PAPER_SPACE
0
ENDTAB
0
ENDSEC
0
SECTION
2
BLOCKS
0
BLOCK
5
20
100
AcDbEntity
100
AcDbBlockBegin
2
*MODEL_SPACE
0
ENDBLK
5
21
100
AcDbEntity
100
AcDbBlockEnd
0
BLOCK
5
1C
100
AcDbEntity
100
AcDbBlockBegin
2
*PAPER_SPACE
0
ENDBLK
5
1D
100
AcDbEntity
100
AcDbBlockEnd
0
ENDSEC
0
SECTION
2
ENTITIES
0
ARC
5
100
100
AcDbEntity
8
0
100
AcDbCircle
10
-190.07587746467209
20
-77.900001192093086
30
0
40
1.000000000000032
210
0
220
0
230
1
100
AcDbArc
50
90.000000000001634
51
180
0
LINE
5
101
100
AcDbEntity
8
0
100
AcDbLine
10
-191.07587746467209
20
-77.900001192093043
30
0
11
-191.07587746467215
21
-80.800000000000125
31
5.5467076271946579e-33
0
ARC
5
102
100
AcDbEntity
8
0
100
AcDbCircle
10
-192.07587746467215
20
-80.800000000000125
30
0
40
0.99999999999999645
210
1.7321173681128097e-78
220
3.5032461608120551e-46
230
1
100
AcDbArc
50
-90
51
0
0
LINE
5
103
100
AcDbEntity
8
0
100
AcDbLine
10
-192.07587746467215
20
-81.800000000000125
30
3.5032461608120427e-46
11
-233.77588022138693
21
-81.800000000000125
31
0
0
ARC
5
104
100
AcDbEntity
8
0
100
AcDbCircle
10
-233.77588022138693
20
-62.80000000000009
30
0
40
19.000000000000021
210
0
220
0
230
1
100
AcDbArc
50
180
51
270
0
LINE
5
105
100
AcDbEntity
8
0
100
AcDbLine
10
-252.77588022138696
20
-62.80000000000009
30
0
11
-252.77588022138698
21
-22.700000000000102
31
-9.8361094119744941e-31
0
LINE
5
106
100
AcDbEntity
8
0
100
AcDbLine
10
-252.77588022138698
20
-22.700000000000102
30
-9.8361094119744941e-31
11
-252.11985414671634
21
-21.560875225990422
31
1.8296334471678741e-30
0
SPLINE
5
107
100
AcDbEntity
8
0
100
AcDbSpline
70
0
71
3
72
12
73
8
74
0
42
0.000000001
43
0.0000000001
44
0.0000000001
40
0
40
0
40
0
40
0
40
1.422936454681772
40
1.422936454681772
40
2.0105982976943881
40
2.0105982976943881
40
2.6033960054276788
40
2.6033960054276788
40
2.6033960054276788
40
2.6033960054276788
10
-230.59502848380259
20
15.814868079906109
30
0
10
-231.28935344929036
20
11.122841379843109
30
0
10
-232.60163347660151
20
5.1307703700778085
30
0
10
-238.1557825910171
20
-5.8935410719078574
30
0
10
-240.1186130876786
20
-9.1896250591641717
30
0
10
-244.44407958534742
20
-14.996129794284887
30
0
10
-247.57808421783051
20
-18.530859080624062
30
0
10
-252.11985414671634
20
-21.560875225990401
30
0
0
SPLINE
5
108
100
AcDbEntity
8
0
100
AcDbSpline
70
4
71
3
72
8
73
4
74
0
42
0.000000001
43
0.0000000001
44
0.0000000001
40
6.7735638816864441
40
6.7735638816864441
40
6.7735638816864441
40
6.7735638816864441
40
7.0247944686733756
40
7.0247944686733756
40
7.0247944686733756
40
7.0247944686733756
41
1
41
1
41
1
41
1
10
-230.59502848380259
20
15.814868079906109
30
0
10
-230.52911437465841
20
16.260294609827699
30
0
10
-230.46721071544641
20
16.707256273371755
30
0
10
-230.40878818562601
20
17.156463054045577
30
0
0
SPLINE
5
109
100
AcDbEntity
8
0
100
AcDbSpline
70
4
71
3
72
10
73
6
74
0
42
0.000000001
43
0.0000000001
44
0.0000000001
40
-2.8581327411771191
40
-2.8581327411771191
40
-2.8581327411771191
40
-2.8581327411771191
40
-1.4914250833507714
40
-1.4914250833507714
40
0
40
0
40
0
40
0
41
1
41
1
41
1
41
1
41
1
41
1
10
-230.40878818562587
20
17.156463054046998
30
0
10
-229.9364843150131
20
20.78797476485212
30
0
10
-229.65412949521718
20
24.895126645936184
30
0
10
-229.27026076702094
20
34.457536552374634
30
0
10
-229.19423170774994
20
39.947539871820609
30
0
10
-229.17786491476829
20
44.918929875046558
30
0
0
LINE
5
110
100
AcDbEntity
8
0
100
AcDbLine
10
-229.17786491476829
20
44.918929875046558
30
0
11
-228.90406743884515
21
120.76911273800192
31
5.8933456298249417e-31
0
ARC
5
111
100
AcDbEntity
8
0
100
AcDbCircle
10
-375.07588022138697
20
170.49999999999997
30
-1.0947644252537633e-46
40
154.40000000000006
210
-3.2932754156052372e-33
220
2.1706937365219377e-33
230
1
100
AcDbArc
50
-18.789441383029473
51
31.020572406074415
0
ARC
5
112
100
AcDbEntity
8
0
100
AcDbCircle
10
-239.32988107749222
20
252.13077677215705
30
0
40
3.9999999999999969
210
0
220
0
230
1
100
AcDbArc
50
130.90909090909102
51
211.02057240607348
0
LINE
5
113
100
AcDbEntity
8
0
100
AcDbLine
10
-241.94932401327335
20
255.15377506957407
30
0
11
-235.69727730592859
21
260.57120437997798
31
-3.0814879110195774e-32
0
ARC
5
114
100
AcDbEntity
8
0
100
AcDbCircle
10
-237.00699877381922
20
262.08270352868647
30
0
40
2.0000000000000466
210
1.0089727175268973e-32
220
-1.1644165885653751e-32
230
1
100
AcDbArc
50
-49.090909090907232
51
40.909090909090558
0
LINE
5
115
100
AcDbEntity
8
0
100
AcDbLine
10
-235.49549962511065
20
263.39242499657706
30
0
11
-259.59437463429714
21
291.20400933281377
31
0
0
ARC
5
116
100
AcDbEntity
8
0
100
AcDbCircle
10
-261.10587378300562
20
289.89428786492317
30
-2.5059841921824426e-46
40
2.00000000000002
210
2.0179454350538035e-33
220
-2.3288331771308983e-33
230
1
100
AcDbArc
50
40.909090909092164
51
130.90909090909003
0
LINE
5
117
100
AcDbEntity
8
0
100
AcDbLine
10
-262.41559525089622
20
291.40578701363177
30
6.1629758220392122e-33
11
-268.00718707133024
21
286.56064512045816
31
0
0
ARC
5
118
100
AcDbEntity
8
0
100
AcDbCircle
10
-270.62663000711143
20
289.58364341787524
30
0
40
3.9999999999999956
210
-8.1277550972310065e-33
220
-9.2665355452613758e-33
230
1
100
AcDbArc
50
228.74573094428268
51
310.90909090909105
0
ARC
5
119
100
AcDbEntity
8
0
100
AcDbCircle
10
-375.07588022138697
20
170.49999999999997
30
-1.0947644252537633e-46
40
154.40000000000003
210
8.1671732480934529e-34
220
-2.9159676301366912e-34
230
1
100
AcDbArc
50
48.745730944282428
51
80.299976650293971
0
ARC
5
120
100
AcDbEntity
8
0
100
AcDbCircle
10
-348.38709886853837
20
326.63541862722838
30
0
40
3.9999999999999858
210
0
220
0
230
1
100
AcDbArc
50
180
51
260.2999766502943
0
LINE
5
121
100
AcDbEntity
8
0
100
AcDbLine
10
-352.38709886853832
20
326.63541862722838
30
0
11
-352.38709886853826
21
331.2999999999999
31
-8.2687075594830419e-33
0
ARC
5
122
100
AcDbEntity
8
0
100
AcDbCircle
10
-354.38709886853837
20
331.29999999999984
30
-1.0042512447915563e-60
40
2.0000000000000995
210
4.134353779741315e-33
220
1.4140793013659903e-46
230
1
100
AcDbArc
50
0
51
89.999999999996746
0
LINE
5
123
100
AcDbEntity
8
0
100
AcDbLine
10
-354.38709886853826
20
333.2999999999999
30
1.094764425253732e-47
11
-395.76466157423545
21
333.2999999999999
31
0
0
ARC
5
124
100
AcDbEntity
8
0
100
AcDbCircle
10
-395.76466157423545
20
331.29999999999984
30
0
40
2.0000000000000995
210
0
220
-0
230
1
100
AcDbArc
50
90
51
180
0
LINE
5
125
100
AcDbEntity
8
0
100
AcDbLine
10
-397.76466157423556
20
331.2999999999999
30
0
11
-397.76466157423556
21
326.63541862722838
31
8.2687075594830419e-33
0
ARC
5
126
100
AcDbEntity
8
0
100
AcDbCircle
10
-401.76466157423562
20
326.63541862722838
30
0
40
4.000000000000024
210
2.258634276097304e-33
220
5.075348892495721e-33
230
1
100
AcDbArc
50
-80.299976650294269
51
0
0
ARC
5
127
100
AcDbEntity
8
0
100
AcDbCircle
10
-375.07588022138697
20
170.49999999999997
30
-1.0947644252537633e-46
40
154.40000000000003
210
-1.9821615542419523e-34
220
-1.5536553506121267e-34
230
1
100
AcDbArc
50
99.700023349706044
51
197.96785178922735
0
LINE
5
128
100
AcDbEntity
8
0
100
AcDbLine
10
-521.94575417424801
20
122.87017609658034
30
2.7369110631344083e-47
11
-543.00000809133053
21
-170.0000025331974
31
-3.6977854932234928e-31
0
LINE
5
129
100
AcDbEntity
8
0
100
AcDbLine
10
-543.00000809133053
20
-170.0000025331974
30
-3.6977854932234928e-31
11
-538.00000801682472
21
-285.00000424683094
31
0
0
ARC
5
130
100
AcDbEntity
8
0
100
AcDbCircle
10
-490.86176747093918
20
-282.95051552744462
30
0
40
47.182773612544878
210
-8.3657050934803848e-36
220
1.9241121715004858e-34
230
1
100
AcDbArc
50
182.48955292199912
51
243.79954709782325
0
ARC
5
131
100
AcDbEntity
8
0
100
AcDbCircle
10
-495.68872854866186
20
-292.76000000000016
30
-4.7895943604852146e-46
40
36.249999999999993
210
-1.7632980763048146e-33
220
-1.0332264714937576e-33
230
1
100
AcDbArc
50
243.79954709782314
51
270
0
LINE
5
132
100
AcDbEntity
8
0
100
AcDbLine
10
-495.68872854866186
20
-329.0100000000001
30
9.2444637330587299e-32
11
-354.78228888821462
21
-329.0100000000001
31
0
0
ARC
5
133
100
AcDbEntity
8
0
100
AcDbCircle
10
-354.78228888821423
20
-323.51000000000164
30
6.5010190596514493e-45
40
5.4999999999984794
210
-3.4428881234392133e-33
220
-9.1513228581203028e-46
230
1
100
AcDbArc
50
269.99999999999585
51
298.66789655138587
0
LINE
5
134
100
AcDbEntity
8
0
100
AcDbLine
10
-352.14376317670235
20
-328.33578305248898
30
8.474091755303731e-33
11
-337.21650769485439
21
-320.17421694751113
31
0
0
ARC
5
135
100
AcDbEntity
8
0
100
AcDbCircle
10
-334.57798198334206
20
-325.00000000000006
30
0
40
5.5000000000000071
210
-1.7632558254121537e-49
220
-3.4940392424454091e-33
230
1
100
AcDbArc
50
90
51
118.66789655138207
0
LINE
5
136
100
AcDbEntity
8
0
100
AcDbLine
10
-334.57798198334206
20
-319.50000000000006
30
1.9217215833449773e-32
11
-202.32588022138688
21
-319.50000000000011
31
0
0
ARC
5
137
100
AcDbEntity
8
0
100
AcDbCircle
10
-202.32588022138688
20
-317.25000000000011
30
0
40
2.2499999999999787
210
0
220
0
230
1
100
AcDbArc
50
-90
51
0
0
LINE
5
138
100
AcDbEntity
8
0
100
AcDbLine
10
-200.07588022138691
20
-317.25000000000011
30
0
11
-200.07588022138691
21
-220.30000000000001
31
1.8488927466135681e-33
0
ARC
5
139
100
AcDbEntity
8
0
100
AcDbCircle
10
-197.57588022138691
20
-220.30000000000001
30
0
40
2.5
210
0
220
-0
230
1
100
AcDbArc
50
90
51
180
0
LINE
5
140
100
AcDbEntity
8
0
100
AcDbLine
10
-197.57588022138691
20
-217.80000000000001
30
0
11
-179.87588022138692
21
-217.80000000000001
31
0
0
ARC
5
141
100
AcDbEntity
8
0
100
AcDbCircle
10
-179.87588022138686
20
-215.30000000000004
30
0
40
2.4999999999999645
210
0
220
0
230
1
100
AcDbArc
50
-90.000000000001322
51
0
0
LINE
5
142
100
AcDbEntity
8
0
100
AcDbLine
10
-177.37588022138692
20
-215.30000000000001
30
0
11
-177.37588022138695
21
-79.150001192093029
31
-2.4652197161774452e-33
0
ARC
5
143
100
AcDbEntity
8
0
100
AcDbCircle
10
-179.62588022138692
20
-79.150001192093015
30
-3.160124945788861e-60
40
2.2499999999999787
210
1.095653207189986e-33
220
1.4461692589907005e-46
230
1
100
AcDbArc
50
0
51
90.00000000000145
0
LINE
5
144
100
AcDbEntity
8
0
100
AcDbLine
10
-179.62588022138698
20
-76.900001192093029
30
-3.4485079395493522e-46
11
-190.07587746467212
21
-76.900001192093043
31
0
0
CIRCLE
5
145
100
AcDbEntity
8
0
100
AcDbCircle
10
-409.95841281076093
20
293.84919887082509
30
0
40
2.9999999999999716
210
0
220
-0
230
1
0
CIRCLE
5
146
100
AcDbEntity
8
0
100
AcDbCircle
10
-509.92016778682853
20
-204.1479864941918
30
0
40
2.9999999999999716
210
0
220
-0
230
1
0
CIRCLE
5
147
100
AcDbEntity
8
0
100
AcDbCircle
10
-203.07588022138697
20
-181.82653341314077
30
0
40
3.0000000000000071
210
-3.0814879110195774e-33
220
-3.4994883795730608e-65
230
1
0
CIRCLE
5
148
100
AcDbEntity
8
0
100
AcDbCircle
10
-306.56529707871948
20
278.98351308004737
30
0
40
3.0000000000000071
210
-3.0814879110195774e-33
220
-3.4994883795730608e-65
230
1
0
CIRCLE
5
149
100
AcDbEntity
8
0
100
AcDbCircle
10
-427.229286335822
20
288.77801284767941
30
0
40
2.9999999999999716
210
0
220
-0
230
1
0
CIRCLE
5
150
100
AcDbEntity
8
0
100
AcDbCircle
10
-509.93394321116881
20
-186.14799176536803
30
0
40
2.9999999999999716
210
0
220
-0
230
1
0
CIRCLE
5
151
100
AcDbEntity
8
0
100
AcDbCircle
10
-203.07588022138697
20
-163.82653341314079
30
0
40
3.0000000000000071
210
-3.0814879110195774e-33
220
-3.4994883795730608e-65
230
1
0
CIRCLE
5
152
100
AcDbEntity
8
0
100
AcDbCircle
10
-291.42273348775819
20
269.25197836584664
30
0
40
3.0000000000000071
210
-3.0814879110195774e-33
220
-3.4994883795730608e-65
230
1
0
CIRCLE
5
153
100
AcDbEntity
8
0
100
AcDbCircle
10
-375.07588022138691
20
-116.90000174343602
30
0
40
4
210
-0
220
0
230
1
0
CIRCLE
5
154
100
AcDbEntity
8
0
100
AcDbCircle
10
-450.17588022138693
20
232.30000000000001
30
0
40
4.0000000000000036
210
-0
220
0
230
1
0
CIRCLE
5
155
100
AcDbEntity
8
0
100
AcDbCircle
10
-299.97588022138694
20
232.30000000000001
30
0
40
4.0000000000000036
210
-0
220
0
230
1
0
ARC
5
156
100
AcDbEntity
8
0
100
AcDbCircle
10
-190.07587746467212
20
-77.900001192093043
30
0
40
0.99999999999999645
210
1.7431527984210492e-32
220
-1.7431527984210552e-32
230
1
100
AcDbArc
50
90
51
180
0
LINE
5
157
100
AcDbEntity
8
0
100
AcDbLine
10
-190.07587746467212
20
-76.900001192093043
30
1.7431527984210489e-32
11
-179.62588022138698
21
-76.900001192093029
31
-6.3281128258264882e-17
0
ARC
5
158
100
AcDbEntity
8
0
100
AcDbCircle
10
-179.62588022138698
20
-79.150001192093029
30
0
40
2.2499999999999787
210
-1.7431527984210796e-32
220
-1.7431527984210358e-32
230
1
100
AcDbArc
50
0
51
90
0
LINE
5
159
100
AcDbEntity
8
0
100
AcDbLine
10
-177.37588022138695
20
-215.30000000000001
30
0
11
-177.37588022138698
21
-79.150001192093029
31
3.9220937964473922e-32
0
LINE
5
160
100
AcDbEntity
8
0
100
AcDbLine
10
-191.07587746467215
20
-80.800000000000125
30
-5.5511151231257827e-16
11
-191.07587746467215
21
-77.900001192093043
31
1.7431527984210484e-32
0
CIRCLE
5
161
100
AcDbEntity
8
0
100
AcDbCircle
10
-409.95841281076093
20
293.84919887082509
30
0
40
2.9999999999999716
210
0
220
0
230
1
0
CIRCLE
5
162
100
AcDbEntity
8
0
100
AcDbCircle
10
-509.92016778682853
20
-204.1479864941918
30
0
40
2.9999999999999716
210
0
220
0
230
1
0
CIRCLE
5
163
100
AcDbEntity
8
0
100
AcDbCircle
10
-203.07588022138697
20
-181.82653341314077
30
0
40
3.0000000000000071
210
0
220
0
230
1
0
CIRCLE
5
164
100
AcDbEntity
8
0
100
AcDbCircle
10
-306.56529707871948
20
278.98351308004737
30
0
40
3.0000000000000071
210
0
220
0
230
1
0
CIRCLE
5
165
100
AcDbEntity
8
0
100
AcDbCircle
10
-427.229286335822
20
288.77801284767941
30
0
40
2.9999999999999716
210
0
220
0
230
1
0
CIRCLE
5
166
100
AcDbEntity
8
0
100
AcDbCircle
10
-509.93394321116881
20
-186.14799176536803
30
0
40
2.9999999999999716
210
0
220
0
230
1
0
CIRCLE
5
167
100
AcDbEntity
8
0
100
AcDbCircle
10
-203.07588022138697
20
-163.82653341314079
30
0
40
3.0000000000000071
210
0
220
0
230
1
0
CIRCLE
5
168
100
AcDbEntity
8
0
100
AcDbCircle
10
-291.42273348775819
20
269.25197836584664
30
0
40
3.0000000000000071
210
0
220
0
230
1
0
ARC
5
169
100
AcDbEntity
8
0
100
AcDbCircle
10
-495.68872854866186
20
-292.7600000000001
30
0
40
36.249999999999993
210
5.5874810075854094e-33
220
2.4010339267042847e-32
230
1
100
AcDbArc
50
243.79954709782325
51
270
0
ARC
5
170
100
AcDbEntity
8
0
100
AcDbCircle
10
-179.87588022138692
20
-215.30000000000001
30
0
40
2.5
210
-0
220
0
230
1
100
AcDbArc
50
-90
51
0
0
LINE
5
171
100
AcDbEntity
8
0
100
AcDbLine
10
-197.57588022138691
20
-217.80000000000001
30
0
11
-179.87588022138692
21
-217.80000000000001
31
0
0
ARC
5
172
100
AcDbEntity
8
0
100
AcDbCircle
10
-197.57588022138694
20
-220.29999999999998
30
0
40
2.4999999999999645
210
0
220
-0
230
1
100
AcDbArc
50
89.999999999999346
51
180
0
LINE
5
173
100
AcDbEntity
8
0
100
AcDbLine
10
-200.07588022138691
20
-317.25000000000011
30
0
11
-200.07588022138691
21
-220.30000000000001
31
0
0
ARC
5
174
100
AcDbEntity
8
0
100
AcDbCircle
10
-202.32588022138691
20
-317.25000000000011
30
0
40
2.2500000000000142
210
-8.7157639921052461e-33
220
8.71576399210519e-33
230
1
100
AcDbArc
50
-90
51
0
0
LINE
5
175
100
AcDbEntity
8
0
100
AcDbLine
10
-334.57798198334206
20
-319.50000000000011
30
0
11
-202.32588022138691
21
-319.50000000000011
31
1.96104689822368e-32
0
ARC
5
176
100
AcDbEntity
8
0
100
AcDbCircle
10
-334.57798198334206
20
-325.00000000000028
30
-6.2153539674367954e-45
40
5.5000000000001847
210
-5.9711175291158923e-33
220
-1.130064357715743e-45
230
1
100
AcDbArc
50
90
51
118.66789655138149
0
LINE
5
177
100
AcDbEntity
8
0
100
AcDbLine
10
-337.21650769485439
20
-320.17421694751124
30
-8.3918293419699503e-33
11
-352.14376317670224
21
-328.33578305248898
31
2.8678224495057534e-16
0
ARC
5
178
100
AcDbEntity
8
0
100
AcDbCircle
10
-354.78228888821462
20
-323.5100000000001
30
0
40
5.4999999999999716
210
-0
220
0
230
1
100
AcDbArc
50
270
51
298.66789655138285
0
LINE
5
179
100
AcDbEntity
8
0
100
AcDbLine
10
-495.68872854866186
20
-329.0100000000001
30
8.7037479843030309e-31
11
-354.78228888821462
21
-329.0100000000001
31
0
0
ARC
5
180
100
AcDbEntity
8
0
100
AcDbCircle
10
-490.86176747093907
20
-282.95051552744457
30
0
40
47.182773612544949
210
0
220
0
230
1
100
AcDbArc
50
182.48955292199912
51
243.79954709782319
0
LINE
5
181
100
AcDbEntity
8
0
100
AcDbLine
10
-543.00000809133064
20
-170.0000025331974
30
0
11
-538.00000801682472
21
-285.00000424683094
31
0
0
LINE
5
182
100
AcDbEntity
8
0
100
AcDbLine
10
-521.9457541742479
20
122.87017609658034
30
0
11
-543.00000809133064
21
-170.0000025331974
31
0
0
ARC
5
183
100
AcDbEntity
8
0
100
AcDbCircle
10
-375.07588022138714
20
170.49999999999997
30
0
40
154.40000000000003
210
0
220
0
230
1
100
AcDbArc
50
99.700023349705987
51
197.96785178922735
0
ARC
5
184
100
AcDbEntity
8
0
100
AcDbCircle
10
-401.76466157423584
20
326.63541862722843
30
-7.225445206674838e-45
40
4.0000000000001297
210
-3.424158818417019e-32
220
-5.8530362185369672e-33
230
1
100
AcDbArc
50
279.70002334970877
51
360
0
LINE
5
185
100
AcDbEntity
8
0
100
AcDbLine
10
-397.76466157423567
20
326.63541862722838
30
1.3895290680513447e-31
11
-397.76466157423556
21
331.2999999999999
31
-1.9165645665820366e-16
0
ARC
5
186
100
AcDbEntity
8
0
100
AcDbCircle
10
-395.76466157423556
20
331.2999999999999
30
0
40
2.0000000000000284
210
0
220
-0
230
1
100
AcDbArc
50
90
51
180
0
LINE
5
187
100
AcDbEntity
8
0
100
AcDbLine
10
-354.38709886853826
20
333.2999999999999
30
0
11
-395.76466157423556
21
333.2999999999999
31
0
0
ARC
5
188
100
AcDbEntity
8
0
100
AcDbCircle
10
-354.38709886853826
20
331.2999999999999
30
0
40
2.0000000000000284
210
0
220
-0
230
1
100
AcDbArc
50
0
51
90
0
LINE
5
189
100
AcDbEntity
8
0
100
AcDbLine
10
-352.38709886853826
20
331.2999999999999
30
0
11
-352.38709886853826
21
326.63541862722838
31
-3.6345505565437461e-16
0
ARC
5
190
100
AcDbEntity
8
0
100
AcDbCircle
10
-348.38709886853815
20
326.63541862722843
30
-2.4084817355582793e-45
40
4.0000000000001279
210
-9.0863763913590744e-17
220
-1.6249599327566935e-30
230
1
100
AcDbArc
50
180
51
260.29997665029134
0
ARC
5
191
100
AcDbEntity
8
0
100
AcDbCircle
10
-375.07588022138697
20
170.50000000000017
30
0
40
154.39999999999984
210
0
220
-0
230
1
100
AcDbArc
50
48.745730944282407
51
80.299976650293956
0
ARC
5
192
100
AcDbEntity
8
0
100
AcDbCircle
10
-270.62663000711137
20
289.58364341787518
30
0
40
4.0000000000000355
210
0
220
0
230
1
100
AcDbArc
50
228.7457309442803
51
310.90909090909048
0
LINE
5
193
100
AcDbEntity
8
0
100
AcDbLine
10
-268.00718707133024
20
286.5606451204581
30
0
11
-262.41559525089622
21
291.40578701363177
31
-2.5442348659231812e-16
0
ARC
5
194
100
AcDbEntity
8
0
100
AcDbCircle
10
-261.10587378300562
20
289.89428786492323
30
0
40
2
210
0
220
-0
230
1
100
AcDbArc
50
40.909090909089862
51
130.90909090909108
0
LINE
5
195
100
AcDbEntity
8
0
100
AcDbLine
10
-259.59437463429708
20
291.20400933281377
30
0
11
-235.49549962511063
21
263.39242499657706
31
-1.343787465730597e-16
0
ARC
5
196
100
AcDbEntity
8
0
100
AcDbCircle
10
-237.00699877381913
20
262.08270352868647
30
0
40
2
210
1.5368183164962023e-33
220
-1.0991541530525652e-34
230
1
100
AcDbArc
50
-49.090909090909058
51
40.909090909091631
0
LINE
5
197
100
AcDbEntity
8
0
100
AcDbLine
10
-235.69727730592859
20
260.57120437997798
30
-2.1789409980263365e-33
11
-241.94932401327333
21
255.15377506957407
31
-2.0506921745923693e-16
0
ARC
5
198
100
AcDbEntity
8
0
100
AcDbCircle
10
-239.32988107749222
20
252.13077677215705
30
-6.8422776578360209e-47
40
3.9999999999999734
210
-3.3572944563735331e-17
220
3.8745243451995203e-17
230
1
100
AcDbArc
50
130.90909090909071
51
211.02057240607488
0
ARC
5
199
100
AcDbEntity
8
0
100
AcDbCircle
10
-375.07588022138691
20
170.49999999999997
30
0
40
154.39999999999995
210
-0
220
0
230
1
100
AcDbArc
50
-18.789441383029526
51
31.020572406074415
0
LINE
5
200
100
AcDbEntity
8
0
100
AcDbLine
10
-228.90406743884517
20
120.76911273800195
30
0
11
-229.17786491476832
21
44.918929875046558
31
-6.7693344123927278e-17
0
SPLINE
5
201
100
AcDbEntity
8
0
100
AcDbSpline
70
4
71
3
72
10
73
6
74
0
42
0.000000001
43
0.0000000001
44
0.0000000001
40
0
40
0
40
0
40
0
40
1.4914250833507714
40
1.4914250833507714
40
2.8581327411771191
40
2.8581327411771191
40
2.8581327411771191
40
2.8581327411771191
41
1
41
1
41
1
41
1
41
1
41
1
10
-229.17786491476829
20
44.918929875046558
30
0
10
-229.19423170774994
20
39.947539871820609
30
0
10
-229.27026076702094
20
34.457536552374634
30
0
10
-229.65412949521718
20
24.895126645936184
30
0
10
-229.9364843150131
20
20.78797476485212
30
-5.5511151231257827e-16
10
-230.40878818562587
20
17.156463054046998
30
0
0
SPLINE
5
202
100
AcDbEntity
8
0
100
AcDbSpline
70
4
71
3
72
8
73
4
74
0
42
0.000000001
43
0.0000000001
44
0.0000000001
40
-7.0247944686733756
40
-7.0247944686733756
40
-7.0247944686733756
40
-7.0247944686733756
40
-6.7735638816864441
40
-6.7735638816864441
40
-6.7735638816864441
40
-6.7735638816864441
41
1
41
1
41
1
41
1
10
-230.40878818562601
20
17.156463054045577
30
0
10
-230.46721071544641
20
16.707256273371755
30
0
10
-230.52911437465841
20
16.260294609827699
30
0
10
-230.59502848380259
20
15.814868079906109
30
0
0
SPLINE
5
203
100
AcDbEntity
8
0
100
AcDbSpline
70
4
71
3
72
12
73
8
74
0
42
0.000000001
43
0.0000000001
44
0.0000000001
40
0.10010351349993118
40
0.10010351349993118
40
0.10010351349993118
40
0.10010351349993118
40
1.8462846297172044
40
1.8462846297172044
40
4.1706380960675027
40
4.1706380960675027
40
6.7735638816864441
40
6.7735638816864441
40
6.7735638816864441
40
6.7735638816864441
41
1
41
1
41
1
41
1
41
1
41
1
41
1
41
1
10
-252.11985414671634
20
-21.560875225990401
30
0
10
-247.37122858994286
20
-18.392856517290092
30
0
10
-244.15782797358136
20
-14.669690663346696
30
0
10
-239.06655953179052
20
-7.6905045848069911
30
0
10
-236.42832995328729
20
-2.8570183403088159
30
0
10
-232.39136015390886
20
6.7497907603125711
30
0
10
-231.27794506806507
20
11.199935582088926
30
0
10
-230.59502848380259
20
15.814868079906109
30
0
0
LINE
5
204
100
AcDbEntity
8
0
100
AcDbLine
10
-252.77588022138698
20
-22.700000000000085
30
0
11
-252.11985414671634
21
-21.560875225990401
31
0
0
LINE
5
205
100
AcDbEntity
8
0
100
AcDbLine
10
-252.77588022138698
20
-62.80000000000009
30
0
11
-252.77588022138698
21
-22.700000000000085
31
0
0
ARC
5
206
100
AcDbEntity
8
0
100
AcDbCircle
10
-233.77588022138693
20
-62.800000000000082
30
0
40
19.000000000000057
210
0
220
0
230
1
100
AcDbArc
50
180
51
270.00000000000011
0
LINE
5
207
100
AcDbEntity
8
0
100
AcDbLine
10
-233.7758802213869
20
-81.800000000000097
30
0
11
-192.07587746467215
21
-81.800000000000125
31
-2.5251903530532426e-16
0
ARC
5
208
100
AcDbEntity
8
0
100
AcDbCircle
10
-192.07587746467223
20
-80.800000000000068
30
3.3424526358528962e-45
40
1.0000000000000497
210
1.7959988145717068e-29
220
-2.5251903530531169e-16
230
1
100
AcDbArc
50
270.00000000000489
51
360
0
CIRCLE
5
209
100
AcDbEntity
8
0
100
AcDbCircle
10
-299.97588022138694
20
232.30000000000001
30
0
40
4.0000000000000036
210
0
220
0
230
1
0
CIRCLE
5
210
100
AcDbEntity
8
0
100
AcDbCircle
10
-450.17588022138693
20
232.30000000000001
30
0
40
4.0000000000000036
210
0
220
0
230
1
0
CIRCLE
5
211
100
AcDbEntity
8
0
100
AcDbCircle
10
-375.07588022138691
20
-116.90000174343602
30
0
40
4
210
0
220
0
230
1
0
ENDSEC
0
SECTION
2
OBJECTS
0
DICTIONARY
5
C
100
AcDbDictionary
3
ACAD_GROUP
350
D
3
ACAD_MLINESTYLE
350
17
0
DICTIONARY
5
D
100
AcDbDictionary
0
DICTIONARY
5
1A
330
C
100
AcDbDictionary
0
DICTIONARY
5
17
100
AcDbDictionary
0
ENDSEC
0
EOF
