0
SECTION
2
HEADER
9
$INSUNITS
70
4
9
$ACADVER
1
AC1014
9
$HANDSEED
5
FFFF
0
ENDSEC
0
SECTION
2
TABLES
0
TABLE
2
VPORT
5
8
100
AcDbSymbolTable
0
ENDTAB
0
TABLE
2
LTYPE
5
5
100
AcDbSymbolTable
0
LTYPE
5
14
100
AcDbSymbolTableRecord
100
AcDbLinetypeTableRecord
2
BYBLOCK
70
0
0
LTYPE
5
15
100
AcDbSymbolTableRecord
100
AcDbLinetypeTableRecord
2
BYLAYER
70
0
0
ENDTAB
0
TABLE
2
LAYER
5
2
100
AcDbSymbolTable
70
2
0
LAYER
5
50
100
AcDbSymbolTableRecord
100
AcDbLayerTableRecord
2
0
70
0
6
CONTINUOUS
0
ENDTAB
0
TABLE
2
STYLE
5
3
100
AcDbSymbolTable
70
1
0
STYLE
5
11
100
AcDbSymbolTableRecord
100
AcDbTextStyleTableRecord
2
STANDARD
70
0
0
ENDTAB
0
TABLE
2
VIEW
5
6
100
AcDbSymbolTable
70
0
0
ENDTAB
0
TABLE
2
UCS
5
7
100
AcDbSymbolTable
70
0
0
ENDTAB
0
TABLE
2
APPID
5
9
100
AcDbSymbolTable
70
2
0
APPID
5
12
100
AcDbSymbolTableRecord
100
AcDbRegAppTableRecord
2
ACAD
70
0
0
ENDTAB
0
TABLE
2
DIMSTYLE
5
A
100
AcDbSymbolTable
70
1
0
ENDTAB
0
TABLE
2
BLOCK_RECORD
5
1
100
AcDbSymbolTable
70
1
0
BLOCK_RECORD
5
1F
100
AcDbSymbolTableRecord
100
AcDbBlockTableRecord
2
*MODEL_SPACE
0
BLOCK_RECORD
5
1B
100
AcDbSymbolTableRecord
100
AcDbBlockTableRecord
2
*PAPER_SPACE
0
ENDTAB
0
ENDSEC
0
SECTION
2
BLOCKS
0
BLOCK
5
20
100
AcDbEntity
100
AcDbBlockBegin
2
*MODEL_SPACE
0
ENDBLK
5
21
100
AcDbEntity
100
AcDbBlockEnd
0
BLOCK
5
1C
100
AcDbEntity
100
AcDbBlockBegin
2
*PAPER_SPACE
0
ENDBLK
5
1D
100
AcDbEntity
100
AcDbBlockEnd
0
ENDSEC
0
SECTION
2
ENTITIES
0
CIRCLE
5
100
100
AcDbEntity
8
0
100
AcDbCircle
10
-75.500778751219784
20
256.85039236195917
30
0
40
2.9999999999999978
210
-7.7037197775489451e-34
220
6.1629758220391547e-33
230
1
0
CIRCLE
5
101
100
AcDbEntity
8
0
100
AcDbCircle
10
57.692962637974205
20
266.58192707616701
30
-3.944304526105059e-30
40
2.9999999999999978
210
-7.7037197775489451e-34
220
6.1629758220391547e-33
230
1
0
CIRCLE
5
102
100
AcDbEntity
8
0
100
AcDbCircle
10
-60.358215160258545
20
266.58192707616001
30
0
40
2.9999999999999978
210
-7.7037197775489451e-34
220
6.1629758220391547e-33
230
1
0
CIRCLE
5
103
100
AcDbEntity
8
0
100
AcDbCircle
10
72.835526228935436
20
256.85039236195928
30
-3.944304526105059e-30
40
2.9999999999999978
210
-7.7037197775489451e-34
220
6.1629758220391547e-33
230
1
0
CIRCLE
5
104
100
AcDbEntity
8
0
100
AcDbCircle
10
-76.432626261142204
20
220.28940617314902
30
-3.944304526105059e-30
40
4.0000000000000027
210
-3.4211388289180104e-49
220
6.1629758220391547e-33
230
1
0
CIRCLE
5
105
100
AcDbEntity
8
0
100
AcDbCircle
10
73.767373738857771
20
220.28940617314902
30
3.944304526105059e-30
40
4.0000000000000027
210
-3.4211388289180104e-49
220
6.1629758220391547e-33
230
1
0
CIRCLE
5
106
100
AcDbEntity
8
0
100
AcDbCircle
10
-1.3326262611422339
20
-128.91059557028692
30
0
40
3.9999999999999991
210
0
220
-0
230
1
0
CIRCLE
5
107
100
AcDbEntity
8
0
100
AcDbCircle
10
-145.63174603975534
20
-288.61059382685096
30
-3.944304526105059e-30
40
2.9999999999999889
210
-7.7037197775489468e-34
220
6.1629758220391547e-33
230
1
0
CIRCLE
5
108
100
AcDbEntity
8
0
100
AcDbCircle
10
133.51825396024458
20
-198.76311287118713
30
3.944304526105059e-30
40
3.0000000000000067
210
7.7037197775489468e-34
220
-6.1629758220391547e-33
230
1
0
LWPOLYLINE
5
109
100
AcDbEntity
8
0
100
AcDbPolyline
90
47
70
1
43
0.0
10
-23.021407613990835
20
320.2894061731489
10
20.356155091706395
20
320.2894061731489
10
20.356155091706398
20
309.33819391580312
10
61.976621720345207
20
297.11732226517768
10
98.468149592119275
20
273.6656413047379
10
126.87441214232983
20
240.88306675338202
10
144.89410291770722
20
201.42544783578288
10
151.06737373885781
20
158.48940617314895
10
145.1636561998576
20
116.48227314663825
10
163.76737373885777
20
-163.51059382685108
10
163.76737373885777
20
-244.51059382685102
10
160.66737373885775
20
-244.51059382685102
10
160.66737373885775
20
-294.51059382685094
42
-0.0085447300546701958
10
160.64325396024464
20
-295.92187407886377
10
160.64325396024458
20
-297.71059382685098
42
-0.41421356237309503
10
122.54325396024463
20
-335.81059382685089
10
79.767373738857756
20
-335.810593826851
10
79.767373738857742
20
-339.02059382685093
10
-18.862626261142218
20
-339.02059382685093
10
-18.862626261142218
20
-335.810593826851
10
-18.832626261142217
20
-335.810593826851
10
-25.348784073827204
20
-335.77090630773182
42
-0.26413357978837521
10
-30.826061235033471
20
-332.61616205205007
42
0.26576310485442561
10
-36.256126210348413
20
-329.51059382685111
10
-174.33262626114217
20
-329.51059382685094
10
-174.33262626114217
20
-227.81059382685095
10
-197.03262626114218
20
-227.81059382685095
10
-197.03262626114221
20
-92.91059501894398
42
-0.41421356237310542
10
-196.03262626114216
20
-91.91059501894398
10
-187.33262901785702
20
-91.910595018944008
42
-0.41421356237310542
10
-186.33262901785699
20
-92.91059501894398
10
-186.33262901785699
20
-95.81059382685099
10
-142.63262626114221
20
-95.810593826850976
42
0.41421356237309503
10
-123.63262626114219
20
-76.810593826850976
10
-123.63262626114219
20
-34.710593826851017
10
-147.53262626114216
20
6.7894061731489685
10
-147.53262626114216
20
116.56723077521121
10
-153.73262626114223
20
158.48940617314895
10
-147.55935543999166
20
201.42544783578288
10
-129.53966466461421
20
240.88306675338208
10
-125.9467833476152
20
245.02947282917262
10
-136.12720403898362
20
253.85085757360679
10
-115.30263269952356
20
277.88369403807224
10
-105.12221200815516
20
269.06230929363801
10
-101.13340211440371
20
273.6656413047379
10
-64.641874242629655
20
297.11732226517756
10
-23.021407613990835
20
309.33819391580306
0
CIRCLE
5
110
100
AcDbEntity
8
0
100
AcDbCircle
10
133.51825396024458
20
-216.76311287118716
30
3.944304526105059e-30
40
3.0000000000000067
210
7.7037197775489468e-34
220
-6.1629758220391547e-33
230
1
0
CIRCLE
5
111
100
AcDbEntity
8
0
100
AcDbCircle
10
-145.63174603975534
20
-306.61059382685096
30
-3.944304526105059e-30
40
3.0000000000000067
210
7.7037197775489468e-34
220
-6.1629758220391547e-33
230
1
0
CIRCLE
5
112
100
AcDbEntity
8
0
100
AcDbCircle
10
-75.500778751219798
20
256.85039236195922
30
0
40
2.9999999999999982
210
0
220
0
230
1
0
CIRCLE
5
113
100
AcDbEntity
8
0
100
AcDbCircle
10
57.692962637974205
20
266.58192707616701
30
0
40
2.9999999999999982
210
0
220
0
230
1
0
CIRCLE
5
114
100
AcDbEntity
8
0
100
AcDbCircle
10
-60.35821516025856
20
266.58192707616007
30
0
40
2.9999999999999982
210
0
220
0
230
1
0
CIRCLE
5
115
100
AcDbEntity
8
0
100
AcDbCircle
10
72.835526228935436
20
256.85039236195934
30
0
40
2.9999999999999982
210
0
220
0
230
1
0
CIRCLE
5
116
100
AcDbEntity
8
0
100
AcDbCircle
10
-76.432626261142232
20
220.28940617314905
30
0
40
4.0000000000000036
210
0
220
0
230
1
0
CIRCLE
5
117
100
AcDbEntity
8
0
100
AcDbCircle
10
73.767373738857771
20
220.28940617314905
30
0
40
4.0000000000000036
210
0
220
0
230
1
0
CIRCLE
5
118
100
AcDbEntity
8
0
100
AcDbCircle
10
-1.3326262611422344
20
-128.91059557028694
30
0
40
4
210
0
220
0
230
1
0
CIRCLE
5
119
100
AcDbEntity
8
0
100
AcDbCircle
10
-145.63174603975534
20
-288.61059382685096
30
0
40
2.9999999999999893
210
0
220
0
230
1
0
CIRCLE
5
120
100
AcDbEntity
8
0
100
AcDbCircle
10
133.51825396024461
20
-198.76311287118716
30
0
40
3.0000000000000071
210
0
220
0
230
1
0
LWPOLYLINE
5
121
100
AcDbEntity
8
0
100
AcDbPolyline
90
47
70
1
43
0.0
10
79.767373738857742
20
-339.02059382685104
10
-18.862626261142253
20
-339.02059382685104
10
-18.862626261142218
20
-335.81059382685106
10
-18.83262626114222
20
-335.81059382685106
10
-25.348784073827218
20
-335.77090630773205
42
-0.26413357978836499
10
-30.826061235033471
20
-332.61616205205024
42
0.26576310485443283
10
-36.256126210348469
20
-329.51059382685105
10
-174.3326262611422
20
-329.51059382685105
10
-174.3326262611422
20
-227.81059382685098
10
-197.03262626114221
20
-227.810593826851
10
-197.03262626114221
20
-92.910595018944008
42
-0.41421356237309503
10
-196.03262626114218
20
-91.910595018943994
10
-187.33262901785704
20
-91.910595018943994
42
-0.41421356237309503
10
-186.33262901785702
20
-92.910595018944008
10
-186.33262901785702
20
-95.810593826851004
10
-142.63262626114224
20
-95.81059382685099
42
0.41421356237309453
10
-123.63262626114221
20
-76.810593826850976
10
-123.63262626114221
20
-34.710593826851039
10
-147.53262626114218
20
6.7894061731489508
10
-147.53262626114218
20
116.56723077521124
10
-153.73262626114223
20
158.48940617314898
10
-147.55935543999169
20
201.4254478357829
10
-129.53966466461421
20
240.88306675338214
10
-125.94678334761522
20
245.02947282917265
10
-136.12720403898362
20
253.85085757360682
10
-115.30263269952356
20
277.88369403807224
10
-105.12221200815517
20
269.06230929363807
10
-101.13340211440374
20
273.66564130473796
10
-64.641874242629669
20
297.11732226517762
10
-23.021407613990839
20
309.33819391580317
10
-23.021407613990839
20
320.28940617314896
10
20.356155091706398
20
320.28940617314896
10
20.356155091706398
20
309.33819391580323
10
61.976621720345229
20
297.11732226517768
10
98.468149592119289
20
273.66564130473796
10
126.87441214232985
20
240.88306675338208
10
144.89410291770722
20
201.42544783578288
10
151.06737373885781
20
158.48940617314898
10
145.1636561998576
20
116.48227314663825
10
163.76737373885783
20
-163.51059382685105
10
163.76737373885783
20
-244.51059382685105
10
160.6673737388578
20
-244.51059382685105
10
160.66737373885783
20
-294.51059382685122
42
-0.0085447300546669762
10
160.64325396024469
20
-295.92187407886377
10
160.64325396024464
20
-297.71059382685098
42
-0.41421356237309515
10
122.54325396024464
20
-335.810593826851
10
79.767373738857742
20
-335.81059382685106
0
CIRCLE
5
122
100
AcDbEntity
8
0
100
AcDbCircle
10
133.51825396024461
20
-216.76311287118719
30
0
40
3.0000000000000071
210
-0
220
0
230
1
0
CIRCLE
5
123
100
AcDbEntity
8
0
100
AcDbCircle
10
-145.63174603975534
20
-306.61059382685102
30
0
40
3.0000000000000071
210
-0
220
0
230
1
0
ENDSEC
0
SECTION
2
OBJECTS
0
DICTIONARY
5
C
100
AcDbDictionary
3
ACAD_GROUP
350
D
3
ACAD_MLINESTYLE
350
17
0
DICTIONARY
5
D
100
AcDbDictionary
0
DICTIONARY
5
1A
330
C
100
AcDbDictionary
0
DICTIONARY
5
17
100
AcDbDictionary
0
ENDSEC
0
EOF
